<svg width="950" height="240" viewBox="0 0 950 240" fill="none" xmlns="http://www.w3.org/2000/svg">
<g clip-path="url(#clip0)">
<rect width="950" height="240" fill="white"/>
<path d="M710.777 -27.8398C795.455 -22.8949 860.091 49.7587 855.146 134.437C850.201 219.114 777.548 283.751 692.87 278.806C608.192 273.861 543.555 201.207 548.5 116.53C553.445 31.8517 626.099 -32.7847 710.777 -27.8398Z" fill="white" stroke="#EBEBEB"/>
<path d="M471.789 53.7228C524.005 56.772 563.863 101.573 560.813 153.789C557.764 206.005 512.963 245.862 460.747 242.813C408.531 239.764 368.674 194.963 371.723 142.747C374.772 90.531 419.573 50.6735 471.789 53.7228Z" fill="#F8F9FA"/>
<circle cx="749.734" cy="118.923" r="76.2201" fill="white"/>
<circle cx="744.23" cy="118.924" r="86.4797" stroke="#C7C3C8" stroke-width="1.5"/>
<circle cx="747.617" cy="116.383" r="85.6328" stroke="black" stroke-width="1.5"/>
<path d="M749.311 42.7031L749.311 52.2306M749.311 195.143L749.311 185.616" stroke="black" stroke-width="1.5"/>
<path d="M695.415 65.0278L702.152 71.7648M803.207 172.819L796.47 166.082" stroke="black" stroke-width="1.5"/>
<path d="M673.091 118.923H682.619M825.531 118.923H816.004" stroke="black" stroke-width="1.5"/>
<path d="M695.415 172.819L702.152 166.082M803.207 65.0278L796.47 71.7648" stroke="black" stroke-width="1.5"/>
<path d="M760.517 64.7789L750.029 119.636L779.885 138.518" stroke="black" stroke-width="1.5"/>
<path d="M750.029 119.636L809.864 144.33" stroke="#FF3B30" stroke-width="1.5"/>
<path d="M514.486 132.265C505.977 162.305 524.247 183.982 555.293 180.683C563.802 150.644 545.532 128.967 514.486 132.265Z" fill="#EEEEF0"/>
<path d="M512.975 166.785C504.058 156.204 500.997 140.566 506.052 122.258C524.952 120.377 539.845 126.042 548.762 136.623C557.68 147.204 560.741 162.841 555.686 181.149C536.786 183.03 521.893 177.365 512.975 166.785Z" stroke="black" stroke-width="1.5"/>
<path d="M555.317 180.713L524.931 144.659" stroke="black" stroke-width="1.5"/>
<path d="M533.914 155.316L538.038 142.822" stroke="black" stroke-width="1.5"/>
<path d="M541.178 163.499L528.165 165.447" stroke="black" stroke-width="1.5"/>
<path d="M585.212 159.268C585.739 177.694 572.146 187.46 554.851 181.082C554.324 162.656 567.917 152.89 585.212 159.268Z" fill="#EEEEF0"/>
<path d="M580.905 178.996C587.398 174.331 591.374 166.006 591.184 154.977C580.791 151.278 571.633 152.389 565.14 157.054C558.647 161.72 554.671 170.045 554.861 181.074C565.254 184.773 574.412 183.662 580.905 178.996Z" stroke="black" stroke-width="1.5"/>
<path d="M554.832 181.096L577.441 164.852" stroke="black" stroke-width="1.5"/>
<path d="M565.416 173.286L572.583 176.284" stroke="black" stroke-width="1.5"/>
<path d="M555.224 198.723V180.687" stroke="black" stroke-width="1.5"/>
<path d="M533.869 241.156H540.369V209.156H530.869L533.869 241.156Z" fill="#EEEEF0"/>
<path d="M526.869 196.156H581.869V209.156H526.869V196.156Z" fill="black" stroke="black" stroke-width="1.5"/>
<path d="M533.869 241.156H573.869L576.869 209.156H530.869L533.869 241.156Z" stroke="black" stroke-width="1.5"/>
<path d="M547.869 215.156H530.869" stroke="black" stroke-width="1.5"/>
<path d="M541.869 221.156H531.869" stroke="black" stroke-width="1.5"/>
</g>
<defs>
<clipPath id="clip0">
<rect width="950" height="240" fill="white"/>
</clipPath>
</defs>
</svg>
