<svg width="161" height="329" viewBox="0 0 161 329" fill="none" xmlns="http://www.w3.org/2000/svg">
<mask id="mask0" mask-type="alpha" maskUnits="userSpaceOnUse" x="-168" y="0" width="329" height="329">
<rect x="-168" y="210.314" width="297.43" height="166.899" transform="rotate(-45 -168 210.314)" fill="#333333"/>
</mask>
<g mask="url(#mask0)">
<rect width="4.51406" height="4.51406" transform="translate(15.8491 4.54382)" fill="#BDBDBD"/>
<circle cx="18.1062" cy="6.80085" r="2.25703" fill="#BDBDBD"/>
<rect width="4.51406" height="4.51406" transform="translate(38.4194 4.54382)" fill="#BDBDBD"/>
<circle cx="40.6765" cy="6.80085" r="2.25703" fill="#BDBDBD"/>
<rect width="4.51406" height="4.51406" transform="translate(60.9907 4.54419)" fill="#BDBDBD"/>
<circle cx="63.2478" cy="6.80122" r="2.25703" fill="#BDBDBD"/>
<rect width="4.51406" height="4.51406" transform="translate(83.5613 4.54419)" fill="#BDBDBD"/>
<circle cx="85.8183" cy="6.80122" r="2.25703" fill="#BDBDBD"/>
<rect width="4.51406" height="4.51406" transform="translate(106.129 4.54419)" fill="#BDBDBD"/>
<circle cx="108.386" cy="6.80122" r="2.25703" fill="#BDBDBD"/>
<rect width="4.51406" height="4.51406" transform="translate(128.7 4.54419)" fill="#BDBDBD"/>
<circle cx="130.957" cy="6.80122" r="2.25703" fill="#BDBDBD"/>
<rect width="4.51406" height="4.51406" transform="translate(151.271 4.54382)" fill="#BDBDBD"/>
<circle cx="153.528" cy="6.80085" r="2.25703" fill="#BDBDBD"/>
<rect width="4.51406" height="4.51406" transform="translate(15.8494 27.1149)" fill="#BDBDBD"/>
<circle cx="18.1064" cy="29.3719" r="2.25703" fill="#BDBDBD"/>
<rect width="4.51406" height="4.51406" transform="translate(38.4199 27.1149)" fill="#BDBDBD"/>
<circle cx="40.677" cy="29.3719" r="2.25703" fill="#BDBDBD"/>
<rect width="4.51406" height="4.51406" transform="translate(60.9907 27.1149)" fill="#BDBDBD"/>
<circle cx="63.2478" cy="29.3719" r="2.25703" fill="#BDBDBD"/>
<rect width="4.51406" height="4.51406" transform="translate(83.5613 27.1149)" fill="#BDBDBD"/>
<circle cx="85.8183" cy="29.3719" r="2.25703" fill="#BDBDBD"/>
<rect width="4.51406" height="4.51406" transform="translate(106.129 27.1149)" fill="#BDBDBD"/>
<circle cx="108.386" cy="29.3719" r="2.25703" fill="#BDBDBD"/>
<rect width="4.51406" height="4.51406" transform="translate(128.7 27.1149)" fill="#BDBDBD"/>
<circle cx="130.957" cy="29.3719" r="2.25703" fill="#BDBDBD"/>
<rect width="4.51406" height="4.51406" transform="translate(151.271 27.1149)" fill="#BDBDBD"/>
<circle cx="153.528" cy="29.3719" r="2.25703" fill="#BDBDBD"/>
<rect width="4.51406" height="4.51406" transform="translate(15.8494 49.6855)" fill="#BDBDBD"/>
<circle cx="18.1064" cy="51.9426" r="2.25703" fill="#BDBDBD"/>
<rect width="4.51406" height="4.51406" transform="translate(38.4199 49.6855)" fill="#BDBDBD"/>
<circle cx="40.677" cy="51.9426" r="2.25703" fill="#BDBDBD"/>
<rect width="4.51406" height="4.51406" transform="translate(60.9907 49.6855)" fill="#BDBDBD"/>
<circle cx="63.2478" cy="51.9426" r="2.25703" fill="#BDBDBD"/>
<rect width="4.51406" height="4.51406" transform="translate(83.5613 49.6855)" fill="#BDBDBD"/>
<circle cx="85.8183" cy="51.9426" r="2.25703" fill="#BDBDBD"/>
<rect width="4.51406" height="4.51406" transform="translate(106.129 49.6855)" fill="#BDBDBD"/>
<circle cx="108.386" cy="51.9426" r="2.25703" fill="#BDBDBD"/>
<rect width="4.51406" height="4.51406" transform="translate(128.7 49.6855)" fill="#BDBDBD"/>
<circle cx="130.957" cy="51.9426" r="2.25703" fill="#BDBDBD"/>
<rect width="4.51406" height="4.51406" transform="translate(151.271 49.6855)" fill="#BDBDBD"/>
<circle cx="153.528" cy="51.9426" r="2.25703" fill="#BDBDBD"/>
<rect width="4.51406" height="4.51406" transform="translate(15.8494 72.2534)" fill="#BDBDBD"/>
<circle cx="18.1064" cy="74.5105" r="2.25703" fill="#BDBDBD"/>
<rect width="4.51406" height="4.51406" transform="translate(38.4199 72.2534)" fill="#BDBDBD"/>
<circle cx="40.677" cy="74.5105" r="2.25703" fill="#BDBDBD"/>
<rect width="4.51406" height="4.51406" transform="translate(60.9907 72.2534)" fill="#BDBDBD"/>
<circle cx="63.2478" cy="74.5105" r="2.25703" fill="#BDBDBD"/>
<rect width="4.51406" height="4.51406" transform="translate(83.5613 72.2534)" fill="#BDBDBD"/>
<circle cx="85.8183" cy="74.5105" r="2.25703" fill="#BDBDBD"/>
<rect width="4.51406" height="4.51406" transform="translate(106.129 72.2534)" fill="#BDBDBD"/>
<circle cx="108.386" cy="74.5105" r="2.25703" fill="#BDBDBD"/>
<rect width="4.51406" height="4.51406" transform="translate(128.7 72.2534)" fill="#BDBDBD"/>
<circle cx="130.957" cy="74.5105" r="2.25703" fill="#BDBDBD"/>
<rect width="4.51406" height="4.51406" transform="translate(151.271 72.2534)" fill="#BDBDBD"/>
<circle cx="153.528" cy="74.5105" r="2.25703" fill="#BDBDBD"/>
<rect width="4.51406" height="4.51406" transform="translate(15.8494 94.8241)" fill="#BDBDBD"/>
<circle cx="18.1064" cy="97.0811" r="2.25703" fill="#BDBDBD"/>
<rect width="4.51406" height="4.51406" transform="translate(38.4199 94.8241)" fill="#BDBDBD"/>
<circle cx="40.677" cy="97.0811" r="2.25703" fill="#BDBDBD"/>
<rect width="4.51406" height="4.51406" transform="translate(60.9907 94.8241)" fill="#BDBDBD"/>
<circle cx="63.2478" cy="97.0811" r="2.25703" fill="#BDBDBD"/>
<rect width="4.51406" height="4.51406" transform="translate(83.5613 94.8241)" fill="#BDBDBD"/>
<circle cx="85.8183" cy="97.0811" r="2.25703" fill="#BDBDBD"/>
<rect width="4.51406" height="4.51406" transform="translate(106.129 94.8241)" fill="#BDBDBD"/>
<circle cx="108.386" cy="97.0811" r="2.25703" fill="#BDBDBD"/>
<rect width="4.51406" height="4.51406" transform="translate(128.7 94.8241)" fill="#BDBDBD"/>
<circle cx="130.957" cy="97.0811" r="2.25703" fill="#BDBDBD"/>
<rect width="4.51406" height="4.51406" transform="translate(151.271 94.8241)" fill="#BDBDBD"/>
<circle cx="153.528" cy="97.0811" r="2.25703" fill="#BDBDBD"/>
<rect width="4.51406" height="4.51406" transform="translate(15.8491 117.395)" fill="#BDBDBD"/>
<circle cx="18.1062" cy="119.652" r="2.25703" fill="#BDBDBD"/>
<rect width="4.51406" height="4.51406" transform="translate(38.4194 117.395)" fill="#BDBDBD"/>
<circle cx="40.6765" cy="119.652" r="2.25703" fill="#BDBDBD"/>
<rect width="4.51406" height="4.51406" transform="translate(60.9907 117.395)" fill="#BDBDBD"/>
<circle cx="63.2478" cy="119.652" r="2.25703" fill="#BDBDBD"/>
<rect width="4.51406" height="4.51406" transform="translate(83.5613 117.395)" fill="#BDBDBD"/>
<circle cx="85.8183" cy="119.652" r="2.25703" fill="#BDBDBD"/>
<rect width="4.51406" height="4.51406" transform="translate(106.129 117.395)" fill="#BDBDBD"/>
<circle cx="108.386" cy="119.652" r="2.25703" fill="#BDBDBD"/>
<rect width="4.51406" height="4.51406" transform="translate(128.7 117.395)" fill="#BDBDBD"/>
<circle cx="130.957" cy="119.652" r="2.25703" fill="#BDBDBD"/>
<rect width="4.51406" height="4.51406" transform="translate(151.271 117.395)" fill="#BDBDBD"/>
<circle cx="153.528" cy="119.652" r="2.25703" fill="#BDBDBD"/>
<rect width="4.51406" height="4.51406" transform="translate(15.8491 139.966)" fill="#BDBDBD"/>
<circle cx="18.1062" cy="142.223" r="2.25703" fill="#BDBDBD"/>
<rect width="4.51406" height="4.51406" transform="translate(38.4194 139.966)" fill="#BDBDBD"/>
<circle cx="40.6765" cy="142.223" r="2.25703" fill="#BDBDBD"/>
<rect width="4.51406" height="4.51406" transform="translate(60.9907 139.965)" fill="#BDBDBD"/>
<circle cx="63.2478" cy="142.222" r="2.25703" fill="#BDBDBD"/>
<rect width="4.51406" height="4.51406" transform="translate(83.5613 139.965)" fill="#BDBDBD"/>
<circle cx="85.8183" cy="142.222" r="2.25703" fill="#BDBDBD"/>
<rect width="4.51406" height="4.51406" transform="translate(106.129 139.965)" fill="#BDBDBD"/>
<circle cx="108.386" cy="142.222" r="2.25703" fill="#BDBDBD"/>
<rect width="4.51406" height="4.51406" transform="translate(128.7 139.965)" fill="#BDBDBD"/>
<circle cx="130.957" cy="142.222" r="2.25703" fill="#BDBDBD"/>
<rect width="4.51406" height="4.51406" transform="translate(151.271 139.966)" fill="#BDBDBD"/>
<circle cx="153.528" cy="142.223" r="2.25703" fill="#BDBDBD"/>
<rect width="4.51406" height="4.51406" transform="translate(15.8491 162.536)" fill="#BDBDBD"/>
<circle cx="18.1062" cy="164.793" r="2.25703" fill="#BDBDBD"/>
<rect width="4.51406" height="4.51406" transform="translate(38.4194 162.536)" fill="#BDBDBD"/>
<circle cx="40.6765" cy="164.793" r="2.25703" fill="#BDBDBD"/>
<rect width="4.51406" height="4.51406" transform="translate(60.9907 162.536)" fill="#BDBDBD"/>
<circle cx="63.2478" cy="164.793" r="2.25703" fill="#BDBDBD"/>
<rect width="4.51406" height="4.51406" transform="translate(83.5613 162.536)" fill="#BDBDBD"/>
<circle cx="85.8183" cy="164.793" r="2.25703" fill="#BDBDBD"/>
<rect width="4.51406" height="4.51406" transform="translate(106.129 162.536)" fill="#BDBDBD"/>
<circle cx="108.386" cy="164.793" r="2.25703" fill="#BDBDBD"/>
<rect width="4.51406" height="4.51406" transform="translate(128.7 162.536)" fill="#BDBDBD"/>
<circle cx="130.957" cy="164.793" r="2.25703" fill="#BDBDBD"/>
<rect width="4.51406" height="4.51406" transform="translate(151.271 162.536)" fill="#BDBDBD"/>
<circle cx="153.528" cy="164.793" r="2.25703" fill="#BDBDBD"/>
<rect width="4.51406" height="4.51406" transform="translate(15.8491 185.106)" fill="#BDBDBD"/>
<circle cx="18.1062" cy="187.363" r="2.25703" fill="#BDBDBD"/>
<rect width="4.51406" height="4.51406" transform="translate(38.4194 185.106)" fill="#BDBDBD"/>
<circle cx="40.6765" cy="187.363" r="2.25703" fill="#BDBDBD"/>
<rect width="4.51406" height="4.51406" transform="translate(60.9907 185.107)" fill="#BDBDBD"/>
<circle cx="63.2478" cy="187.364" r="2.25703" fill="#BDBDBD"/>
<rect width="4.51406" height="4.51406" transform="translate(83.5613 185.107)" fill="#BDBDBD"/>
<circle cx="85.8183" cy="187.364" r="2.25703" fill="#BDBDBD"/>
<rect width="4.51406" height="4.51406" transform="translate(106.129 185.107)" fill="#BDBDBD"/>
<circle cx="108.386" cy="187.364" r="2.25703" fill="#BDBDBD"/>
<rect width="4.51406" height="4.51406" transform="translate(128.7 185.107)" fill="#BDBDBD"/>
<circle cx="130.957" cy="187.364" r="2.25703" fill="#BDBDBD"/>
<rect width="4.51406" height="4.51406" transform="translate(151.271 185.106)" fill="#BDBDBD"/>
<circle cx="153.528" cy="187.363" r="2.25703" fill="#BDBDBD"/>
<rect width="4.51406" height="4.51406" transform="translate(15.8494 207.677)" fill="#BDBDBD"/>
<circle cx="18.1064" cy="209.935" r="2.25703" fill="#BDBDBD"/>
<rect width="4.51406" height="4.51406" transform="translate(38.4199 207.677)" fill="#BDBDBD"/>
<circle cx="40.677" cy="209.935" r="2.25703" fill="#BDBDBD"/>
<rect width="4.51406" height="4.51406" transform="translate(60.9907 207.677)" fill="#BDBDBD"/>
<circle cx="63.2478" cy="209.935" r="2.25703" fill="#BDBDBD"/>
<rect width="4.51406" height="4.51406" transform="translate(83.5613 207.677)" fill="#BDBDBD"/>
<circle cx="85.8183" cy="209.935" r="2.25703" fill="#BDBDBD"/>
<rect width="4.51406" height="4.51406" transform="translate(106.129 207.677)" fill="#BDBDBD"/>
<circle cx="108.386" cy="209.935" r="2.25703" fill="#BDBDBD"/>
<rect width="4.51406" height="4.51406" transform="translate(128.7 207.677)" fill="#BDBDBD"/>
<circle cx="130.957" cy="209.935" r="2.25703" fill="#BDBDBD"/>
<rect width="4.51406" height="4.51406" transform="translate(151.271 207.677)" fill="#BDBDBD"/>
<circle cx="153.528" cy="209.935" r="2.25703" fill="#BDBDBD"/>
<rect width="4.51406" height="4.51406" transform="translate(15.8494 230.248)" fill="#BDBDBD"/>
<circle cx="18.1064" cy="232.505" r="2.25703" fill="#BDBDBD"/>
<rect width="4.51406" height="4.51406" transform="translate(38.4199 230.248)" fill="#BDBDBD"/>
<circle cx="40.677" cy="232.505" r="2.25703" fill="#BDBDBD"/>
<rect width="4.51406" height="4.51406" transform="translate(60.9907 230.248)" fill="#BDBDBD"/>
<circle cx="63.2478" cy="232.505" r="2.25703" fill="#BDBDBD"/>
<rect width="4.51406" height="4.51406" transform="translate(83.5613 230.248)" fill="#BDBDBD"/>
<circle cx="85.8183" cy="232.505" r="2.25703" fill="#BDBDBD"/>
<rect width="4.51406" height="4.51406" transform="translate(106.129 230.248)" fill="#BDBDBD"/>
<circle cx="108.386" cy="232.505" r="2.25703" fill="#BDBDBD"/>
<rect width="4.51406" height="4.51406" transform="translate(128.7 230.248)" fill="#BDBDBD"/>
<circle cx="130.957" cy="232.505" r="2.25703" fill="#BDBDBD"/>
<rect width="4.51406" height="4.51406" transform="translate(151.271 230.248)" fill="#BDBDBD"/>
<circle cx="153.528" cy="232.505" r="2.25703" fill="#BDBDBD"/>
<rect width="4.51406" height="4.51406" transform="translate(15.8494 252.816)" fill="#BDBDBD"/>
<circle cx="18.1064" cy="255.073" r="2.25703" fill="#BDBDBD"/>
<rect width="4.51406" height="4.51406" transform="translate(38.4199 252.816)" fill="#BDBDBD"/>
<circle cx="40.677" cy="255.073" r="2.25703" fill="#BDBDBD"/>
<rect width="4.51406" height="4.51406" transform="translate(60.9907 252.816)" fill="#BDBDBD"/>
<circle cx="63.2478" cy="255.073" r="2.25703" fill="#BDBDBD"/>
<rect width="4.51406" height="4.51406" transform="translate(83.5613 252.816)" fill="#BDBDBD"/>
<circle cx="85.8183" cy="255.073" r="2.25703" fill="#BDBDBD"/>
<rect width="4.51406" height="4.51406" transform="translate(106.129 252.816)" fill="#BDBDBD"/>
<circle cx="108.386" cy="255.073" r="2.25703" fill="#BDBDBD"/>
<rect width="4.51406" height="4.51406" transform="translate(128.7 252.816)" fill="#BDBDBD"/>
<circle cx="130.957" cy="255.073" r="2.25703" fill="#BDBDBD"/>
<rect width="4.51406" height="4.51406" transform="translate(151.271 252.816)" fill="#BDBDBD"/>
<circle cx="153.528" cy="255.073" r="2.25703" fill="#BDBDBD"/>
<rect width="4.51406" height="4.51406" transform="translate(15.8494 275.387)" fill="#BDBDBD"/>
<circle cx="18.1064" cy="277.644" r="2.25703" fill="#BDBDBD"/>
<rect width="4.51406" height="4.51406" transform="translate(38.4199 275.387)" fill="#BDBDBD"/>
<circle cx="40.677" cy="277.644" r="2.25703" fill="#BDBDBD"/>
<rect width="4.51406" height="4.51406" transform="translate(60.9907 275.387)" fill="#BDBDBD"/>
<circle cx="63.2478" cy="277.644" r="2.25703" fill="#BDBDBD"/>
<rect width="4.51406" height="4.51406" transform="translate(83.5613 275.387)" fill="#BDBDBD"/>
<circle cx="85.8183" cy="277.644" r="2.25703" fill="#BDBDBD"/>
<rect width="4.51406" height="4.51406" transform="translate(106.129 275.387)" fill="#BDBDBD"/>
<circle cx="108.386" cy="277.644" r="2.25703" fill="#BDBDBD"/>
<rect width="4.51406" height="4.51406" transform="translate(128.7 275.387)" fill="#BDBDBD"/>
<circle cx="130.957" cy="277.644" r="2.25703" fill="#BDBDBD"/>
<rect width="4.51406" height="4.51406" transform="translate(151.271 275.387)" fill="#BDBDBD"/>
<circle cx="153.528" cy="277.644" r="2.25703" fill="#BDBDBD"/>
<rect width="4.51406" height="4.51406" transform="translate(15.8491 297.958)" fill="#BDBDBD"/>
<circle cx="18.1062" cy="300.215" r="2.25703" fill="#BDBDBD"/>
<rect width="4.51406" height="4.51406" transform="translate(38.4194 297.958)" fill="#BDBDBD"/>
<circle cx="40.6765" cy="300.215" r="2.25703" fill="#BDBDBD"/>
<rect width="4.51406" height="4.51406" transform="translate(60.9907 297.958)" fill="#BDBDBD"/>
<circle cx="63.2478" cy="300.215" r="2.25703" fill="#BDBDBD"/>
<rect width="4.51406" height="4.51406" transform="translate(83.5613 297.958)" fill="#BDBDBD"/>
<circle cx="85.8183" cy="300.215" r="2.25703" fill="#BDBDBD"/>
<rect width="4.51406" height="4.51406" transform="translate(106.129 297.958)" fill="#BDBDBD"/>
<circle cx="108.386" cy="300.215" r="2.25703" fill="#BDBDBD"/>
<rect width="4.51406" height="4.51406" transform="translate(128.7 297.958)" fill="#BDBDBD"/>
<circle cx="130.957" cy="300.215" r="2.25703" fill="#BDBDBD"/>
<rect width="4.51406" height="4.51406" transform="translate(151.271 297.958)" fill="#BDBDBD"/>
<circle cx="153.528" cy="300.215" r="2.25703" fill="#BDBDBD"/>
<rect width="4.51406" height="4.51406" transform="translate(15.8491 320.528)" fill="#BDBDBD"/>
<circle cx="18.1062" cy="322.785" r="2.25703" fill="#BDBDBD"/>
<rect width="4.51406" height="4.51406" transform="translate(38.4194 320.528)" fill="#BDBDBD"/>
<circle cx="40.6765" cy="322.785" r="2.25703" fill="#BDBDBD"/>
<rect width="4.51406" height="4.51406" transform="translate(60.9907 320.528)" fill="#BDBDBD"/>
<circle cx="63.2478" cy="322.785" r="2.25703" fill="#BDBDBD"/>
<rect width="4.51406" height="4.51406" transform="translate(83.5613 320.528)" fill="#BDBDBD"/>
<circle cx="85.8183" cy="322.785" r="2.25703" fill="#BDBDBD"/>
<rect width="4.51406" height="4.51406" transform="translate(106.129 320.528)" fill="#BDBDBD"/>
<circle cx="108.386" cy="322.785" r="2.25703" fill="#BDBDBD"/>
<rect width="4.51406" height="4.51406" transform="translate(128.7 320.528)" fill="#BDBDBD"/>
<circle cx="130.957" cy="322.785" r="2.25703" fill="#BDBDBD"/>
<rect width="4.51406" height="4.51406" transform="translate(151.271 320.528)" fill="#BDBDBD"/>
<circle cx="153.528" cy="322.785" r="2.25703" fill="#BDBDBD"/>
</g>
</svg>
