<svg width="157" height="29" viewBox="0 0 157 29" fill="none" xmlns="http://www.w3.org/2000/svg">
<path fill-rule="evenodd" clip-rule="evenodd" d="M0.652344 8.44235C0.652344 4.10278 4.40346 0.640869 8.98817 0.640869H24.5657C25.3472 0.640869 26.0245 1.22598 26.0245 2.00613C26.0245 2.78628 25.3993 3.37139 24.5657 3.37139H8.98817C5.96643 3.37139 3.51778 5.66307 3.51778 8.49111V20.3884C3.51778 23.2164 5.96643 25.5081 8.98817 25.5081H21.7003C24.722 25.5081 27.1707 23.2164 27.1707 20.3884V8.9787H9.61335C8.83187 8.9787 8.15459 8.39359 8.15459 7.61344C8.15459 6.83329 8.77977 6.24818 9.61335 6.24818H27.2228C28.7858 6.24818 30.0361 7.4184 30.0361 8.88118V20.3396C30.0361 24.6792 26.285 28.1411 21.7003 28.1411H8.98817C4.35137 28.1411 0.652344 24.6304 0.652344 20.3396V8.44235Z" fill="#FF3B30"/>
<path d="M40.7169 6.0542C40.3001 6.0542 39.9355 6.20048 39.7271 6.44427C39.4666 6.68807 39.3624 6.98062 39.3624 7.3707V23.4612C39.3624 23.8513 39.4666 24.1926 39.7271 24.4364C39.9876 24.6802 40.3001 24.7777 40.7169 24.7777C41.1337 24.7777 41.4984 24.6802 41.7589 24.4364C42.0194 24.1926 42.1236 23.8513 42.1236 23.4612V7.3707C42.1236 6.98062 42.0194 6.63931 41.7589 6.44427C41.4984 6.20048 41.1337 6.0542 40.7169 6.0542Z" fill="black"/>
<path d="M54.0545 11.4658C53.0125 11.4658 52.0747 11.6609 51.2411 12.0997C50.668 12.3922 50.1991 12.7336 49.8344 13.2212V12.7823C49.8344 12.441 49.7303 12.0997 49.4698 11.9047C49.2093 11.6609 48.8967 11.5633 48.4799 11.5633C48.0631 11.5633 47.6984 11.6609 47.49 11.9047C47.2816 12.1484 47.1253 12.441 47.1253 12.8311V23.5581C47.1253 23.9482 47.2295 24.2895 47.49 24.5333C47.7505 24.7283 48.0631 24.8746 48.4799 24.8746C48.8967 24.8746 49.2093 24.7771 49.4698 24.5333C49.7303 24.2895 49.8344 23.9969 49.8344 23.6069V17.3169C49.8344 16.1955 50.1991 15.3178 50.8243 14.6839C51.5016 14.0501 52.3873 13.7087 53.5335 13.7087C54.5233 13.7087 55.2006 13.9525 55.6174 14.3914C56.0863 14.879 56.2947 15.6591 56.2947 16.7318V23.5581C56.2947 23.9482 56.3989 24.2895 56.6594 24.5333C56.9199 24.7283 57.2325 24.8746 57.6493 24.8746C58.0661 24.8746 58.3787 24.7771 58.6392 24.5333C58.8997 24.2895 59.0039 23.9969 59.0039 23.6069V16.6343C59.1081 13.2212 57.3888 11.4658 54.0545 11.4658Z" fill="black"/>
<path d="M74.4772 11.5144C73.9563 11.5144 73.5395 11.7582 73.279 12.2945L68.9548 21.315L64.6306 12.2458C64.5264 12.002 64.318 11.8069 64.1096 11.7094C63.5886 11.3681 62.9634 11.4656 62.4424 11.8557C62.1298 12.0995 61.9735 12.392 61.9735 12.7333C61.9735 12.9284 62.0256 13.0747 62.1298 13.2209L67.4439 23.948C67.6002 24.1918 67.8086 24.4356 68.0691 24.5818C68.3296 24.7281 68.5901 24.7769 68.9027 24.7769C69.2153 24.7769 69.4758 24.7281 69.7883 24.5331C70.0488 24.3868 70.2572 24.143 70.3614 23.8992L75.6755 13.2209C75.7797 13.0747 75.8318 12.8796 75.8318 12.6846C75.8318 12.3433 75.6755 12.0507 75.415 11.8557C75.1024 11.6606 74.7898 11.5144 74.4772 11.5144Z" fill="black"/>
<path d="M90.0024 18.4871C90.2108 18.2921 90.315 17.9996 90.315 17.5607C90.315 15.7079 89.794 14.1963 88.6999 13.1236C87.658 12.0022 86.1992 11.4658 84.3757 11.4658C83.1254 11.4658 81.9792 11.7584 80.9372 12.3435C79.9473 12.9286 79.1658 13.7087 78.6449 14.7327C78.1239 15.7566 77.8113 16.9269 77.8113 18.1946C77.8113 20.2425 78.4365 21.9003 79.6868 23.1193C80.9372 24.2895 82.6565 24.9234 84.7404 24.9234C85.4698 24.9234 86.1992 24.8258 86.9286 24.6796C87.658 24.4845 88.3874 24.192 89.0646 23.8507C89.794 23.4606 90.1587 22.973 90.1587 22.4366C90.1587 22.1441 90.0545 21.9003 89.8461 21.6565C89.6377 21.4615 89.3772 21.3639 89.1167 21.3639C88.9604 21.3639 88.6999 21.4127 88.0227 21.8028C87.4496 22.0953 86.9286 22.3391 86.4076 22.5342C85.9387 22.6804 85.3656 22.778 84.6883 22.778C82.1355 22.778 80.7809 21.5102 80.5204 18.8772H89.0125C89.4814 18.8285 89.794 18.6822 90.0024 18.4871ZM87.8143 16.9756H80.6767C80.833 15.9517 81.1977 15.1228 81.7708 14.5377C82.4481 13.9038 83.2817 13.6112 84.3757 13.6112C85.4698 13.6112 86.2513 13.9038 86.8244 14.5377C87.3975 15.074 87.7101 15.9029 87.8143 16.9756Z" fill="black"/>
<path d="M102.298 17.9995C101.621 17.7069 100.631 17.4144 99.3803 17.1218C98.5467 16.9755 97.9215 16.7805 97.5047 16.6342C97.0879 16.488 96.8274 16.2929 96.6711 16.0979C96.5148 15.9028 96.4627 15.659 96.4627 15.3177C96.4627 14.7814 96.6711 14.3913 97.0879 14.0987C97.5568 13.7574 98.2341 13.6112 99.0156 13.6112C99.6407 13.6112 100.162 13.7087 100.631 13.855C101.047 14.0012 101.516 14.245 102.037 14.5376C102.506 14.8789 102.871 15.0252 103.183 15.0252C103.444 15.0252 103.704 14.9277 103.913 14.7326C104.121 14.5376 104.225 14.2938 104.225 14.0012C104.225 13.4649 103.861 12.9773 103.183 12.4897C102.662 12.1484 102.037 11.9046 101.36 11.7095C100.683 11.5145 99.9533 11.417 99.224 11.417C98.2341 11.417 97.2963 11.5633 96.4627 11.9046C95.6812 12.2459 95.0039 12.7335 94.5351 13.3186C94.0662 13.9037 93.8057 14.6351 93.8057 15.4152C93.8057 16.4392 94.1704 17.2193 94.9518 17.8532C95.6812 18.4383 96.8274 18.8772 98.4946 19.2185C99.4324 19.4135 100.11 19.6085 100.631 19.7548C101.047 19.9011 101.36 20.0961 101.568 20.2912C101.725 20.4862 101.829 20.6812 101.829 21.0226C101.829 21.5589 101.621 21.949 101.152 22.1928C100.631 22.4853 99.9533 22.6316 99.0156 22.6316C98.2341 22.6316 97.6089 22.5341 97.0879 22.3878C96.5669 22.1928 96.0459 21.949 95.5249 21.6564C95.056 21.3639 94.6913 21.2176 94.4309 21.2176C94.1183 21.2176 93.8578 21.3151 93.7015 21.5589C93.5452 21.754 93.441 21.9977 93.441 22.2415C93.441 22.5341 93.5452 22.8267 93.7015 23.0704C93.8578 23.2655 94.1183 23.4605 94.483 23.7043C95.1081 24.0456 95.7854 24.3382 96.5669 24.5332C97.3484 24.7283 98.182 24.8258 99.0156 24.8258C100.631 24.8258 101.985 24.4845 102.975 23.8018C104.017 23.0704 104.538 22.144 104.538 20.9738C104.538 20.2424 104.382 19.6573 104.069 19.1697C103.6 18.7796 103.027 18.3408 102.298 17.9995Z" fill="black"/>
<path d="M114.593 22.6802L113.864 22.6315C113.135 22.5827 112.561 22.3877 112.197 22.0464C111.832 21.6563 111.676 21.0224 111.676 20.1935V13.9036H114.437C114.802 13.9036 115.062 13.806 115.323 13.611C115.583 13.416 115.687 13.1234 115.687 12.8309C115.687 12.4895 115.583 12.2458 115.323 12.0507C115.114 11.8557 114.802 11.7582 114.437 11.7582H111.676V9.12516C111.676 8.73509 111.519 8.39377 111.311 8.19874C111.051 7.95494 110.738 7.85742 110.321 7.85742C109.904 7.85742 109.54 7.95494 109.331 8.19874C109.071 8.44253 108.967 8.73509 108.967 9.12516V11.7582H107.404C107.039 11.7582 106.726 11.8557 106.466 12.0507C106.257 12.2458 106.153 12.5383 106.153 12.8309C106.153 13.1234 106.257 13.416 106.518 13.611C106.726 13.806 107.039 13.8548 107.404 13.8548H108.967V19.9985C108.967 21.51 109.331 22.6315 110.061 23.4116C110.79 24.1918 111.936 24.6306 113.447 24.7281L114.176 24.7769C114.281 24.7769 114.385 24.7769 114.437 24.7769C114.802 24.7769 115.114 24.7281 115.323 24.5818C115.635 24.3868 115.792 24.0942 115.792 23.7042C115.792 23.4116 115.635 22.7777 114.593 22.6802Z" fill="black"/>
<path d="M133.401 14.8301H128.295C127.931 14.8301 127.618 14.9276 127.41 15.1226C127.149 15.3177 127.045 15.5614 127.045 15.9028C127.045 16.1953 127.149 16.4879 127.41 16.6829C127.618 16.8779 127.931 16.9755 128.347 16.9755H132.047V21.9977C130.744 22.4365 129.285 22.6315 127.722 22.6315C125.534 22.6315 123.867 22.0464 122.773 20.8274C121.679 19.6085 121.106 17.8044 121.106 15.4152C121.106 13.1235 121.679 11.3194 122.773 10.1004C123.867 8.88143 125.482 8.29632 127.566 8.29632C128.504 8.29632 129.389 8.4426 130.119 8.6864C130.848 8.93019 131.682 9.36903 132.62 10.0517C133.349 10.5392 133.922 10.4905 134.287 10.0517C134.443 9.80786 134.547 9.56406 134.547 9.27151C134.547 8.88143 134.339 8.54012 134.026 8.1988C133.245 7.51617 132.307 6.93106 131.161 6.58975C130.067 6.19968 128.816 6.00464 127.514 6.00464C125.638 6.00464 123.971 6.39471 122.565 7.17486C121.158 7.90625 120.064 9.02771 119.334 10.4417C118.605 11.8557 118.24 13.5136 118.24 15.4639C118.24 17.4143 118.605 19.1209 119.386 20.5349C120.168 21.9489 121.262 23.0704 122.669 23.8018C124.075 24.5331 125.795 24.9232 127.722 24.9232C128.764 24.9232 129.858 24.8257 130.9 24.6794C131.942 24.4844 132.88 24.2894 133.609 23.9968C134.026 23.8505 134.339 23.6555 134.495 23.4117C134.651 23.1679 134.756 22.8266 134.756 22.339V16.0003C134.756 15.659 134.651 15.3664 134.391 15.1714C134.026 14.9276 133.766 14.8301 133.401 14.8301Z" fill="black"/>
<path d="M155.126 10.4417C154.397 9.02764 153.355 7.90618 152 7.12603C150.646 6.34588 149.031 5.95581 147.207 5.95581C145.384 5.95581 143.717 6.34588 142.362 7.12603C141.007 7.85742 139.965 8.97888 139.236 10.4417C138.507 11.8557 138.194 13.5135 138.194 15.4639C138.194 17.3655 138.559 19.0233 139.288 20.4373C140.018 21.8513 141.06 22.9728 142.414 23.7529C143.769 24.5331 145.384 24.9232 147.207 24.9232C149.031 24.9232 150.646 24.5331 152 23.7529C153.355 22.9728 154.449 21.8513 155.178 20.4373C155.908 19.0233 156.272 17.3167 156.272 15.4151C156.168 13.5623 155.804 11.8557 155.126 10.4417ZM147.155 22.6315C145.227 22.6315 143.664 21.9976 142.57 20.7786C141.476 19.5596 140.955 17.7555 140.955 15.4639C140.955 13.1722 141.528 11.3681 142.57 10.1491C143.664 8.93012 145.175 8.29625 147.155 8.29625C149.135 8.29625 150.646 8.93012 151.74 10.1003C152.834 11.3193 153.355 13.1234 153.355 15.4151C153.355 17.7068 152.782 19.5109 151.688 20.7786C150.646 21.9976 149.083 22.6315 147.155 22.6315Z" fill="black"/>
</svg>
