<svg width="50" height="49" viewBox="0 0 50 49" fill="none" xmlns="http://www.w3.org/2000/svg">
<path d="M25.0115 44.9797C36.5184 44.9797 45.8466 35.6515 45.8466 24.1446C45.8466 12.6377 36.5184 3.30954 25.0115 3.30954C13.5046 3.30954 4.17645 12.6377 4.17645 24.1446C4.17645 35.6515 13.5046 44.9797 25.0115 44.9797Z" stroke="#C6C3C8" stroke-width="1.4"/>
<path d="M25.0099 39.0426C33.2376 39.0426 39.9075 32.3727 39.9075 24.145C39.9075 15.9173 33.2376 9.24738 25.0099 9.24738C16.7822 9.24738 10.1123 15.9173 10.1123 24.145C10.1123 32.3727 16.7822 39.0426 25.0099 39.0426Z" stroke="#C6C3C8" stroke-width="1.4"/>
<path d="M25.0123 33.1055C29.9608 33.1055 33.9724 29.0939 33.9724 24.1453C33.9724 19.1968 29.9608 15.1852 25.0123 15.1852C20.0637 15.1852 16.0521 19.1968 16.0521 24.1453C16.0521 29.0939 20.0637 33.1055 25.0123 33.1055Z" stroke="#C6C3C8" stroke-width="1.4"/>
<path d="M21.1662 21.4589L25.4374 25.4711L34.8569 16.6133" stroke="#C6C3C8" stroke-width="3"/>
<path d="M25.4266 0.0823364V5.70732" stroke="#C6C3C8" stroke-width="1.4"/>
<path d="M0.949219 23.73H6.5742" stroke="#C6C3C8" stroke-width="1.4"/>
<path d="M43.4495 23.73H49.0745" stroke="#C6C3C8" stroke-width="1.4"/>
<path d="M25.4266 42.5826V48.2076" stroke="#C6C3C8" stroke-width="1.4"/>
</svg>
