<svg width="48" height="48" viewBox="0 0 48 48" fill="none" xmlns="http://www.w3.org/2000/svg">
<path d="M13.7793 30.3104L14.2267 29.7721L13.5321 29.1947L13.1463 30.0115L13.7793 30.3104ZM22.6725 33.9456L23.3054 34.2445L23.737 33.3307L22.7298 33.2479L22.6725 33.9456ZM16.9798 45.9996L16.4143 46.4121L17.1092 47.3648L17.6128 46.2985L16.9798 45.9996ZM13.7596 41.5852L14.3251 41.1727L14.1001 40.8642L13.7189 40.8864L13.7596 41.5852ZM8.30469 41.9027L7.67172 41.6037L7.16817 42.67L8.34536 42.6015L8.30469 41.9027ZM13.3318 30.8488C15.8918 32.9765 19.0993 34.3545 22.6152 34.6432L22.7298 33.2479C19.51 32.9835 16.573 31.7222 14.2267 29.7721L13.3318 30.8488ZM17.6128 46.2985L23.3054 34.2445L22.0395 33.6466L16.3468 45.7007L17.6128 46.2985ZM13.1941 41.9977L16.4143 46.4121L17.5453 45.5871L14.3251 41.1727L13.1941 41.9977ZM8.34536 42.6015L13.8003 42.284L13.7189 40.8864L8.26402 41.2039L8.34536 42.6015ZM13.1463 30.0115L7.67172 41.6037L8.93765 42.2016L14.4122 30.6094L13.1463 30.0115Z" fill="#C6C3C8"/>
<path d="M25.3867 33.94L25.3269 33.2426L24.3239 33.3286L24.7538 34.2389L25.3867 33.94ZM34.265 30.2733L34.898 29.9744L34.5108 29.1546L33.8157 29.7366L34.265 30.2733ZM39.7565 41.9013L39.7158 42.6001L40.893 42.6686L40.3894 41.6024L39.7565 41.9013ZM34.3016 41.5838L34.3423 40.885L33.9611 40.8628L33.7361 41.1713L34.3016 41.5838ZM31.0814 45.9982L30.4484 46.2971L30.952 47.3634L31.6469 46.4108L31.0814 45.9982ZM25.4466 34.6374C28.9594 34.336 32.1617 32.947 34.7144 30.8101L33.8157 29.7366C31.4761 31.6951 28.5437 32.9665 25.3269 33.2426L25.4466 34.6374ZM40.3894 41.6024L34.898 29.9744L33.6321 30.5722L39.1235 42.2002L40.3894 41.6024ZM34.2609 42.2826L39.7158 42.6001L39.7972 41.2025L34.3423 40.885L34.2609 42.2826ZM31.6469 46.4108L34.8671 41.9963L33.7361 41.1713L30.5159 45.5857L31.6469 46.4108ZM24.7538 34.2389L30.4484 46.2971L31.7143 45.6993L26.0197 33.6411L24.7538 34.2389Z" fill="#C6C3C8"/>
<path fill-rule="evenodd" clip-rule="evenodd" d="M9.67025 39.0108L14.9583 38.703L18.277 43.2525L16.9798 45.9992L13.7596 41.5848L8.30469 41.9023L9.67025 39.0108Z" fill="#C6C3C8"/>
<path fill-rule="evenodd" clip-rule="evenodd" d="M29.7734 43.2376L33.0685 38.7206L38.3966 39.0307L39.7532 41.9032L34.2983 41.5857L31.0781 46.0001L29.7734 43.2376Z" fill="#C6C3C8"/>
<path d="M39.3 17.9999C39.3 26.4499 32.45 33.2999 24 33.2999V34.6999C33.2232 34.6999 40.7 27.2231 40.7 17.9999H39.3ZM24 2.69988C32.45 2.69988 39.3 9.54993 39.3 17.9999H40.7C40.7 8.77673 33.2232 1.29988 24 1.29988V2.69988ZM8.7 17.9999C8.7 9.54993 15.5501 2.69988 24 2.69988V1.29988C14.7769 1.29988 7.3 8.77673 7.3 17.9999H8.7ZM24 33.2999C15.5501 33.2999 8.7 26.4499 8.7 17.9999H7.3C7.3 27.2231 14.7769 34.6999 24 34.6999V33.2999ZM32.2994 17.9992C32.2994 22.5832 28.5833 26.2992 23.9994 26.2992V27.6993C29.3565 27.6993 33.6994 23.3564 33.6994 17.9992H32.2994ZM23.9994 9.69922C28.5833 9.69922 32.2994 13.4153 32.2994 17.9992H33.6994C33.6994 12.6421 29.3565 8.29922 23.9994 8.29922V9.69922ZM15.6993 17.9992C15.6993 13.4153 19.4154 9.69922 23.9994 9.69922V8.29922C18.6422 8.29922 14.2993 12.6421 14.2993 17.9992H15.6993ZM23.9994 26.2992C19.4154 26.2992 15.6993 22.5832 15.6993 17.9992H14.2993C14.2993 23.3564 18.6422 27.6993 23.9994 27.6993V26.2992Z" fill="#C6C3C8"/>
</svg>
