<svg width="48" height="49" viewBox="0 0 48 49" fill="none" xmlns="http://www.w3.org/2000/svg">
<path d="M9.92831 8.3038H38.4443" stroke="white" stroke-width="1.4"/>
<path d="M19.4775 5.75482H28.5182" stroke="white" stroke-width="1.4"/>
<path d="M19.4791 35.954H28.5198" stroke="white" stroke-width="1.4"/>
<path d="M14.3736 42.4111H33.6213" stroke="white" stroke-width="1.4"/>
<path d="M17.1705 38.9853H30.8317" stroke="white" stroke-width="1.4"/>
<path d="M23.9986 6.0849V35.4479" stroke="white" stroke-width="1.4"/>
<path d="M45.9707 23.8116L38.2834 8.30191L30.5845 23.8116C31.2995 27.3938 34.4941 30.0931 38.2865 30.0931C42.0789 30.0931 45.2558 27.3938 45.9707 23.8116Z" stroke="white" stroke-width="1.4" stroke-linecap="round"/>
<path d="M30.5845 24.1244H46.4164" stroke="white" stroke-width="1.4"/>
<circle cx="38.4986" cy="8.5845" r="2.5" fill="white"/>
<path d="M17.3848 23.812L9.69749 8.30231L1.99863 23.812C2.71355 27.3942 5.90818 30.0935 9.70057 30.0935C13.493 30.0935 16.6699 27.3942 17.3848 23.812Z" stroke="white" stroke-width="1.4" stroke-linecap="round"/>
<path d="M1.99863 24.1248H17.8305" stroke="white" stroke-width="1.4"/>
<circle cx="9.91269" cy="8.5849" r="2.5" fill="white"/>
</svg>
