<svg width="48" height="49" viewBox="0 0 48 49" fill="none" xmlns="http://www.w3.org/2000/svg">
<path d="M44.3 17.1023V44.7023H21.7V26.2573L30.7914 17.1023H44.3Z" stroke="#C6C3C8" stroke-width="1.4"/>
<path d="M26 30.4023H40" stroke="#C6C3C8" stroke-width="1.4"/>
<path d="M26 34.9023H40" stroke="#C6C3C8" stroke-width="1.4"/>
<path d="M26 39.4023H40" stroke="#C6C3C8" stroke-width="1.4"/>
<path d="M22.9371 25.7096L29.9371 18.2096V25.7096H22.9371Z" fill="#C6C3C8"/>
<path d="M10 41.4023H21" stroke="#C6C3C8" stroke-width="1.4"/>
<path d="M7 37.4023L7 28.4023" stroke="#C6C3C8" stroke-width="1.4"/>
<path d="M7 20.4023L7 11.4023" stroke="#C6C3C8" stroke-width="1.4"/>
<path d="M41 17.4023V11.4023" stroke="#C6C3C8" stroke-width="1.4"/>
<rect x="3.7" y="38.1023" width="6.6" height="6.6" stroke="#C6C3C8" stroke-width="1.4"/>
<rect x="3.7" y="21.1023" width="6.6" height="6.6" stroke="#C6C3C8" stroke-width="1.4"/>
<path d="M10 7.40234L21 7.40234" stroke="#C6C3C8" stroke-width="1.4"/>
<rect x="3.7" y="4.10234" width="6.6" height="6.6" stroke="#C6C3C8" stroke-width="1.4"/>
<path d="M38 7.40234L27 7.40234" stroke="#C6C3C8" stroke-width="1.4"/>
<rect x="-0.7" y="0.7" width="6.6" height="6.6" transform="matrix(-1 0 0 1 43.6 3.40234)" stroke="#C6C3C8" stroke-width="1.4"/>
<rect x="20.7" y="4.10234" width="6.6" height="6.6" stroke="#C6C3C8" stroke-width="1.4"/>
</svg>
