<svg width="48" height="49" viewBox="0 0 48 49" fill="none" xmlns="http://www.w3.org/2000/svg">
<rect x="3.2231" y="2.75452" width="31.6407" height="31.6407" rx="4.3" stroke="#C6C3C8" stroke-width="1.4"/>
<rect x="13.1374" y="13.7688" width="31.6407" height="31.6407" rx="4.3" stroke="#C6C3C8" stroke-width="1.4"/>
<mask id="path-3-inside-1" fill="white">
<path fill-rule="evenodd" clip-rule="evenodd" d="M35.5607 13.0694V30.0956C35.5607 32.857 33.3221 35.0956 30.5607 35.0956H12.4334V18.0694C12.4334 15.3079 14.672 13.0694 17.4334 13.0694H35.5607Z"/>
</mask>
<path d="M35.5607 13.0694H36.9607V11.6694H35.5607V13.0694ZM12.4334 35.0956H11.0334V36.4956H12.4334V35.0956ZM34.1607 13.0694V30.0956H36.9607V13.0694H34.1607ZM34.1607 30.0956C34.1607 32.0838 32.5489 33.6956 30.5607 33.6956V36.4956C34.0953 36.4956 36.9607 33.6302 36.9607 30.0956H34.1607ZM30.5607 33.6956H12.4334V36.4956H30.5607V33.6956ZM13.8334 35.0956V18.0694H11.0334V35.0956H13.8334ZM13.8334 18.0694C13.8334 16.0811 15.4452 14.4694 17.4334 14.4694V11.6694C13.8988 11.6694 11.0334 14.5347 11.0334 18.0694H13.8334ZM17.4334 14.4694H35.5607V11.6694H17.4334V14.4694Z" fill="#C6C3C8" mask="url(#path-3-inside-1)"/>
<path d="M29.6077 14.1219L13.4838 31.4424" stroke="#C6C3C8" stroke-width="1.4" stroke-linecap="square"/>
<path d="M22.1902 14.1269L13.4847 23.4785" stroke="#C6C3C8" stroke-width="1.4" stroke-linecap="square"/>
<path d="M33.972 17.693L19.2588 33.4983" stroke="#C6C3C8" stroke-width="1.4" stroke-linecap="square"/>
<path d="M34.2722 25.4216L26.7536 33.4982" stroke="#C6C3C8" stroke-width="1.4" stroke-linecap="square"/>
<path fill-rule="evenodd" clip-rule="evenodd" d="M12.9294 35.0955H7.5231C4.76168 35.0955 2.5231 32.857 2.5231 30.0955V32.0955C2.5231 34.857 4.76168 37.0955 7.5231 37.0955H12.9294V35.0955Z" fill="#C6C3C8"/>
</svg>
