<svg width="48" height="49" viewBox="0 0 48 49" fill="none" xmlns="http://www.w3.org/2000/svg">
<mask id="path-1-inside-1" fill="white">
<path d="M23.9187 47.4873C23.2948 46.7863 22.3415 46.5567 21.4284 46.2886C20.2402 45.9381 19.024 45.6822 17.8463 45.3054C17.1963 45.0946 16.5765 44.8001 16.0026 44.4291C14.9283 43.7281 14.6514 42.6766 15.2228 41.5358C15.5102 40.9662 15.9238 40.458 16.2445 39.9077C16.3191 39.7291 16.3681 39.5409 16.3899 39.3486C16.1902 39.283 15.9839 39.2389 15.7748 39.2172C15.5851 39.2208 15.3986 39.2656 15.228 39.3486C14.4061 39.7219 13.5929 40.111 12.8569 40.458C12.8217 40.9876 12.7527 41.5144 12.6501 42.0352C12.6118 42.1604 12.546 42.2755 12.4574 42.3719C12.3689 42.4684 12.2598 42.5438 12.1383 42.5925C11.9789 42.6328 11.7388 42.3507 11.539 42.2052C11.4968 42.1642 11.465 42.1137 11.4461 42.058C11.1552 41.3815 10.7714 40.8961 9.96872 40.6665C9.06092 40.4071 8.55269 39.5221 8.71568 38.7387C8.80856 38.3059 9.10298 37.9168 9.294 37.5348C8.13209 34.6957 6.9509 31.8111 5.77321 28.9264C5.36488 27.9275 4.66913 27.1511 3.88751 26.4344C3.5002 26.0838 3.11465 25.7211 2.75538 25.3373C2.16128 24.7011 2.12973 24.0439 3.07959 23.7372C3.12489 23.713 3.16724 23.6836 3.20578 23.6496C1.56017 19.1334 1.78273 14.6137 3.24433 10.1044C3.73274 8.50965 4.52084 7.02265 5.56641 5.72316C5.74166 6.25943 5.87135 6.74312 6.0431 7.21455C6.7441 9.14231 7.90251 10.7774 9.24143 12.2968C11.6739 15.0588 14.5358 17.309 17.6377 19.2666C17.6747 19.2786 17.7129 19.2862 17.7516 19.2894C17.685 18.9003 17.5939 18.5235 17.5659 18.1432C17.5291 17.6543 17.6623 17.5649 18.1162 17.6998C18.9433 17.9452 19.5374 17.5736 19.6303 16.6939C19.7094 15.9296 19.4917 15.1641 19.0222 14.5558C18.563 13.9407 17.834 13.7882 16.9577 14.0949C16.5073 14.2544 16.0815 14.4822 15.4926 14.7468C15.3314 14.5541 15.1036 14.2929 14.8898 14.0196C14.7876 13.901 14.7367 13.7467 14.7482 13.5906C14.7597 13.4346 14.8327 13.2894 14.9511 13.1871C15.2087 12.9102 15.5102 12.6754 15.7713 12.402C15.8712 12.2968 15.9956 12.0813 15.9465 12.0094C15.9015 11.9396 15.8405 11.8814 15.7686 11.8396C15.6967 11.7979 15.616 11.7738 15.5329 11.7693C15.1024 11.8201 14.6783 11.9159 14.2676 12.055C13.8735 12.2207 13.4901 12.4109 13.1197 12.6246C12.8148 12.0848 12.6185 11.517 12.7167 10.9036C12.7465 10.7283 12.9848 10.5285 13.1741 10.4304C13.4951 10.2921 13.8233 10.171 14.1572 10.0676C14.8582 9.796 15.0422 9.41921 14.874 8.69542C14.8004 8.38347 14.7338 8.06802 14.6882 7.75257C14.6392 7.40206 14.7583 7.13218 15.1492 7.09362C16.0254 7.00775 16.9192 6.88507 17.806 6.87631C18.6647 6.86755 19.1116 7.40206 19.0573 8.2643C19.0345 8.65336 18.9468 9.03891 18.882 9.42972C19.6812 9.67332 20.6187 9.04767 20.8588 8.07152C21.0943 7.12745 20.9952 6.13094 20.5784 5.25173C20.1245 4.2528 20.2875 3.74457 21.2794 3.28892C21.6944 3.11378 22.1313 2.99586 22.578 2.93842C22.697 2.926 22.8099 2.87956 22.9031 2.80465C22.9964 2.72975 23.066 2.62955 23.1038 2.51606C23.3632 1.93423 23.6418 1.36115 23.9625 0.677673C24.0729 0.882717 24.1378 0.980859 24.1834 1.08951C24.4252 1.68362 24.6723 2.27597 24.8966 2.87708C24.919 2.98158 24.9814 3.07314 25.0706 3.13212C25.1597 3.1911 25.2684 3.21279 25.3733 3.19253C25.8417 3.16306 26.3119 3.1854 26.7753 3.25912C27.6516 3.42036 27.8636 3.87952 27.4938 4.68217C27.0352 5.62079 26.8955 6.68349 27.096 7.70875C27.3204 8.82686 28.0249 9.50859 28.98 9.50683C29.0286 9.50333 29.0767 9.49511 29.1237 9.4823C29.038 9.05073 28.9755 8.6149 28.9362 8.17667C28.9064 7.44237 29.3042 6.92889 30.028 6.90085C31.0024 6.86054 31.982 6.93239 32.9582 6.9727C33.0138 6.97046 33.0691 6.98148 33.1196 7.00486C33.17 7.02824 33.2142 7.06329 33.2485 7.10713C33.2827 7.15097 33.3061 7.20233 33.3165 7.25697C33.327 7.31161 33.3243 7.36795 33.3087 7.42134C33.2526 7.75257 33.1913 8.08204 33.1124 8.40801C32.9687 9.00561 33.144 9.44374 33.6907 9.71889C34.0412 9.89414 34.4198 10.0151 34.772 10.1868C35.275 10.4304 35.4135 10.7126 35.2978 11.2506C35.2014 11.6852 35.0612 12.1076 34.9473 12.5369C34.3462 12.2776 33.8379 12.0234 33.3052 11.8359C33.0027 11.7361 32.682 11.7044 32.3658 11.743C31.9785 11.7904 31.9189 12.034 32.1906 12.3161C32.4149 12.5457 32.6743 12.7385 32.9004 12.9663C33.3788 13.4482 33.3718 13.7549 32.9004 14.2299C32.7374 14.3963 32.5954 14.5804 32.5166 14.6732C31.8015 14.4174 31.2039 14.137 30.5765 13.9933C29.7003 13.7935 28.9993 14.1843 28.7083 15.0448C28.5069 15.6013 28.4083 16.1897 28.4174 16.7815C28.4525 17.5824 29.0834 17.9364 29.8492 17.7156C30.3539 17.5701 30.4626 17.6367 30.4293 18.1485C30.4065 18.5218 30.3224 18.8915 30.2646 19.2648C30.2961 19.2648 30.3294 19.2841 30.3469 19.2648C33.9045 17.0251 37.1502 14.4261 39.7492 11.0876C40.9531 9.54188 41.896 7.85772 42.3534 5.93171C42.3839 5.85982 42.4215 5.79114 42.4656 5.72666C44.4582 8.31863 45.3467 11.2769 45.7463 14.4104C46.1458 17.5439 45.9758 20.6423 44.7666 23.6373L45.0172 23.7653C45.7638 24.1158 45.8935 24.5679 45.3484 25.2023C44.9057 25.707 44.4272 26.179 43.9166 26.6149C43.0001 27.4158 42.4147 28.4199 41.9678 29.5328C41.0916 31.7392 40.1838 33.9386 39.2812 36.1363C39.12 36.5253 38.8957 36.8898 38.7292 37.2771C38.7035 37.3437 38.6928 37.4152 38.6979 37.4864C38.7031 37.5576 38.7239 37.6268 38.759 37.689C39.786 38.9876 39.2252 40.5508 37.5971 40.8435C37.4486 40.8606 37.3079 40.9189 37.1908 41.0118C37.0737 41.1047 36.985 41.2285 36.9346 41.3693C36.7761 41.7132 36.586 42.0418 36.3668 42.3507C36.0689 42.766 35.6308 42.7415 35.4608 42.263C35.3238 41.8081 35.2518 41.3361 35.247 40.861C35.2347 40.6122 35.2014 40.472 34.9578 40.3633C34.2568 40.0496 33.5681 39.6833 32.8548 39.3837C32.5572 39.2662 32.2386 39.2113 31.9189 39.2224C31.614 39.2224 31.4721 39.4362 31.6596 39.7377C31.8471 40.0391 32.0644 40.344 32.2607 40.6507C32.4531 40.9255 32.6287 41.2117 32.7864 41.5077C33.3648 42.7047 33.0809 43.7281 31.9785 44.4782C30.8762 45.2283 29.6161 45.5297 28.3596 45.8557C27.4167 46.1046 26.4651 46.3394 25.5556 46.6601C24.9965 46.8354 24.4988 47.1788 23.9187 47.4873ZM30.4311 27.3334L30.2681 27.3544C30.2252 27.5826 30.2064 27.8146 30.212 28.0467C30.3014 28.7634 30.6676 29.3593 31.111 29.9131C31.812 30.7893 32.7234 31.4202 33.6802 31.9951C34.1362 32.2536 34.5679 32.5527 34.9701 32.8889C35.8691 33.681 35.9462 34.6238 35.1138 35.4843C34.588 36.0294 33.9221 36.4552 33.2964 36.8986C32.9587 37.1091 32.6074 37.297 32.2449 37.4612C33.3122 37.8344 35.2505 37.8344 36.3265 37.2544C36.6678 37.0763 36.9439 36.7947 37.1151 36.45C38.6422 33.6144 40.1756 30.7818 41.7155 27.952C41.7803 27.8294 41.8417 27.7032 41.9573 27.4753C41.7558 27.605 41.6576 27.6804 41.549 27.7382C40.5448 28.264 39.5792 28.8896 38.5294 29.2962C36.6367 30.0288 34.6827 30.1024 32.7602 29.3558C31.8559 29.0053 31.0076 28.5391 30.6203 27.5507C30.5853 27.4666 30.4941 27.4052 30.4311 27.3334ZM17.7762 27.3614L17.5799 27.3299C17.5008 27.4069 17.434 27.4955 17.3819 27.5928C17.1698 28.1974 16.7071 28.5707 16.1936 28.8896C14.6514 29.8447 12.9585 30.0042 11.213 29.7519C9.4675 29.4995 7.95859 28.7634 6.53731 27.7838C6.41463 27.6997 6.28669 27.6208 6.09567 27.4981C6.15 27.6383 6.16401 27.6927 6.1903 27.7417C7.82598 30.7677 9.46633 33.7937 11.1114 36.8197C11.1735 36.9301 11.2643 37.0215 11.3742 37.0844C12.1173 37.4804 12.9007 37.7573 13.7542 37.7258C14.4166 37.7013 15.0773 37.6189 15.7398 37.5628C15.2683 37.1948 14.7741 36.9915 14.357 36.6866C13.7706 36.2828 13.2331 35.8123 12.7552 35.2845C12.1191 34.5327 12.2049 33.6862 12.9305 33.015C13.33 32.64 13.8242 32.3666 14.2659 32.0354C15.058 31.4448 15.8799 30.884 16.6195 30.2338C17.2109 29.7213 17.6174 29.0285 17.7762 28.2622C17.806 27.9627 17.806 27.661 17.7762 27.3614ZM24.0992 15.5495C24.6355 14.3543 25.1507 13.2712 25.6064 12.1742C25.8661 11.541 26.0851 10.8918 26.2618 10.2306C26.4616 9.49632 26.1584 9.20365 25.4206 9.33158C24.9947 9.42415 24.5612 9.47811 24.1255 9.49281C23.5752 9.49281 23.0249 9.39993 22.4747 9.34034C21.9244 9.28076 21.6352 9.55415 21.7123 10.1079C21.7383 10.2659 21.7758 10.4217 21.8245 10.5741C22.3397 12.2898 23.2212 13.8373 24.0992 15.5495Z"/>
</mask>
<path d="M23.9187 47.4873C23.2948 46.7863 22.3415 46.5567 21.4284 46.2886C20.2402 45.9381 19.024 45.6822 17.8463 45.3054C17.1963 45.0946 16.5765 44.8001 16.0026 44.4291C14.9283 43.7281 14.6514 42.6766 15.2228 41.5358C15.5102 40.9662 15.9238 40.458 16.2445 39.9077C16.3191 39.7291 16.3681 39.5409 16.3899 39.3486C16.1902 39.283 15.9839 39.2389 15.7748 39.2172C15.5851 39.2208 15.3986 39.2656 15.228 39.3486C14.4061 39.7219 13.5929 40.111 12.8569 40.458C12.8217 40.9876 12.7527 41.5144 12.6501 42.0352C12.6118 42.1604 12.546 42.2755 12.4574 42.3719C12.3689 42.4684 12.2598 42.5438 12.1383 42.5925C11.9789 42.6328 11.7388 42.3507 11.539 42.2052C11.4968 42.1642 11.465 42.1137 11.4461 42.058C11.1552 41.3815 10.7714 40.8961 9.96872 40.6665C9.06092 40.4071 8.55269 39.5221 8.71568 38.7387C8.80856 38.3059 9.10298 37.9168 9.294 37.5348C8.13209 34.6957 6.9509 31.8111 5.77321 28.9264C5.36488 27.9275 4.66913 27.1511 3.88751 26.4344C3.5002 26.0838 3.11465 25.7211 2.75538 25.3373C2.16128 24.7011 2.12973 24.0439 3.07959 23.7372C3.12489 23.713 3.16724 23.6836 3.20578 23.6496C1.56017 19.1334 1.78273 14.6137 3.24433 10.1044C3.73274 8.50965 4.52084 7.02265 5.56641 5.72316C5.74166 6.25943 5.87135 6.74312 6.0431 7.21455C6.7441 9.14231 7.90251 10.7774 9.24143 12.2968C11.6739 15.0588 14.5358 17.309 17.6377 19.2666C17.6747 19.2786 17.7129 19.2862 17.7516 19.2894C17.685 18.9003 17.5939 18.5235 17.5659 18.1432C17.5291 17.6543 17.6623 17.5649 18.1162 17.6998C18.9433 17.9452 19.5374 17.5736 19.6303 16.6939C19.7094 15.9296 19.4917 15.1641 19.0222 14.5558C18.563 13.9407 17.834 13.7882 16.9577 14.0949C16.5073 14.2544 16.0815 14.4822 15.4926 14.7468C15.3314 14.5541 15.1036 14.2929 14.8898 14.0196C14.7876 13.901 14.7367 13.7467 14.7482 13.5906C14.7597 13.4346 14.8327 13.2894 14.9511 13.1871C15.2087 12.9102 15.5102 12.6754 15.7713 12.402C15.8712 12.2968 15.9956 12.0813 15.9465 12.0094C15.9015 11.9396 15.8405 11.8814 15.7686 11.8396C15.6967 11.7979 15.616 11.7738 15.5329 11.7693C15.1024 11.8201 14.6783 11.9159 14.2676 12.055C13.8735 12.2207 13.4901 12.4109 13.1197 12.6246C12.8148 12.0848 12.6185 11.517 12.7167 10.9036C12.7465 10.7283 12.9848 10.5285 13.1741 10.4304C13.4951 10.2921 13.8233 10.171 14.1572 10.0676C14.8582 9.796 15.0422 9.41921 14.874 8.69542C14.8004 8.38347 14.7338 8.06802 14.6882 7.75257C14.6392 7.40206 14.7583 7.13218 15.1492 7.09362C16.0254 7.00775 16.9192 6.88507 17.806 6.87631C18.6647 6.86755 19.1116 7.40206 19.0573 8.2643C19.0345 8.65336 18.9468 9.03891 18.882 9.42972C19.6812 9.67332 20.6187 9.04767 20.8588 8.07152C21.0943 7.12745 20.9952 6.13094 20.5784 5.25173C20.1245 4.2528 20.2875 3.74457 21.2794 3.28892C21.6944 3.11378 22.1313 2.99586 22.578 2.93842C22.697 2.926 22.8099 2.87956 22.9031 2.80465C22.9964 2.72975 23.066 2.62955 23.1038 2.51606C23.3632 1.93423 23.6418 1.36115 23.9625 0.677673C24.0729 0.882717 24.1378 0.980859 24.1834 1.08951C24.4252 1.68362 24.6723 2.27597 24.8966 2.87708C24.919 2.98158 24.9814 3.07314 25.0706 3.13212C25.1597 3.1911 25.2684 3.21279 25.3733 3.19253C25.8417 3.16306 26.3119 3.1854 26.7753 3.25912C27.6516 3.42036 27.8636 3.87952 27.4938 4.68217C27.0352 5.62079 26.8955 6.68349 27.096 7.70875C27.3204 8.82686 28.0249 9.50859 28.98 9.50683C29.0286 9.50333 29.0767 9.49511 29.1237 9.4823C29.038 9.05073 28.9755 8.6149 28.9362 8.17667C28.9064 7.44237 29.3042 6.92889 30.028 6.90085C31.0024 6.86054 31.982 6.93239 32.9582 6.9727C33.0138 6.97046 33.0691 6.98148 33.1196 7.00486C33.17 7.02824 33.2142 7.06329 33.2485 7.10713C33.2827 7.15097 33.3061 7.20233 33.3165 7.25697C33.327 7.31161 33.3243 7.36795 33.3087 7.42134C33.2526 7.75257 33.1913 8.08204 33.1124 8.40801C32.9687 9.00561 33.144 9.44374 33.6907 9.71889C34.0412 9.89414 34.4198 10.0151 34.772 10.1868C35.275 10.4304 35.4135 10.7126 35.2978 11.2506C35.2014 11.6852 35.0612 12.1076 34.9473 12.5369C34.3462 12.2776 33.8379 12.0234 33.3052 11.8359C33.0027 11.7361 32.682 11.7044 32.3658 11.743C31.9785 11.7904 31.9189 12.034 32.1906 12.3161C32.4149 12.5457 32.6743 12.7385 32.9004 12.9663C33.3788 13.4482 33.3718 13.7549 32.9004 14.2299C32.7374 14.3963 32.5954 14.5804 32.5166 14.6732C31.8015 14.4174 31.2039 14.137 30.5765 13.9933C29.7003 13.7935 28.9993 14.1843 28.7083 15.0448C28.5069 15.6013 28.4083 16.1897 28.4174 16.7815C28.4525 17.5824 29.0834 17.9364 29.8492 17.7156C30.3539 17.5701 30.4626 17.6367 30.4293 18.1485C30.4065 18.5218 30.3224 18.8915 30.2646 19.2648C30.2961 19.2648 30.3294 19.2841 30.3469 19.2648C33.9045 17.0251 37.1502 14.4261 39.7492 11.0876C40.9531 9.54188 41.896 7.85772 42.3534 5.93171C42.3839 5.85982 42.4215 5.79114 42.4656 5.72666C44.4582 8.31863 45.3467 11.2769 45.7463 14.4104C46.1458 17.5439 45.9758 20.6423 44.7666 23.6373L45.0172 23.7653C45.7638 24.1158 45.8935 24.5679 45.3484 25.2023C44.9057 25.707 44.4272 26.179 43.9166 26.6149C43.0001 27.4158 42.4147 28.4199 41.9678 29.5328C41.0916 31.7392 40.1838 33.9386 39.2812 36.1363C39.12 36.5253 38.8957 36.8898 38.7292 37.2771C38.7035 37.3437 38.6928 37.4152 38.6979 37.4864C38.7031 37.5576 38.7239 37.6268 38.759 37.689C39.786 38.9876 39.2252 40.5508 37.5971 40.8435C37.4486 40.8606 37.3079 40.9189 37.1908 41.0118C37.0737 41.1047 36.985 41.2285 36.9346 41.3693C36.7761 41.7132 36.586 42.0418 36.3668 42.3507C36.0689 42.766 35.6308 42.7415 35.4608 42.263C35.3238 41.8081 35.2518 41.3361 35.247 40.861C35.2347 40.6122 35.2014 40.472 34.9578 40.3633C34.2568 40.0496 33.5681 39.6833 32.8548 39.3837C32.5572 39.2662 32.2386 39.2113 31.9189 39.2224C31.614 39.2224 31.4721 39.4362 31.6596 39.7377C31.8471 40.0391 32.0644 40.344 32.2607 40.6507C32.4531 40.9255 32.6287 41.2117 32.7864 41.5077C33.3648 42.7047 33.0809 43.7281 31.9785 44.4782C30.8762 45.2283 29.6161 45.5297 28.3596 45.8557C27.4167 46.1046 26.4651 46.3394 25.5556 46.6601C24.9965 46.8354 24.4988 47.1788 23.9187 47.4873ZM30.4311 27.3334L30.2681 27.3544C30.2252 27.5826 30.2064 27.8146 30.212 28.0467C30.3014 28.7634 30.6676 29.3593 31.111 29.9131C31.812 30.7893 32.7234 31.4202 33.6802 31.9951C34.1362 32.2536 34.5679 32.5527 34.9701 32.8889C35.8691 33.681 35.9462 34.6238 35.1138 35.4843C34.588 36.0294 33.9221 36.4552 33.2964 36.8986C32.9587 37.1091 32.6074 37.297 32.2449 37.4612C33.3122 37.8344 35.2505 37.8344 36.3265 37.2544C36.6678 37.0763 36.9439 36.7947 37.1151 36.45C38.6422 33.6144 40.1756 30.7818 41.7155 27.952C41.7803 27.8294 41.8417 27.7032 41.9573 27.4753C41.7558 27.605 41.6576 27.6804 41.549 27.7382C40.5448 28.264 39.5792 28.8896 38.5294 29.2962C36.6367 30.0288 34.6827 30.1024 32.7602 29.3558C31.8559 29.0053 31.0076 28.5391 30.6203 27.5507C30.5853 27.4666 30.4941 27.4052 30.4311 27.3334ZM17.7762 27.3614L17.5799 27.3299C17.5008 27.4069 17.434 27.4955 17.3819 27.5928C17.1698 28.1974 16.7071 28.5707 16.1936 28.8896C14.6514 29.8447 12.9585 30.0042 11.213 29.7519C9.4675 29.4995 7.95859 28.7634 6.53731 27.7838C6.41463 27.6997 6.28669 27.6208 6.09567 27.4981C6.15 27.6383 6.16401 27.6927 6.1903 27.7417C7.82598 30.7677 9.46633 33.7937 11.1114 36.8197C11.1735 36.9301 11.2643 37.0215 11.3742 37.0844C12.1173 37.4804 12.9007 37.7573 13.7542 37.7258C14.4166 37.7013 15.0773 37.6189 15.7398 37.5628C15.2683 37.1948 14.7741 36.9915 14.357 36.6866C13.7706 36.2828 13.2331 35.8123 12.7552 35.2845C12.1191 34.5327 12.2049 33.6862 12.9305 33.015C13.33 32.64 13.8242 32.3666 14.2659 32.0354C15.058 31.4448 15.8799 30.884 16.6195 30.2338C17.2109 29.7213 17.6174 29.0285 17.7762 28.2622C17.806 27.9627 17.806 27.661 17.7762 27.3614ZM24.0992 15.5495C24.6355 14.3543 25.1507 13.2712 25.6064 12.1742C25.8661 11.541 26.0851 10.8918 26.2618 10.2306C26.4616 9.49632 26.1584 9.20365 25.4206 9.33158C24.9947 9.42415 24.5612 9.47811 24.1255 9.49281C23.5752 9.49281 23.0249 9.39993 22.4747 9.34034C21.9244 9.28076 21.6352 9.55415 21.7123 10.1079C21.7383 10.2659 21.7758 10.4217 21.8245 10.5741C22.3397 12.2898 23.2212 13.8373 24.0992 15.5495Z" stroke="#C6C3C8" stroke-width="2.8" mask="url(#path-1-inside-1)"/>
<path fill-rule="evenodd" clip-rule="evenodd" d="M27.1098 7.79848C27.1032 7.7695 27.0969 7.74022 27.091 7.71062C26.8905 6.68536 27.0301 5.62266 27.4888 4.68403C27.8586 3.88138 27.6465 3.42223 26.7703 3.26099C26.3068 3.18726 25.8366 3.16493 25.3683 3.1944C25.2633 3.21465 25.1546 3.19297 25.0655 3.13399C24.9764 3.07501 24.914 2.98345 24.8916 2.87895C24.7087 2.38891 24.5107 1.90471 24.3128 1.42063C24.2679 1.31089 24.223 1.20117 24.1783 1.09138C24.1497 1.02304 24.1134 0.958852 24.0629 0.869604C24.0331 0.816967 23.9985 0.755611 23.9575 0.679543C23.8599 0.887595 23.7661 1.08542 23.6757 1.27637C23.4689 1.71272 23.2792 2.11321 23.0988 2.51793C23.061 2.63142 22.9913 2.73162 22.8981 2.80652C22.8048 2.88143 22.692 2.92787 22.573 2.94028C22.1263 2.99773 21.6894 3.11565 21.2744 3.29079C20.2825 3.74644 20.1195 4.25467 20.5734 5.2536C20.9504 6.04887 21.0675 6.94012 20.9121 7.80172L22.4507 9.34028C22.457 9.34088 22.4633 9.34153 22.4696 9.34221C22.6148 9.35794 22.76 9.37598 22.9053 9.39402C23.3103 9.44435 23.7154 9.49468 24.1205 9.49468C24.5562 9.47998 24.9896 9.42602 25.4156 9.33345C25.4799 9.32229 25.541 9.31433 25.5987 9.30959L27.1098 7.79848Z" fill="#C6C3C8"/>
</svg>
