<svg width="60" height="60" viewBox="0 0 60 60" fill="none" xmlns="http://www.w3.org/2000/svg">
<rect opacity="0.01" x="0.7" y="0.7" width="58.6" height="58.6" fill="white" stroke="white" stroke-width="1.4"/>
<path d="M43.2966 14.0098C39.5629 10.8827 34.7513 9 29.5 9C17.6259 9 8 18.6259 8 30.5C8 42.3741 17.6259 52 29.5 52C41.3741 52 51 42.3741 51 30.5" stroke="white" stroke-width="1.4"/>
<path d="M46.0734 16.4052L41.0813 16.1837L44.6507 11.6151L46.0734 16.4052Z" fill="white" stroke="white" stroke-width="1.4"/>
<path d="M29.2983 34.47V37H20.0583V35.13L25.1183 29.85C25.397 29.5713 25.6536 29.2853 25.8883 28.992C26.079 28.7427 26.255 28.464 26.4163 28.156C26.5776 27.8333 26.6583 27.518 26.6583 27.21C26.6583 26.6527 26.4896 26.22 26.1523 25.912C25.8296 25.604 25.3383 25.45 24.6783 25.45C24.0183 25.45 23.505 25.626 23.1383 25.978C22.7716 26.33 22.5883 26.814 22.5883 27.43H19.9483C19.9483 26.7993 20.0583 26.22 20.2783 25.692C20.513 25.1493 20.8356 24.68 21.2463 24.284C21.657 23.888 22.1483 23.58 22.7203 23.36C23.307 23.14 23.9596 23.03 24.6783 23.03C25.4263 23.03 26.0863 23.1327 26.6583 23.338C27.245 23.5433 27.7436 23.8293 28.1543 24.196C28.565 24.5627 28.873 24.9953 29.0783 25.494C29.2983 25.9927 29.4083 26.528 29.4083 27.1C29.4083 27.628 29.2763 28.1487 29.0123 28.662C28.7483 29.1607 28.455 29.6153 28.1323 30.026C27.751 30.51 27.333 30.9647 26.8783 31.39L23.9083 34.47H29.2983ZM39.3843 34.47H37.9543V37H35.3143V34.47H29.1543V32.16L34.8743 23.14H37.9543V31.94H39.3843V34.47ZM35.3143 31.94V26.77L32.0143 31.94H35.3143Z" fill="white"/>
<path d="M30 12.5V14.5" stroke="white" stroke-width="1.4" stroke-linecap="square"/>
<path d="M30 45.5V47.5" stroke="white" stroke-width="1.4" stroke-linecap="square"/>
<path d="M12.5 30H14.5" stroke="white" stroke-width="1.4" stroke-linecap="square"/>
</svg>
