<svg width="161" height="329" viewBox="0 0 161 329" fill="none" xmlns="http://www.w3.org/2000/svg">
<mask id="mask0" mask-type="alpha" maskUnits="userSpaceOnUse" x="0" y="0" width="329" height="329">
<rect y="210.314" width="297.43" height="166.899" transform="rotate(-45 0 210.314)" fill="#333333"/>
</mask>
<g mask="url(#mask0)">
<rect width="4.51406" height="4.51406" transform="translate(3.28662 4.54382)" fill="#BDBDBD"/>
<circle cx="5.54365" cy="6.80085" r="2.25703" fill="#BDBDBD"/>
<rect width="4.51406" height="4.51406" transform="translate(25.8569 4.54382)" fill="#BDBDBD"/>
<circle cx="28.114" cy="6.80085" r="2.25703" fill="#BDBDBD"/>
<rect width="4.51406" height="4.51406" transform="translate(48.4277 4.54419)" fill="#BDBDBD"/>
<circle cx="50.6848" cy="6.80122" r="2.25703" fill="#BDBDBD"/>
<rect width="4.51406" height="4.51406" transform="translate(70.9985 4.54419)" fill="#BDBDBD"/>
<circle cx="73.2556" cy="6.80122" r="2.25703" fill="#BDBDBD"/>
<rect width="4.51406" height="4.51406" transform="translate(93.5664 4.54419)" fill="#BDBDBD"/>
<circle cx="95.8234" cy="6.80122" r="2.25703" fill="#BDBDBD"/>
<rect width="4.51406" height="4.51406" transform="translate(116.137 4.54419)" fill="#BDBDBD"/>
<circle cx="118.394" cy="6.80122" r="2.25703" fill="#BDBDBD"/>
<rect width="4.51406" height="4.51406" transform="translate(138.708 4.54382)" fill="#BDBDBD"/>
<circle cx="140.966" cy="6.80085" r="2.25703" fill="#BDBDBD"/>
<rect width="4.51406" height="4.51406" transform="translate(3.28662 27.1149)" fill="#BDBDBD"/>
<circle cx="5.54365" cy="29.3719" r="2.25703" fill="#BDBDBD"/>
<rect width="4.51406" height="4.51406" transform="translate(25.8574 27.1149)" fill="#BDBDBD"/>
<circle cx="28.1145" cy="29.3719" r="2.25703" fill="#BDBDBD"/>
<rect width="4.51406" height="4.51406" transform="translate(48.4277 27.1149)" fill="#BDBDBD"/>
<circle cx="50.6848" cy="29.3719" r="2.25703" fill="#BDBDBD"/>
<rect width="4.51406" height="4.51406" transform="translate(70.9985 27.1149)" fill="#BDBDBD"/>
<circle cx="73.2556" cy="29.3719" r="2.25703" fill="#BDBDBD"/>
<rect width="4.51406" height="4.51406" transform="translate(93.5664 27.1149)" fill="#BDBDBD"/>
<circle cx="95.8234" cy="29.3719" r="2.25703" fill="#BDBDBD"/>
<rect width="4.51406" height="4.51406" transform="translate(116.137 27.1149)" fill="#BDBDBD"/>
<circle cx="118.394" cy="29.3719" r="2.25703" fill="#BDBDBD"/>
<rect width="4.51406" height="4.51406" transform="translate(138.708 27.1149)" fill="#BDBDBD"/>
<circle cx="140.965" cy="29.3719" r="2.25703" fill="#BDBDBD"/>
<rect width="4.51406" height="4.51406" transform="translate(3.28662 49.6855)" fill="#BDBDBD"/>
<circle cx="5.54365" cy="51.9426" r="2.25703" fill="#BDBDBD"/>
<rect width="4.51406" height="4.51406" transform="translate(25.8574 49.6855)" fill="#BDBDBD"/>
<circle cx="28.1145" cy="51.9426" r="2.25703" fill="#BDBDBD"/>
<rect width="4.51406" height="4.51406" transform="translate(48.4277 49.6855)" fill="#BDBDBD"/>
<circle cx="50.6848" cy="51.9426" r="2.25703" fill="#BDBDBD"/>
<rect width="4.51406" height="4.51406" transform="translate(70.9985 49.6855)" fill="#BDBDBD"/>
<circle cx="73.2556" cy="51.9426" r="2.25703" fill="#BDBDBD"/>
<rect width="4.51406" height="4.51406" transform="translate(93.5664 49.6855)" fill="#BDBDBD"/>
<circle cx="95.8234" cy="51.9426" r="2.25703" fill="#BDBDBD"/>
<rect width="4.51406" height="4.51406" transform="translate(116.137 49.6855)" fill="#BDBDBD"/>
<circle cx="118.394" cy="51.9426" r="2.25703" fill="#BDBDBD"/>
<rect width="4.51406" height="4.51406" transform="translate(138.708 49.6855)" fill="#BDBDBD"/>
<circle cx="140.965" cy="51.9426" r="2.25703" fill="#BDBDBD"/>
<rect width="4.51406" height="4.51406" transform="translate(3.28662 72.2534)" fill="#BDBDBD"/>
<circle cx="5.54365" cy="74.5105" r="2.25703" fill="#BDBDBD"/>
<rect width="4.51406" height="4.51406" transform="translate(25.8574 72.2534)" fill="#BDBDBD"/>
<circle cx="28.1145" cy="74.5105" r="2.25703" fill="#BDBDBD"/>
<rect width="4.51406" height="4.51406" transform="translate(48.4277 72.2534)" fill="#BDBDBD"/>
<circle cx="50.6848" cy="74.5105" r="2.25703" fill="#BDBDBD"/>
<rect width="4.51406" height="4.51406" transform="translate(70.9985 72.2534)" fill="#BDBDBD"/>
<circle cx="73.2556" cy="74.5105" r="2.25703" fill="#BDBDBD"/>
<rect width="4.51406" height="4.51406" transform="translate(93.5664 72.2534)" fill="#BDBDBD"/>
<circle cx="95.8234" cy="74.5105" r="2.25703" fill="#BDBDBD"/>
<rect width="4.51406" height="4.51406" transform="translate(116.137 72.2534)" fill="#BDBDBD"/>
<circle cx="118.394" cy="74.5105" r="2.25703" fill="#BDBDBD"/>
<rect width="4.51406" height="4.51406" transform="translate(138.708 72.2534)" fill="#BDBDBD"/>
<circle cx="140.965" cy="74.5105" r="2.25703" fill="#BDBDBD"/>
<rect width="4.51406" height="4.51406" transform="translate(3.28662 94.8241)" fill="#BDBDBD"/>
<circle cx="5.54365" cy="97.0811" r="2.25703" fill="#BDBDBD"/>
<rect width="4.51406" height="4.51406" transform="translate(25.8574 94.8241)" fill="#BDBDBD"/>
<circle cx="28.1145" cy="97.0811" r="2.25703" fill="#BDBDBD"/>
<rect width="4.51406" height="4.51406" transform="translate(48.4277 94.8241)" fill="#BDBDBD"/>
<circle cx="50.6848" cy="97.0811" r="2.25703" fill="#BDBDBD"/>
<rect width="4.51406" height="4.51406" transform="translate(70.9985 94.8241)" fill="#BDBDBD"/>
<circle cx="73.2556" cy="97.0811" r="2.25703" fill="#BDBDBD"/>
<rect width="4.51406" height="4.51406" transform="translate(93.5664 94.8241)" fill="#BDBDBD"/>
<circle cx="95.8234" cy="97.0811" r="2.25703" fill="#BDBDBD"/>
<rect width="4.51406" height="4.51406" transform="translate(116.137 94.8241)" fill="#BDBDBD"/>
<circle cx="118.394" cy="97.0811" r="2.25703" fill="#BDBDBD"/>
<rect width="4.51406" height="4.51406" transform="translate(138.708 94.8241)" fill="#BDBDBD"/>
<circle cx="140.965" cy="97.0811" r="2.25703" fill="#BDBDBD"/>
<rect width="4.51406" height="4.51406" transform="translate(3.28662 117.395)" fill="#BDBDBD"/>
<circle cx="5.54365" cy="119.652" r="2.25703" fill="#BDBDBD"/>
<rect width="4.51406" height="4.51406" transform="translate(25.8569 117.395)" fill="#BDBDBD"/>
<circle cx="28.114" cy="119.652" r="2.25703" fill="#BDBDBD"/>
<rect width="4.51406" height="4.51406" transform="translate(48.4277 117.395)" fill="#BDBDBD"/>
<circle cx="50.6848" cy="119.652" r="2.25703" fill="#BDBDBD"/>
<rect width="4.51406" height="4.51406" transform="translate(70.9985 117.395)" fill="#BDBDBD"/>
<circle cx="73.2556" cy="119.652" r="2.25703" fill="#BDBDBD"/>
<rect width="4.51406" height="4.51406" transform="translate(93.5664 117.395)" fill="#BDBDBD"/>
<circle cx="95.8234" cy="119.652" r="2.25703" fill="#BDBDBD"/>
<rect width="4.51406" height="4.51406" transform="translate(116.137 117.395)" fill="#BDBDBD"/>
<circle cx="118.394" cy="119.652" r="2.25703" fill="#BDBDBD"/>
<rect width="4.51406" height="4.51406" transform="translate(138.708 117.395)" fill="#BDBDBD"/>
<circle cx="140.966" cy="119.652" r="2.25703" fill="#BDBDBD"/>
<rect width="4.51406" height="4.51406" transform="translate(3.28662 139.966)" fill="#BDBDBD"/>
<circle cx="5.54365" cy="142.223" r="2.25703" fill="#BDBDBD"/>
<rect width="4.51406" height="4.51406" transform="translate(25.8569 139.966)" fill="#BDBDBD"/>
<circle cx="28.114" cy="142.223" r="2.25703" fill="#BDBDBD"/>
<rect width="4.51406" height="4.51406" transform="translate(48.4277 139.965)" fill="#BDBDBD"/>
<circle cx="50.6848" cy="142.222" r="2.25703" fill="#BDBDBD"/>
<rect width="4.51406" height="4.51406" transform="translate(70.9985 139.965)" fill="#BDBDBD"/>
<circle cx="73.2556" cy="142.222" r="2.25703" fill="#BDBDBD"/>
<rect width="4.51406" height="4.51406" transform="translate(93.5664 139.965)" fill="#BDBDBD"/>
<circle cx="95.8234" cy="142.222" r="2.25703" fill="#BDBDBD"/>
<rect width="4.51406" height="4.51406" transform="translate(116.137 139.965)" fill="#BDBDBD"/>
<circle cx="118.394" cy="142.222" r="2.25703" fill="#BDBDBD"/>
<rect width="4.51406" height="4.51406" transform="translate(138.708 139.966)" fill="#BDBDBD"/>
<circle cx="140.966" cy="142.223" r="2.25703" fill="#BDBDBD"/>
<rect width="4.51406" height="4.51406" transform="translate(3.28662 162.536)" fill="#BDBDBD"/>
<circle cx="5.54365" cy="164.793" r="2.25703" fill="#BDBDBD"/>
<rect width="4.51406" height="4.51406" transform="translate(25.8569 162.536)" fill="#BDBDBD"/>
<circle cx="28.114" cy="164.793" r="2.25703" fill="#BDBDBD"/>
<rect width="4.51406" height="4.51406" transform="translate(48.4277 162.536)" fill="#BDBDBD"/>
<circle cx="50.6848" cy="164.793" r="2.25703" fill="#BDBDBD"/>
<rect width="4.51406" height="4.51406" transform="translate(70.9985 162.536)" fill="#BDBDBD"/>
<circle cx="73.2556" cy="164.793" r="2.25703" fill="#BDBDBD"/>
<rect width="4.51406" height="4.51406" transform="translate(93.5664 162.536)" fill="#BDBDBD"/>
<circle cx="95.8234" cy="164.793" r="2.25703" fill="#BDBDBD"/>
<rect width="4.51406" height="4.51406" transform="translate(116.137 162.536)" fill="#BDBDBD"/>
<circle cx="118.394" cy="164.793" r="2.25703" fill="#BDBDBD"/>
<rect width="4.51406" height="4.51406" transform="translate(138.708 162.536)" fill="#BDBDBD"/>
<circle cx="140.966" cy="164.793" r="2.25703" fill="#BDBDBD"/>
<rect width="4.51406" height="4.51406" transform="translate(3.28662 185.106)" fill="#BDBDBD"/>
<circle cx="5.54365" cy="187.363" r="2.25703" fill="#BDBDBD"/>
<rect width="4.51406" height="4.51406" transform="translate(25.8569 185.106)" fill="#BDBDBD"/>
<circle cx="28.114" cy="187.363" r="2.25703" fill="#BDBDBD"/>
<rect width="4.51406" height="4.51406" transform="translate(48.4277 185.107)" fill="#BDBDBD"/>
<circle cx="50.6848" cy="187.364" r="2.25703" fill="#BDBDBD"/>
<rect width="4.51406" height="4.51406" transform="translate(70.9985 185.107)" fill="#BDBDBD"/>
<circle cx="73.2556" cy="187.364" r="2.25703" fill="#BDBDBD"/>
<rect width="4.51406" height="4.51406" transform="translate(93.5664 185.107)" fill="#BDBDBD"/>
<circle cx="95.8234" cy="187.364" r="2.25703" fill="#BDBDBD"/>
<rect width="4.51406" height="4.51406" transform="translate(116.137 185.107)" fill="#BDBDBD"/>
<circle cx="118.394" cy="187.364" r="2.25703" fill="#BDBDBD"/>
<rect width="4.51406" height="4.51406" transform="translate(138.708 185.106)" fill="#BDBDBD"/>
<circle cx="140.966" cy="187.363" r="2.25703" fill="#BDBDBD"/>
<rect width="4.51406" height="4.51406" transform="translate(3.28662 207.677)" fill="#BDBDBD"/>
<circle cx="5.54365" cy="209.935" r="2.25703" fill="#BDBDBD"/>
<rect width="4.51406" height="4.51406" transform="translate(25.8574 207.677)" fill="#BDBDBD"/>
<circle cx="28.1145" cy="209.935" r="2.25703" fill="#BDBDBD"/>
<rect width="4.51406" height="4.51406" transform="translate(48.4277 207.677)" fill="#BDBDBD"/>
<circle cx="50.6848" cy="209.935" r="2.25703" fill="#BDBDBD"/>
<rect width="4.51406" height="4.51406" transform="translate(70.9985 207.677)" fill="#BDBDBD"/>
<circle cx="73.2556" cy="209.935" r="2.25703" fill="#BDBDBD"/>
<rect width="4.51406" height="4.51406" transform="translate(93.5664 207.677)" fill="#BDBDBD"/>
<circle cx="95.8234" cy="209.935" r="2.25703" fill="#BDBDBD"/>
<rect width="4.51406" height="4.51406" transform="translate(116.137 207.677)" fill="#BDBDBD"/>
<circle cx="118.394" cy="209.935" r="2.25703" fill="#BDBDBD"/>
<rect width="4.51406" height="4.51406" transform="translate(138.708 207.677)" fill="#BDBDBD"/>
<circle cx="140.965" cy="209.935" r="2.25703" fill="#BDBDBD"/>
<rect width="4.51406" height="4.51406" transform="translate(3.28662 230.248)" fill="#BDBDBD"/>
<circle cx="5.54365" cy="232.505" r="2.25703" fill="#BDBDBD"/>
<rect width="4.51406" height="4.51406" transform="translate(25.8574 230.248)" fill="#BDBDBD"/>
<circle cx="28.1145" cy="232.505" r="2.25703" fill="#BDBDBD"/>
<rect width="4.51406" height="4.51406" transform="translate(48.4277 230.248)" fill="#BDBDBD"/>
<circle cx="50.6848" cy="232.505" r="2.25703" fill="#BDBDBD"/>
<rect width="4.51406" height="4.51406" transform="translate(70.9985 230.248)" fill="#BDBDBD"/>
<circle cx="73.2556" cy="232.505" r="2.25703" fill="#BDBDBD"/>
<rect width="4.51406" height="4.51406" transform="translate(93.5664 230.248)" fill="#BDBDBD"/>
<circle cx="95.8234" cy="232.505" r="2.25703" fill="#BDBDBD"/>
<rect width="4.51406" height="4.51406" transform="translate(116.137 230.248)" fill="#BDBDBD"/>
<circle cx="118.394" cy="232.505" r="2.25703" fill="#BDBDBD"/>
<rect width="4.51406" height="4.51406" transform="translate(138.708 230.248)" fill="#BDBDBD"/>
<circle cx="140.965" cy="232.505" r="2.25703" fill="#BDBDBD"/>
<rect width="4.51406" height="4.51406" transform="translate(3.28662 252.816)" fill="#BDBDBD"/>
<circle cx="5.54365" cy="255.073" r="2.25703" fill="#BDBDBD"/>
<rect width="4.51406" height="4.51406" transform="translate(25.8574 252.816)" fill="#BDBDBD"/>
<circle cx="28.1145" cy="255.073" r="2.25703" fill="#BDBDBD"/>
<rect width="4.51406" height="4.51406" transform="translate(48.4277 252.816)" fill="#BDBDBD"/>
<circle cx="50.6848" cy="255.073" r="2.25703" fill="#BDBDBD"/>
<rect width="4.51406" height="4.51406" transform="translate(70.9985 252.816)" fill="#BDBDBD"/>
<circle cx="73.2556" cy="255.073" r="2.25703" fill="#BDBDBD"/>
<rect width="4.51406" height="4.51406" transform="translate(93.5664 252.816)" fill="#BDBDBD"/>
<circle cx="95.8234" cy="255.073" r="2.25703" fill="#BDBDBD"/>
<rect width="4.51406" height="4.51406" transform="translate(116.137 252.816)" fill="#BDBDBD"/>
<circle cx="118.394" cy="255.073" r="2.25703" fill="#BDBDBD"/>
<rect width="4.51406" height="4.51406" transform="translate(138.708 252.816)" fill="#BDBDBD"/>
<circle cx="140.965" cy="255.073" r="2.25703" fill="#BDBDBD"/>
<rect width="4.51406" height="4.51406" transform="translate(3.28662 275.387)" fill="#BDBDBD"/>
<circle cx="5.54365" cy="277.644" r="2.25703" fill="#BDBDBD"/>
<rect width="4.51406" height="4.51406" transform="translate(25.8574 275.387)" fill="#BDBDBD"/>
<circle cx="28.1145" cy="277.644" r="2.25703" fill="#BDBDBD"/>
<rect width="4.51406" height="4.51406" transform="translate(48.4277 275.387)" fill="#BDBDBD"/>
<circle cx="50.6848" cy="277.644" r="2.25703" fill="#BDBDBD"/>
<rect width="4.51406" height="4.51406" transform="translate(70.9985 275.387)" fill="#BDBDBD"/>
<circle cx="73.2556" cy="277.644" r="2.25703" fill="#BDBDBD"/>
<rect width="4.51406" height="4.51406" transform="translate(93.5664 275.387)" fill="#BDBDBD"/>
<circle cx="95.8234" cy="277.644" r="2.25703" fill="#BDBDBD"/>
<rect width="4.51406" height="4.51406" transform="translate(116.137 275.387)" fill="#BDBDBD"/>
<circle cx="118.394" cy="277.644" r="2.25703" fill="#BDBDBD"/>
<rect width="4.51406" height="4.51406" transform="translate(138.708 275.387)" fill="#BDBDBD"/>
<circle cx="140.965" cy="277.644" r="2.25703" fill="#BDBDBD"/>
<rect width="4.51406" height="4.51406" transform="translate(3.28662 297.958)" fill="#BDBDBD"/>
<circle cx="5.54365" cy="300.215" r="2.25703" fill="#BDBDBD"/>
<rect width="4.51406" height="4.51406" transform="translate(25.8569 297.958)" fill="#BDBDBD"/>
<circle cx="28.114" cy="300.215" r="2.25703" fill="#BDBDBD"/>
<rect width="4.51406" height="4.51406" transform="translate(48.4277 297.958)" fill="#BDBDBD"/>
<circle cx="50.6848" cy="300.215" r="2.25703" fill="#BDBDBD"/>
<rect width="4.51406" height="4.51406" transform="translate(70.9985 297.958)" fill="#BDBDBD"/>
<circle cx="73.2556" cy="300.215" r="2.25703" fill="#BDBDBD"/>
<rect width="4.51406" height="4.51406" transform="translate(93.5664 297.958)" fill="#BDBDBD"/>
<circle cx="95.8234" cy="300.215" r="2.25703" fill="#BDBDBD"/>
<rect width="4.51406" height="4.51406" transform="translate(116.137 297.958)" fill="#BDBDBD"/>
<circle cx="118.394" cy="300.215" r="2.25703" fill="#BDBDBD"/>
<rect width="4.51406" height="4.51406" transform="translate(138.708 297.958)" fill="#BDBDBD"/>
<circle cx="140.966" cy="300.215" r="2.25703" fill="#BDBDBD"/>
<rect width="4.51406" height="4.51406" transform="translate(3.28662 320.528)" fill="#BDBDBD"/>
<circle cx="5.54365" cy="322.785" r="2.25703" fill="#BDBDBD"/>
<rect width="4.51406" height="4.51406" transform="translate(25.8569 320.528)" fill="#BDBDBD"/>
<circle cx="28.114" cy="322.785" r="2.25703" fill="#BDBDBD"/>
<rect width="4.51406" height="4.51406" transform="translate(48.4277 320.528)" fill="#BDBDBD"/>
<circle cx="50.6848" cy="322.785" r="2.25703" fill="#BDBDBD"/>
<rect width="4.51406" height="4.51406" transform="translate(70.9985 320.528)" fill="#BDBDBD"/>
<circle cx="73.2556" cy="322.785" r="2.25703" fill="#BDBDBD"/>
<rect width="4.51406" height="4.51406" transform="translate(93.5664 320.528)" fill="#BDBDBD"/>
<circle cx="95.8234" cy="322.785" r="2.25703" fill="#BDBDBD"/>
<rect width="4.51406" height="4.51406" transform="translate(116.137 320.528)" fill="#BDBDBD"/>
<circle cx="118.394" cy="322.785" r="2.25703" fill="#BDBDBD"/>
<rect width="4.51406" height="4.51406" transform="translate(138.708 320.528)" fill="#BDBDBD"/>
<circle cx="140.966" cy="322.785" r="2.25703" fill="#BDBDBD"/>
</g>
</svg>
