<svg width="950" height="240" viewBox="0 0 950 240" fill="none" xmlns="http://www.w3.org/2000/svg">
<g clip-path="url(#clip0)">
<rect width="950" height="240" fill="white"/>
<path d="M399.581 -33.7242C480.853 -28.9781 542.89 40.7534 538.144 122.026C533.398 203.298 463.667 265.334 382.395 260.588C301.122 255.842 239.086 186.111 243.832 104.839C248.578 23.5666 318.309 -38.4702 399.581 -33.7242Z" fill="white" stroke="#EBEBEB"/>
<path d="M25.1101 111.005C77.3259 114.054 117.183 158.855 114.134 211.071C111.085 263.287 66.2837 303.144 14.0679 300.095C-38.1479 297.046 -78.0054 252.245 -74.9561 200.029C-71.9069 147.813 -27.1058 107.956 25.1101 111.005Z" fill="#F8F9FA"/>
<rect x="92.3176" y="231.376" width="1.65312" height="9.92988" fill="black"/>
<path d="M108.694 217.135C108.694 224.662 106.866 228.289 104.18 230.12C101.413 232.007 97.5294 232.164 92.9142 232.164C88.299 232.164 84.4153 232.007 81.6481 230.12C78.9622 228.289 77.134 224.662 77.134 217.135C77.134 209.612 78.9652 199.847 81.9275 191.975C83.409 188.038 85.1573 184.619 87.0685 182.198C88.9962 179.757 90.9775 178.468 92.9142 178.468C94.8509 178.468 96.8322 179.757 98.7599 182.198C100.671 184.619 102.419 188.038 103.901 191.975C106.863 199.847 108.694 209.612 108.694 217.135Z" fill="#F2F2F2" stroke="black" stroke-width="1.5"/>
<rect x="140.948" y="221.341" width="3.48994" height="20.9396" fill="black"/>
<path fill-rule="evenodd" clip-rule="evenodd" d="M151.359 92.2988C148.367 90.0665 145.243 88.8267 142.031 88.8267C119.995 88.8267 102.131 147.182 102.131 183.972C102.131 216.151 115.797 221.175 133.968 221.929C130.084 214.76 127.878 204.513 127.878 189.871C127.878 159.706 137.238 118.208 151.359 92.2988Z" fill="#F2F2F2"/>
<path d="M181.181 183.972C181.181 202.273 176.737 211.477 169.822 216.191C162.826 220.961 153.1 221.307 142.031 221.307C130.962 221.307 121.236 220.961 114.24 216.191C107.325 211.477 102.881 202.273 102.881 183.972C102.881 165.674 107.328 141.977 114.519 122.867C118.115 113.311 122.381 104.946 127.089 98.9842C131.812 93.0019 136.868 89.5767 142.031 89.5767C147.194 89.5767 152.25 93.0019 156.973 98.9842C161.681 104.946 165.947 113.311 169.543 122.867C176.734 141.977 181.181 165.674 181.181 183.972Z" stroke="black" stroke-width="1.5"/>
<path d="M110.76 157.668C109.149 166.439 108.261 175.095 108.261 182.68C108.261 214.184 123.571 215.292 142.456 215.292C153.495 215.292 163.312 214.914 169.564 208.308" stroke="black" stroke-width="1.5"/>
<path d="M236.864 46.9751H287.773C297.794 46.9751 307.772 48.2874 317.453 50.8784V50.8784C329.52 54.1085 342.225 54.1085 354.292 50.8784L368.875 46.9751V132.278L354.292 136.182C342.225 139.412 329.52 139.412 317.453 136.182V136.182C307.772 133.591 297.794 132.278 287.773 132.278H236.864V46.9751Z" fill="#FF3B30"/>
<rect x="229.79" y="51.4819" width="6.63682" height="203.36" stroke="black" stroke-width="1.5"/>
<path d="M236.427 51.4819H287.255C297.26 51.4819 307.222 52.7921 316.886 55.379V55.379C328.935 58.6039 341.619 58.6039 353.667 55.379L368.227 51.4819V136.649L353.667 140.546C341.619 143.771 328.935 143.771 316.886 140.546V140.546C307.222 137.959 297.26 136.649 287.255 136.649H236.427V51.4819Z" stroke="black" stroke-width="1.5"/>
</g>
<defs>
<clipPath id="clip0">
<rect width="950" height="240" fill="white"/>
</clipPath>
</defs>
</svg>
