<svg width="32" height="32" viewBox="0 0 32 32" fill="none" xmlns="http://www.w3.org/2000/svg">
<rect width="32" height="32" rx="3" fill="#5376A4"/>
<path fill-rule="evenodd" clip-rule="evenodd" d="M23.978 11.6928H21.1682C20.9346 11.6928 20.7198 11.8163 20.6093 12.0142C20.6093 12.0142 19.4887 13.9982 19.1287 14.6664C18.1603 16.4641 17.5333 15.8997 17.5333 15.0654V12.1887C17.5333 11.6881 17.1111 11.2823 16.5904 11.2823H14.4778C13.8929 11.2405 13.3271 11.4929 12.9827 11.9493C12.9827 11.9493 14.0554 11.7825 14.0554 13.172C14.0554 13.5166 14.0738 14.5078 14.0907 15.3391C14.0972 15.59 13.9402 15.8182 13.6974 15.9107C13.4546 16.0031 13.1777 15.9402 13.0036 15.7531C12.1389 14.597 11.4227 13.3447 10.8704 12.0234C10.7736 11.8216 10.5633 11.6924 10.3321 11.6928C9.72276 11.6928 8.5034 11.6928 7.77927 11.6928C7.63673 11.6918 7.50281 11.7583 7.42102 11.8705C7.33924 11.9827 7.32004 12.1264 7.36966 12.2549C8.14482 14.2989 11.484 20.7223 15.2953 20.7223H16.8995C17.2495 20.7223 17.5333 20.4495 17.5333 20.1131V19.1819C17.5333 18.9431 17.6808 18.7272 17.9088 18.6324C18.1367 18.5376 18.4014 18.5821 18.5824 18.7456L20.5025 20.4798C20.675 20.6356 20.9027 20.7223 21.1393 20.7223H23.6607C24.8768 20.7223 24.8768 19.9111 24.2138 19.2834C23.7472 18.8416 22.0634 17.1355 22.0634 17.1355C21.7654 16.8388 21.737 16.3775 21.9964 16.0491C22.5407 15.3606 23.4309 14.2335 23.8084 13.7507C24.3245 13.0908 25.2584 11.6928 23.978 11.6928Z" fill="white"/>
</svg>
