<svg width="32" height="32" viewBox="0 0 32 32" fill="none" xmlns="http://www.w3.org/2000/svg">
<rect width="32" height="32" rx="3" fill="#4D9FD7"/>
<path fill-rule="evenodd" clip-rule="evenodd" d="M12.0784 17.0848L8.49139 15.7161C8.12707 15.5765 8.1239 15.0507 8.48719 14.9074L23.2083 9.10151C23.5204 8.97811 23.8424 9.25764 23.7744 9.59271L21.1326 22.5843C21.0704 22.8911 20.7186 23.0302 20.4703 22.8457L16.864 20.1689C16.645 20.0063 16.3464 20.015 16.1369 20.1896L14.1374 21.8561C13.9053 22.0501 13.5556 21.942 13.4668 21.6496L12.0784 17.0848ZM20.2533 11.9425L13.243 16.3567C12.9743 16.5263 12.8478 16.858 12.9346 17.1685L13.6926 19.8914C13.7464 20.0843 14.0203 20.0645 14.0464 19.8652L14.2435 18.372C14.2806 18.0909 14.4118 17.8319 14.6152 17.6384L20.4007 12.1402C20.5089 12.0376 20.3793 11.8634 20.2533 11.9425Z" fill="white"/>
</svg>
