<svg width="32" height="32" viewBox="0 0 32 32" fill="none" xmlns="http://www.w3.org/2000/svg">
<rect width="32" height="32" rx="3" fill="#3480BA"/>
<path fill-rule="evenodd" clip-rule="evenodd" d="M10.8565 9.23828C11.7546 9.23828 12.4839 9.96755 12.4839 10.8661C12.4839 11.7652 11.7546 12.4945 10.8565 12.4945C9.95482 12.4945 9.22766 11.7652 9.22766 10.8661C9.22766 9.96755 9.95482 9.23828 10.8565 9.23828Z" fill="white"/>
<path fill-rule="evenodd" clip-rule="evenodd" d="M9.45056 22.761H12.2604V13.728H9.45056V22.761Z" fill="white"/>
<path fill-rule="evenodd" clip-rule="evenodd" d="M14.0189 13.7284H16.7099V14.9635H16.7483C17.1226 14.2531 18.0391 13.5044 19.4051 13.5044C22.247 13.5044 22.7722 15.3746 22.7722 17.8074V22.7614H19.9661V18.3684C19.9661 17.3211 19.9472 15.9735 18.5065 15.9735C17.0459 15.9735 16.8229 17.115 16.8229 18.2938V22.7614H14.0189V13.7284Z" fill="white"/>
</svg>
