<svg width="32" height="32" viewBox="0 0 32 32" fill="none" xmlns="http://www.w3.org/2000/svg">
<rect width="32" height="32" rx="3" fill="#479BE4"/>
<path fill-rule="evenodd" clip-rule="evenodd" d="M13.0459 22.5767C19.0547 22.5767 22.3412 17.5156 22.3412 13.1267C22.3412 12.9829 22.3412 12.8398 22.3316 12.6974C22.971 12.2272 23.5229 11.6451 23.9615 10.9782C23.3653 11.2468 22.7328 11.4229 22.0852 11.5007C22.7671 11.0857 23.2776 10.4328 23.5214 9.66371C22.8801 10.0506 22.1786 10.3232 21.447 10.4699C20.4343 9.37517 18.8252 9.10723 17.5219 9.81632C16.2187 10.5254 15.5454 12.0352 15.8796 13.499C13.2529 13.3651 10.8055 12.1038 9.1467 10.0289C8.27961 11.5465 8.7225 13.4879 10.1581 14.4625C9.63824 14.4469 9.12968 14.3043 8.67538 14.0468C8.67538 14.0604 8.67538 14.0747 8.67538 14.0889C8.6758 15.6699 9.772 17.0316 11.2963 17.3447C10.8154 17.478 10.3107 17.4975 9.8212 17.4017C10.2492 18.7546 11.4757 19.6815 12.8733 19.7082C11.7165 20.6325 10.2875 21.1342 8.81614 21.1327C8.55621 21.1322 8.29654 21.1162 8.03845 21.0848C9.53244 22.0595 11.2708 22.5765 13.0459 22.5741" fill="white"/>
</svg>
