<svg width="32" height="32" viewBox="0 0 32 32" fill="none" xmlns="http://www.w3.org/2000/svg">
<rect width="32" height="32" rx="3" fill="#2B2D37"/>
<path d="M16 8.55324C18.4254 8.55324 18.7127 8.5625 19.6706 8.6062C20.5563 8.64662 21.0372 8.79457 21.3573 8.91897C21.7519 9.06459 22.1088 9.29678 22.4018 9.59848C22.7035 9.89148 22.9357 10.2484 23.0813 10.6429C23.2057 10.963 23.3537 11.444 23.394 12.3296C23.4378 13.2875 23.447 13.5748 23.447 16.0003C23.447 18.4258 23.4378 18.713 23.394 19.671C23.3536 20.5566 23.2056 21.0376 23.0813 21.3577C22.9302 21.7494 22.6987 22.1052 22.4018 22.4021C22.1049 22.6991 21.7491 22.9305 21.3573 23.0816C21.0372 23.206 20.5563 23.354 19.6706 23.3944C18.7129 23.4381 18.4257 23.4474 16 23.4474C13.5742 23.4474 13.2871 23.4381 12.3293 23.3944C11.4436 23.354 10.9627 23.206 10.6426 23.0816C10.248 22.936 9.89113 22.7038 9.59812 22.4021C9.29643 22.1091 9.06424 21.7522 8.91862 21.3577C8.79422 21.0376 8.64624 20.5566 8.60585 19.671C8.56215 18.7131 8.55288 18.4258 8.55288 16.0003C8.55288 13.5748 8.56215 13.2876 8.60585 12.3296C8.64627 11.444 8.79422 10.963 8.91862 10.6429C9.06425 10.2484 9.29647 9.89145 9.5982 9.59844C9.8912 9.29675 10.2481 9.06455 10.6426 8.91893C10.9627 8.79453 11.4437 8.64655 12.3293 8.60617C13.2872 8.56247 13.5745 8.5532 16 8.5532L16 8.55324ZM16 6.9165C13.533 6.9165 13.2236 6.92696 12.2549 6.97117C11.288 7.0153 10.6277 7.16884 10.0499 7.3934C9.44378 7.62149 8.89472 7.97904 8.441 8.44113C7.9788 8.89483 7.62115 9.44389 7.39298 10.05C7.16859 10.6279 7.01506 11.2881 6.9711 12.255C6.92672 13.2238 6.91626 13.5332 6.91626 16.0002C6.91626 18.4672 6.92672 18.7766 6.9711 19.7454C7.01524 20.7123 7.16877 21.3725 7.39334 21.9503C7.62143 22.5564 7.97898 23.1055 8.44107 23.5592C8.89479 24.0213 9.44385 24.3789 10.05 24.607C10.6278 24.8315 11.2881 24.9851 12.2549 25.0292C13.2238 25.0734 13.5331 25.0839 16.0001 25.0839C18.4671 25.0839 18.7765 25.0734 19.7453 25.0292C20.7121 24.9851 21.3724 24.8315 21.9502 24.607C22.5536 24.3736 23.1016 24.0167 23.5591 23.5592C24.0166 23.1018 24.3735 22.5537 24.6068 21.9503C24.8314 21.3725 24.985 20.7122 25.0291 19.7454C25.0733 18.7765 25.0837 18.4672 25.0837 16.0002C25.0837 13.5332 25.0733 13.2238 25.0291 12.255C24.985 11.2881 24.8314 10.6279 24.6068 10.0501C24.3788 9.44395 24.0212 8.89489 23.5591 8.44117C23.1054 7.97899 22.5563 7.62136 21.9501 7.39322C21.3723 7.16884 20.712 7.0153 19.7451 6.97135C18.7764 6.92696 18.4669 6.9165 16 6.9165H16Z" fill="white"/>
<path d="M15.9988 11.3354C15.0763 11.3354 14.1744 11.609 13.4073 12.1216C12.6402 12.6341 12.0424 13.3626 11.6893 14.215C11.3362 15.0673 11.2439 16.0052 11.4239 16.9101C11.6038 17.8149 12.0481 18.6461 12.7005 19.2984C13.3528 19.9508 14.184 20.395 15.0888 20.575C15.9937 20.755 16.9316 20.6626 17.7839 20.3096C18.6362 19.9565 19.3648 19.3587 19.8773 18.5916C20.3899 17.8245 20.6634 16.9226 20.6634 16.0001C20.6634 14.7629 20.172 13.5765 19.2972 12.7017C18.4224 11.8269 17.236 11.3354 15.9988 11.3354ZM15.9988 19.0279C15.4 19.0279 14.8146 18.8503 14.3166 18.5176C13.8187 18.1849 13.4306 17.712 13.2015 17.1587C12.9723 16.6055 12.9123 15.9967 13.0292 15.4093C13.146 14.822 13.4344 14.2825 13.8579 13.859C14.2813 13.4356 14.8208 13.1472 15.4082 13.0304C15.9955 12.9135 16.6043 12.9735 17.1576 13.2027C17.7109 13.4318 18.1838 13.8199 18.5165 14.3179C18.8492 14.8158 19.0267 15.4012 19.0267 16.0001C19.0267 16.8031 18.7077 17.5732 18.1399 18.1411C17.572 18.7089 16.8019 19.0279 15.9988 19.0279Z" fill="white"/>
<path d="M20.8481 12.2416C21.4501 12.2416 21.9381 11.7536 21.9381 11.1515C21.9381 10.5495 21.4501 10.0615 20.8481 10.0615C20.2461 10.0615 19.7581 10.5495 19.7581 11.1515C19.7581 11.7536 20.2461 12.2416 20.8481 12.2416Z" fill="white"/>
</svg>
