<svg width="80" height="81" viewBox="0 0 80 81" fill="none" xmlns="http://www.w3.org/2000/svg">
<rect y="0.921875" width="80" height="80" rx="29" fill="#FF3B30"/>
<rect x="21.5273" y="21.0664" width="28" height="38.9887" fill="white" stroke="#FF3B30"/>
<rect x="25.5273" y="21.0664" width="28" height="38.9887" fill="white" stroke="#FF3B30"/>
<rect x="29.5273" y="21.0664" width="28" height="38.9887" fill="white" stroke="#FF3B30"/>
<path d="M58.9117 52.1482L60.9931 49.6877L66.2398 54.1261C66.9192 54.7009 67.0041 55.7177 66.4293 56.3971C65.8545 57.0765 64.8378 57.1614 64.1583 56.5866L58.9117 52.1482Z" fill="white" stroke="#FF3B30"/>
<path d="M59.0248 38.4494C62.7779 41.6243 63.2466 47.2405 60.0717 50.9936C56.8968 54.7467 51.2805 55.2153 47.5275 52.0404C43.7744 48.8655 43.3057 43.2493 46.4806 39.4962C49.6555 35.7431 55.2718 35.2744 59.0248 38.4494Z" stroke="white"/>
<mask id="mask0" mask-type="alpha" maskUnits="userSpaceOnUse" x="29" y="20" width="29" height="41">
<rect x="29.5273" y="21.0664" width="26.98" height="38.9887" fill="white" stroke="black"/>
</mask>
<g mask="url(#mask0)">
<path d="M59.0248 38.4494C62.7779 41.6243 63.2466 47.2405 60.0717 50.9936C56.8968 54.7467 51.2805 55.2153 47.5275 52.0404C43.7744 48.8655 43.3057 43.2493 46.4806 39.4962C49.6555 35.7431 55.2718 35.2744 59.0248 38.4494Z" stroke="#FF3B30"/>
</g>
</svg>
