<svg width="81" height="81" viewBox="0 0 81 81" fill="none" xmlns="http://www.w3.org/2000/svg">
<rect x="0.671875" y="0.921875" width="80" height="80" rx="29" fill="#FF3B30"/>
<circle r="5.30208" transform="matrix(-1 0 0 1 32.7126 26.1175)" fill="white" stroke="#FF3B30"/>
<path fill-rule="evenodd" clip-rule="evenodd" d="M38.4961 31.9209C40.7052 31.9209 42.4961 33.7118 42.4961 35.9209V48.5466C42.4961 49.6512 41.6007 50.5466 40.4961 50.5466H38.4414V59.5277C38.4414 60.6323 37.546 61.5277 36.4414 61.5277H28.9784C27.8739 61.5277 26.9784 60.6323 26.9784 59.5277V50.5466H24.9296C23.825 50.5466 22.9296 49.6512 22.9296 48.5466V35.9209C22.9296 33.7118 24.7204 31.9209 26.9296 31.9209H30.9784H34.4414H38.4961Z" fill="white"/>
<path d="M38.4414 50.5466H37.9414V50.0466H38.4414V50.5466ZM26.9784 50.5466V50.0466H27.4784V50.5466H26.9784ZM41.9961 35.9209C41.9961 33.9879 40.4291 32.4209 38.4961 32.4209V31.4209C40.9814 31.4209 42.9961 33.4356 42.9961 35.9209H41.9961ZM41.9961 48.5466V35.9209H42.9961V48.5466H41.9961ZM40.4961 50.0466C41.3245 50.0466 41.9961 49.375 41.9961 48.5466H42.9961C42.9961 49.9273 41.8768 51.0466 40.4961 51.0466V50.0466ZM38.4414 50.0466H40.4961V51.0466H38.4414V50.0466ZM37.9414 59.5277V50.5466H38.9414V59.5277H37.9414ZM36.4414 61.0277C37.2698 61.0277 37.9414 60.3561 37.9414 59.5277H38.9414C38.9414 60.9084 37.8221 62.0277 36.4414 62.0277V61.0277ZM28.9784 61.0277H36.4414V62.0277H28.9784V61.0277ZM27.4784 59.5277C27.4784 60.3561 28.15 61.0277 28.9784 61.0277V62.0277C27.5977 62.0277 26.4784 60.9084 26.4784 59.5277H27.4784ZM27.4784 50.5466V59.5277H26.4784V50.5466H27.4784ZM24.9296 50.0466H26.9784V51.0466H24.9296V50.0466ZM23.4296 48.5466C23.4296 49.3751 24.1011 50.0466 24.9296 50.0466V51.0466C23.5488 51.0466 22.4296 49.9273 22.4296 48.5466H23.4296ZM23.4296 35.9209V48.5466H22.4296V35.9209H23.4296ZM26.9296 32.4209C24.9966 32.4209 23.4296 33.9879 23.4296 35.9209H22.4296C22.4296 33.4356 24.4443 31.4209 26.9296 31.4209V32.4209ZM30.9784 32.4209H26.9296V31.4209H30.9784V32.4209ZM34.4414 32.4209H30.9784V31.4209H34.4414V32.4209ZM38.4961 32.4209H34.4414V31.4209H38.4961V32.4209Z" fill="#FF3B30"/>
<circle r="5.30208" transform="matrix(-1 0 0 1 36.8884 26.1175)" fill="white" stroke="#FF3B30"/>
<path fill-rule="evenodd" clip-rule="evenodd" d="M42.6719 31.9209C44.881 31.9209 46.6719 33.7118 46.6719 35.9209V48.5466C46.6719 49.6512 45.7764 50.5466 44.6719 50.5466H42.6182V59.5277C42.6182 60.6323 41.7227 61.5277 40.6182 61.5277H33.1552C32.0506 61.5277 31.1552 60.6323 31.1552 59.5277V50.5466H29.1053C28.0008 50.5466 27.1053 49.6512 27.1053 48.5466V35.9209C27.1053 33.7118 28.8962 31.9209 31.1053 31.9209H35.1552H38.6182H42.6719Z" fill="white"/>
<path d="M42.6182 50.5466H42.1182V50.0466H42.6182V50.5466ZM31.1552 50.5466V50.0466H31.6552V50.5466H31.1552ZM46.1719 35.9209C46.1719 33.9879 44.6049 32.4209 42.6719 32.4209V31.4209C45.1572 31.4209 47.1719 33.4356 47.1719 35.9209H46.1719ZM46.1719 48.5466V35.9209H47.1719V48.5466H46.1719ZM44.6719 50.0466C45.5003 50.0466 46.1719 49.375 46.1719 48.5466H47.1719C47.1719 49.9273 46.0526 51.0466 44.6719 51.0466V50.0466ZM42.6182 50.0466H44.6719V51.0466H42.6182V50.0466ZM42.1182 59.5277V50.5466H43.1182V59.5277H42.1182ZM40.6182 61.0277C41.4466 61.0277 42.1182 60.3561 42.1182 59.5277H43.1182C43.1182 60.9084 41.9989 62.0277 40.6182 62.0277V61.0277ZM33.1552 61.0277H40.6182V62.0277H33.1552V61.0277ZM31.6552 59.5277C31.6552 60.3561 32.3268 61.0277 33.1552 61.0277V62.0277C31.7745 62.0277 30.6552 60.9084 30.6552 59.5277H31.6552ZM31.6552 50.5466V59.5277H30.6552V50.5466H31.6552ZM29.1053 50.0466H31.1552V51.0466H29.1053V50.0466ZM27.6053 48.5466C27.6053 49.3751 28.2769 50.0466 29.1053 50.0466V51.0466C27.7246 51.0466 26.6053 49.9273 26.6053 48.5466H27.6053ZM27.6053 35.9209V48.5466H26.6053V35.9209H27.6053ZM31.1053 32.4209C29.1723 32.4209 27.6053 33.9879 27.6053 35.9209H26.6053C26.6053 33.4356 28.6201 31.4209 31.1053 31.4209V32.4209ZM35.1552 32.4209H31.1053V31.4209H35.1552V32.4209ZM38.6182 32.4209H35.1552V31.4209H38.6182V32.4209ZM42.6719 32.4209H38.6182V31.4209H42.6719V32.4209Z" fill="#FF3B30"/>
<circle r="5.30208" transform="matrix(-1 0 0 1 41.0641 26.1175)" fill="white" stroke="#FF3B30"/>
<path fill-rule="evenodd" clip-rule="evenodd" d="M46.8477 31.9209C49.0568 31.9209 50.8477 33.7118 50.8477 35.9209V48.5466C50.8477 49.6512 49.9522 50.5466 48.8477 50.5466H46.793V59.5277C46.793 60.6323 45.8975 61.5277 44.793 61.5277H37.33C36.2254 61.5277 35.33 60.6323 35.33 59.5277V50.5466H33.2811C32.1765 50.5466 31.2811 49.6512 31.2811 48.5466V35.9209C31.2811 33.7118 33.072 31.9209 35.2811 31.9209H39.33H42.793H46.8477Z" fill="white"/>
<path d="M46.793 50.5466H46.293V50.0466H46.793V50.5466ZM35.33 50.5466V50.0466H35.83V50.5466H35.33ZM50.3477 35.9209C50.3477 33.9879 48.7807 32.4209 46.8477 32.4209V31.4209C49.3329 31.4209 51.3477 33.4356 51.3477 35.9209H50.3477ZM50.3477 48.5466V35.9209H51.3477V48.5466H50.3477ZM48.8477 50.0466C49.6761 50.0466 50.3477 49.375 50.3477 48.5466H51.3477C51.3477 49.9273 50.2284 51.0466 48.8477 51.0466V50.0466ZM46.793 50.0466H48.8477V51.0466H46.793V50.0466ZM46.293 59.5277V50.5466H47.293V59.5277H46.293ZM44.793 61.0277C45.6214 61.0277 46.293 60.3561 46.293 59.5277H47.293C47.293 60.9084 46.1737 62.0277 44.793 62.0277V61.0277ZM37.33 61.0277H44.793V62.0277H37.33V61.0277ZM35.83 59.5277C35.83 60.3561 36.5016 61.0277 37.33 61.0277V62.0277C35.9493 62.0277 34.83 60.9084 34.83 59.5277H35.83ZM35.83 50.5466V59.5277H34.83V50.5466H35.83ZM33.2811 50.0466H35.33V51.0466H33.2811V50.0466ZM31.7811 48.5466C31.7811 49.3751 32.4527 50.0466 33.2811 50.0466V51.0466C31.9004 51.0466 30.7811 49.9273 30.7811 48.5466H31.7811ZM31.7811 35.9209V48.5466H30.7811V35.9209H31.7811ZM35.2811 32.4209C33.3481 32.4209 31.7811 33.9879 31.7811 35.9209H30.7811C30.7811 33.4356 32.7958 31.4209 35.2811 31.4209V32.4209ZM39.33 32.4209H35.2811V31.4209H39.33V32.4209ZM42.793 32.4209H39.33V31.4209H42.793V32.4209ZM46.8477 32.4209H42.793V31.4209H46.8477V32.4209Z" fill="#FF3B30"/>
<path d="M55.0479 48.2806L57.1294 45.8201L62.2273 50.1327C62.9067 50.7075 62.9916 51.7243 62.4168 52.4037C61.842 53.0831 60.8253 53.168 60.1459 52.5932L55.0479 48.2806Z" fill="white" stroke="#FF3B30"/>
<path d="M55.1742 34.6359C58.9273 37.8108 59.396 43.427 56.2211 47.1801C53.0462 50.9332 47.4299 51.4019 43.6769 48.227C39.9238 45.052 39.4551 39.4358 42.63 35.6827C45.8049 31.9297 51.4212 31.461 55.1742 34.6359Z" stroke="white"/>
<mask id="mask0" mask-type="alpha" maskUnits="userSpaceOnUse" x="30" y="31" width="22" height="32">
<path fill-rule="evenodd" clip-rule="evenodd" d="M46.8477 31.9209C49.0568 31.9209 50.8477 33.7118 50.8477 35.9209V48.5466C50.8477 49.6512 49.9522 50.5466 48.8477 50.5466H46.793V59.5277C46.793 60.6323 45.8975 61.5277 44.793 61.5277H37.33C36.2254 61.5277 35.33 60.6323 35.33 59.5277V50.5466H33.2811C32.1765 50.5466 31.2811 49.6512 31.2811 48.5466V35.9209C31.2811 33.7118 33.072 31.9209 35.2811 31.9209H39.33H42.793H46.8477Z" fill="white"/>
<path d="M46.793 50.5466H46.293V50.0466H46.793V50.5466ZM35.33 50.5466V50.0466H35.83V50.5466H35.33ZM50.3477 35.9209C50.3477 33.9879 48.7807 32.4209 46.8477 32.4209V31.4209C49.3329 31.4209 51.3477 33.4356 51.3477 35.9209H50.3477ZM50.3477 48.5466V35.9209H51.3477V48.5466H50.3477ZM48.8477 50.0466C49.6761 50.0466 50.3477 49.375 50.3477 48.5466H51.3477C51.3477 49.9273 50.2284 51.0466 48.8477 51.0466V50.0466ZM46.793 50.0466H48.8477V51.0466H46.793V50.0466ZM46.293 59.5277V50.5466H47.293V59.5277H46.293ZM44.793 61.0277C45.6214 61.0277 46.293 60.3561 46.293 59.5277H47.293C47.293 60.9084 46.1737 62.0277 44.793 62.0277V61.0277ZM37.33 61.0277H44.793V62.0277H37.33V61.0277ZM35.83 59.5277C35.83 60.3561 36.5016 61.0277 37.33 61.0277V62.0277C35.9493 62.0277 34.83 60.9084 34.83 59.5277H35.83ZM35.83 50.5466V59.5277H34.83V50.5466H35.83ZM33.2811 50.0466H35.33V51.0466H33.2811V50.0466ZM31.7811 48.5466C31.7811 49.3751 32.4527 50.0466 33.2811 50.0466V51.0466C31.9004 51.0466 30.7811 49.9273 30.7811 48.5466H31.7811ZM31.7811 35.9209V48.5466H30.7811V35.9209H31.7811ZM35.2811 32.4209C33.3481 32.4209 31.7811 33.9879 31.7811 35.9209H30.7811C30.7811 33.4356 32.7958 31.4209 35.2811 31.4209V32.4209ZM39.33 32.4209H35.2811V31.4209H39.33V32.4209ZM42.793 32.4209H39.33V31.4209H42.793V32.4209ZM46.8477 32.4209H42.793V31.4209H46.8477V32.4209Z" fill="black"/>
</mask>
<g mask="url(#mask0)">
<path d="M55.1723 34.6353C58.9254 37.8102 59.3941 43.4265 56.2191 47.1796C53.0442 50.9326 47.428 51.4013 43.6749 48.2264C39.9218 45.0515 39.4532 39.4352 42.6281 35.6822C45.803 31.9291 51.4192 31.4604 55.1723 34.6353Z" stroke="#FF3B30"/>
</g>
</svg>
