<svg width="81" height="81" viewBox="0 0 81 81" fill="none" xmlns="http://www.w3.org/2000/svg">
<rect x="0.171875" y="0.078125" width="80" height="80" rx="29" fill="#FF3B30"/>
<path d="M15.894 24.3162C15.894 22.9355 17.0133 21.8162 18.394 21.8162H61.9556C63.3363 21.8162 64.4556 22.9355 64.4556 24.3162V54.6873H15.894V24.3162Z" fill="white" stroke="#FF3B30"/>
<path d="M11.6431 54.3244C11.8919 56.5829 13.8063 58.3398 16.1311 58.3398H64.213C66.5378 58.3398 68.4523 56.5829 68.7011 54.3244H11.6431Z" fill="white" stroke="#FF3B30"/>
<path d="M46.0207 38.1452C46.0207 40.8211 43.9017 42.9714 41.3109 42.9714C38.7201 42.9714 36.6011 40.8211 36.6011 38.1452C36.6011 35.4694 38.7201 33.3191 41.3109 33.3191C43.9017 33.3191 46.0207 35.4694 46.0207 38.1452Z" fill="white" stroke="#FF3B30"/>
<path d="M32.8569 48.7375C34.1665 45.4228 37.4593 43.0714 41.3143 43.0714C45.1693 43.0714 48.4621 45.4228 49.7717 48.7375" stroke="#FF3B30"/>
<circle cx="20.1542" cy="25.9954" r="1.49506" fill="#FF3B30"/>
<circle cx="25.3027" cy="25.9954" r="1.49506" fill="#FF3B30"/>
<circle cx="30.4482" cy="25.9954" r="1.49506" fill="#FF3B30"/>
</svg>
