<svg width="81" height="81" viewBox="0 0 81 81" fill="none" xmlns="http://www.w3.org/2000/svg">
<rect x="0.523438" y="0.0898438" width="80" height="80" rx="29" fill="#FF3B30"/>
<path d="M51.5903 59.2241H29.4568V51.5406H51.5903V59.2241Z" fill="white" stroke="#FF3B30"/>
<mask id="path-3-inside-1" fill="white">
<path d="M54.9101 30.3686C54.9101 38.3284 43.2208 54.6898 40.5233 54.6898C37.8258 54.6898 26.1365 38.3284 26.1365 30.3686C26.1365 22.4088 32.5777 15.9561 40.5233 15.9561C48.4689 15.9561 54.9101 22.4088 54.9101 30.3686Z"/>
</mask>
<path d="M54.9101 30.3686C54.9101 38.3284 43.2208 54.6898 40.5233 54.6898C37.8258 54.6898 26.1365 38.3284 26.1365 30.3686C26.1365 22.4088 32.5777 15.9561 40.5233 15.9561C48.4689 15.9561 54.9101 22.4088 54.9101 30.3686Z" fill="white"/>
<path d="M53.9101 30.3686C53.9101 32.1534 53.2439 34.5182 52.1225 37.1326C51.0112 39.7235 49.4943 42.4658 47.8864 44.9745C46.2778 47.4841 44.5947 49.7339 43.1621 51.3443C42.4436 52.152 41.8075 52.7767 41.2907 53.1908C41.0318 53.3982 40.8238 53.5357 40.6674 53.6172C40.496 53.7064 40.46 53.6898 40.5233 53.6898V55.6898C40.9238 55.6898 41.2952 55.5452 41.5913 55.391C41.9025 55.2289 42.2223 55.0071 42.5412 54.7516C43.18 54.2398 43.8997 53.5241 44.6564 52.6736C46.1742 50.9675 47.9192 48.6294 49.5702 46.0537C51.2217 43.4771 52.7957 40.6366 53.9605 37.921C55.1151 35.2291 55.9101 32.5637 55.9101 30.3686H53.9101ZM40.5233 53.6898C40.5866 53.6898 40.5505 53.7064 40.3791 53.6172C40.2227 53.5357 40.0147 53.3982 39.7559 53.1908C39.2391 52.7767 38.603 52.152 37.8845 51.3443C36.4518 49.7339 34.7688 47.4841 33.1602 44.9745C31.5522 42.4658 30.0354 39.7235 28.9241 37.1326C27.8027 34.5182 27.1365 32.1534 27.1365 30.3686H25.1365C25.1365 32.5637 25.9314 35.2291 27.086 37.921C28.2508 40.6366 29.8249 43.4771 31.4764 46.0537C33.1273 48.6294 34.8724 50.9675 36.3902 52.6736C37.1468 53.5241 37.8666 54.2398 38.5053 54.7516C38.8243 55.0071 39.144 55.2289 39.4552 55.391C39.7514 55.5452 40.1228 55.6898 40.5233 55.6898V53.6898ZM27.1365 30.3686C27.1365 22.9594 33.1316 16.9561 40.5233 16.9561V14.9561C32.0237 14.9561 25.1365 21.8582 25.1365 30.3686H27.1365ZM40.5233 16.9561C47.9149 16.9561 53.9101 22.9594 53.9101 30.3686H55.9101C55.9101 21.8582 49.0229 14.9561 40.5233 14.9561V16.9561Z" fill="#FF3B30" mask="url(#path-3-inside-1)"/>
<circle cx="40.5239" cy="31.1929" r="6.39724" fill="white" stroke="#FF3B30"/>
</svg>
