<svg width="0" height="0" class="hidden">
    <symbol fill="none" xmlns="http://www.w3.org/2000/svg" viewBox="0 0 15 14" id="download">
        <path d="M6.92 9.43a.15.15 0 00.238 0l2.108-2.668a.15.15 0 00-.119-.242H7.752V.15a.151.151 0 00-.15-.15h-1.13a.151.151 0 00-.15.15v6.368h-1.39a.15.15 0 00-.12.243L6.92 9.429zm7.008-.66h-1.13a.151.151 0 00-.15.151v2.899H1.43v-2.9a.151.151 0 00-.15-.15H.15a.151.151 0 00-.15.15v3.727c0 .333.27.602.602.602h12.874c.333 0 .602-.27.602-.602V8.92a.151.151 0 00-.15-.15z" fill="#000"></path>
    </symbol>
    <symbol xmlns="http://www.w3.org/2000/svg" viewBox="0 0 32 32" id="instagram">
        <rect width="32" height="32" rx="3"></rect>
        <path d="M16 8.553c2.425 0 2.712.01 3.67.053.886.04 1.367.189 1.687.313.395.146.752.378 1.044.68.302.292.534.65.68 1.044.124.32.272.801.313 1.687.044.957.053 1.245.053 3.67 0 2.426-.01 2.713-.053 3.671-.04.886-.189 1.367-.313 1.687a3.007 3.007 0 01-1.724 1.724c-.32.124-.801.272-1.687.312-.957.044-1.245.053-3.67.053-2.426 0-2.713-.009-3.671-.053-.886-.04-1.367-.188-1.687-.312a2.814 2.814 0 01-1.044-.68 2.814 2.814 0 01-.68-1.044c-.124-.32-.272-.801-.312-1.687-.044-.958-.053-1.245-.053-3.67 0-2.426.009-2.713.053-3.671.04-.886.188-1.367.312-1.687.146-.395.378-.752.68-1.045.293-.301.65-.533 1.044-.68.32-.123.802-.271 1.687-.312.958-.044 1.245-.053 3.67-.053zm0-1.637c-2.467 0-2.777.011-3.745.055-.967.044-1.628.198-2.205.422a4.453 4.453 0 00-1.61 1.048 4.453 4.453 0 00-1.047 1.609c-.225.578-.378 1.238-.422 2.205-.045.969-.055 1.278-.055 3.745s.01 2.777.055 3.745c.044.967.198 1.627.422 2.205a4.453 4.453 0 001.048 1.61 4.468 4.468 0 001.609 1.047c.577.224 1.238.378 2.205.422.969.044 1.278.055 3.745.055s2.776-.01 3.745-.055c.967-.044 1.627-.198 2.205-.422a4.645 4.645 0 002.657-2.657c.224-.578.378-1.238.422-2.205.044-.969.055-1.278.055-3.745s-.011-2.776-.055-3.745c-.044-.967-.198-1.627-.422-2.205a4.452 4.452 0 00-1.048-1.609 4.454 4.454 0 00-1.61-1.048c-.577-.224-1.237-.378-2.204-.422-.969-.044-1.278-.054-3.745-.054z" fill="#fff"></path>
        <path d="M15.999 11.335a4.664 4.664 0 100 9.329 4.664 4.664 0 000-9.329zm0 7.693a3.028 3.028 0 110-6.056 3.028 3.028 0 010 6.056zm4.849-6.786a1.09 1.09 0 100-2.18 1.09 1.09 0 000 2.18z" fill="#fff"></path>
        <path d="M3 1h26v-2H3v2zm28 2v26h2V3h-2zm-2 28H3v2h26v-2zM1 29V3h-2v26h2zm2 2a2 2 0 01-2-2h-2a4 4 0 004 4v-2zm28-2a2 2 0 01-2 2v2a4 4 0 004-4h-2zM29 1a2 2 0 012 2h2a4 4 0 00-4-4v2zM3-1a4 4 0 00-4 4h2a2 2 0 012-2v-2z" ></path>
    </symbol>
    <symbol xmlns="http://www.w3.org/2000/svg" viewBox="0 0 32 32" id="twitter">
        <rect width="32" height="32" rx="3" ></rect>
        <path fill-rule="evenodd" clip-rule="evenodd" d="M10.856 9.238a1.628 1.628 0 11-.002 3.257 1.628 1.628 0 01.002-3.257zM9.45 22.761h2.81v-9.033H9.45v9.033zm4.569-9.032h2.691v1.235h.038c.375-.71 1.291-1.46 2.657-1.46 2.842 0 3.367 1.87 3.367 4.304v4.954h-2.806v-4.393c0-1.048-.019-2.395-1.46-2.395-1.46 0-1.683 1.141-1.683 2.32v4.468H14.02v-9.033z" fill="#fff"></path>
        <path d="M3 1h26v-2H3v2zm28 2v26h2V3h-2zm-2 28H3v2h26v-2zM1 29V3h-2v26h2zm2 2a2 2 0 01-2-2h-2a4 4 0 004 4v-2zm28-2a2 2 0 01-2 2v2a4 4 0 004-4h-2zM29 1a2 2 0 012 2h2a4 4 0 00-4-4v2zM3-1a4 4 0 00-4 4h2a2 2 0 012-2v-2z" ></path>
    </symbol>
    <symbol  xmlns="http://www.w3.org/2000/svg" viewBox="0 0 32 32" id="linkedin">
        <rect width="32" height="32" rx="3" ></rect>
        <path fill-rule="evenodd" clip-rule="evenodd" d="M13.046 22.577c6.009 0 9.295-5.061 9.295-9.45 0-.144 0-.287-.01-.43a6.712 6.712 0 001.63-1.719 6.438 6.438 0 01-1.876.523 3.323 3.323 0 001.436-1.837 6.482 6.482 0 01-2.074.806 3.231 3.231 0 00-3.925-.654 3.346 3.346 0 00-1.642 3.683 9.225 9.225 0 01-6.733-3.47c-.867 1.518-.424 3.459 1.011 4.434a3.2 3.2 0 01-1.482-.416v.042c0 1.58 1.096 2.943 2.62 3.256-.48.133-.985.152-1.475.057a3.278 3.278 0 003.053 2.306 6.487 6.487 0 01-4.835 1.377 9.139 9.139 0 005.007 1.49" fill="#fff"></path>
        <path d="M3 1h26v-2H3v2zm28 2v26h2V3h-2zm-2 28H3v2h26v-2zM1 29V3h-2v26h2zm2 2a2 2 0 01-2-2h-2a4 4 0 004 4v-2zm28-2a2 2 0 01-2 2v2a4 4 0 004-4h-2zM29 1a2 2 0 012 2h2a4 4 0 00-4-4v2zM3-1a4 4 0 00-4 4h2a2 2 0 012-2v-2z" ></path>
    </symbol>
    <symbol  xmlns="http://www.w3.org/2000/svg" viewBox="0 0 32 32" id="facebook">
        <rect width="32" height="32" rx="3" ></rect>
        <path fill-rule="evenodd" clip-rule="evenodd" d="M17.143 23.359v-6.713h2.262l.339-2.617h-2.6v-1.67c0-.758.21-1.274 1.3-1.274h1.392v-2.34a18.679 18.679 0 00-2.027-.103c-2.005 0-3.377 1.219-3.377 3.458v1.93h-2.268v2.616h2.268v6.713h2.711z" fill="#fff"></path>
        <path d="M3 1h26v-2H3v2zm28 2v26h2V3h-2zm-2 28H3v2h26v-2zM1 29V3h-2v26h2zm2 2a2 2 0 01-2-2h-2a4 4 0 004 4v-2zm28-2a2 2 0 01-2 2v2a4 4 0 004-4h-2zM29 1a2 2 0 012 2h2a4 4 0 00-4-4v2zM3-1a4 4 0 00-4 4h2a2 2 0 012-2v-2z" ></path>
    </symbol>
    <symbol  xmlns="http://www.w3.org/2000/svg" viewBox="0 0 32 32" id="telegram">
        <rect width="32" height="32" rx="3" ></rect>
        <path fill-rule="evenodd" clip-rule="evenodd" d="M12.078 17.085l-3.587-1.369a.436.436 0 01-.004-.809l14.721-5.805c.312-.124.634.156.566.49l-2.642 12.992a.42.42 0 01-.662.262l-3.606-2.677a.586.586 0 00-.727.02l-2 1.667a.419.419 0 01-.67-.206l-1.389-4.565zm8.175-5.143l-7.01 4.415a.73.73 0 00-.309.812l.758 2.722a.18.18 0 00.354-.026l.197-1.493a1.24 1.24 0 01.372-.734l5.786-5.498c.108-.102-.022-.277-.148-.197z" fill="#fff"></path>
        <path d="M3 1h26v-2H3v2zm28 2v26h2V3h-2zm-2 28H3v2h26v-2zM1 29V3h-2v26h2zm2 2a2 2 0 01-2-2h-2a4 4 0 004 4v-2zm28-2a2 2 0 01-2 2v2a4 4 0 004-4h-2zM29 1a2 2 0 012 2h2a4 4 0 00-4-4v2zM3-1a4 4 0 00-4 4h2a2 2 0 012-2v-2z" ></path>
    </symbol>
    <symbol  xmlns="http://www.w3.org/2000/svg" viewBox="0 0 32 32" id="vk">
        <rect width="32" height="32" rx="3" ></rect>
        <path fill-rule="evenodd" clip-rule="evenodd" d="M23.978 11.693h-2.81a.638.638 0 00-.558.321s-1.121 1.984-1.481 2.652c-.968 1.798-1.596 1.234-1.596.4v-2.877c0-.5-.422-.907-.942-.907h-2.113a1.72 1.72 0 00-1.495.667s1.073-.166 1.073 1.223c0 .345.018 1.336.035 2.167a.599.599 0 01-.393.572.64.64 0 01-.694-.158 17.485 17.485 0 01-2.133-3.73.594.594 0 00-.539-.33H7.78a.44.44 0 00-.359.178.404.404 0 00-.051.384c.775 2.044 4.114 8.467 7.926 8.467H16.9c.35 0 .634-.273.634-.609v-.931c0-.239.147-.455.375-.55a.642.642 0 01.674.114l1.92 1.734a.95.95 0 00.637.242h2.521c1.216 0 1.216-.81.553-1.439a174.91 174.91 0 01-2.15-2.148.812.812 0 01-.067-1.086c.544-.688 1.434-1.816 1.812-2.298.516-.66 1.45-2.058.17-2.058z" fill="#fff"></path>
        <path d="M3 1h26v-2H3v2zm28 2v26h2V3h-2zm-2 28H3v2h26v-2zM1 29V3h-2v26h2zm2 2a2 2 0 01-2-2h-2a4 4 0 004 4v-2zm28-2a2 2 0 01-2 2v2a4 4 0 004-4h-2zM29 1a2 2 0 012 2h2a4 4 0 00-4-4v2zM3-1a4 4 0 00-4 4h2a2 2 0 012-2v-2z" ></path>
    </symbol>
</svg>