<svg width="80" height="81" viewBox="0 0 80 81" fill="none" xmlns="http://www.w3.org/2000/svg">
<rect x="-0.388672" y="-0.269775" width="79.7801" height="80.3689" rx="20" fill="black"/>
<path d="M17.7029 23.9407C17.7029 22.1347 19.1669 20.6707 20.9729 20.6707H58.8395C60.6455 20.6707 62.1095 22.1347 62.1095 23.9407V52.5764H17.7029V23.9407Z" stroke="#F8F9FA" stroke-width="1.05133"/>
<path d="M17.7029 23.9407C17.7029 22.1347 19.1669 20.6707 20.9729 20.6707H58.8395C60.6455 20.6707 62.1095 22.1347 62.1095 23.9407V27.5353H17.7029V23.9407Z" stroke="#F8F9FA" stroke-width="1.05133"/>
<path d="M20.9201 24.103C20.9201 23.7654 21.1938 23.4917 21.5314 23.4917C21.8691 23.4917 22.1427 23.7654 22.1427 24.103C22.1427 24.4406 21.8691 24.7143 21.5314 24.7143C21.1938 24.7143 20.9201 24.4406 20.9201 24.103Z" stroke="#F8F9FA" stroke-width="1.05133"/>
<path d="M25.6202 24.1028C25.6202 23.7652 25.8939 23.4915 26.2315 23.4915C26.5691 23.4915 26.8428 23.7652 26.8428 24.1028C26.8428 24.4404 26.5691 24.7141 26.2315 24.7141C25.8939 24.7141 25.6202 24.4404 25.6202 24.1028Z" stroke="#F8F9FA" stroke-width="1.05133"/>
<path d="M30.3203 24.1028C30.3203 23.7652 30.594 23.4915 30.9316 23.4915C31.2693 23.4915 31.5429 23.7652 31.5429 24.1028C31.5429 24.4404 31.2693 24.7141 30.9316 24.7141C30.594 24.7141 30.3203 24.4404 30.3203 24.1028Z" stroke="#F8F9FA" stroke-width="1.05133"/>
<path d="M13.3408 49.8967H66.4705C66.4705 52.6959 64.2013 54.9651 61.4022 54.9651H18.4092C15.61 54.9651 13.3408 52.6959 13.3408 49.8967Z" fill="black" stroke="#F8F9FA" stroke-width="1.05133"/>
<circle cx="39.9057" cy="53.3634" r="10.3646" fill="black" stroke="#F8F9FA" stroke-width="1.05133"/>
<path d="M35.2905 52.4535L38.9922 56.1088L45.3431 49.2551" stroke="#F8F9FA" stroke-width="1.05133"/>
</svg>
