<svg width="70" height="69" viewBox="0 0 70 69" fill="none" xmlns="http://www.w3.org/2000/svg">
<rect x="0.838867" width="68.4945" height="69" rx="7" fill="#F2F2F2"/>
<path fill-rule="evenodd" clip-rule="evenodd" d="M18.1079 16.7301C16.3019 16.7301 14.8379 18.1941 14.8379 20.0001V45.8951H9.17773C9.17773 48.6943 11.4469 50.9635 14.2461 50.9635H57.2391C60.0383 50.9635 62.3074 48.6943 62.3074 45.8951H56.8379V20.0001C56.8379 18.1941 55.3738 16.7301 53.5679 16.7301H18.1079Z" fill="black"/>
<mask id="path-3-inside-1" fill="white">
<path d="M17.8369 20.7297C17.8369 20.1775 18.2846 19.7297 18.8369 19.7297C19.3892 19.7297 19.8369 20.1775 19.8369 20.7297C19.8369 21.282 19.3892 21.7297 18.8369 21.7297C18.2846 21.7297 17.8369 21.282 17.8369 20.7297Z"/>
</mask>
<path d="M17.8369 20.7297C17.8369 20.1775 18.2846 19.7297 18.8369 19.7297C19.3892 19.7297 19.8369 20.1775 19.8369 20.7297C19.8369 21.282 19.3892 21.7297 18.8369 21.7297C18.2846 21.7297 17.8369 21.282 17.8369 20.7297Z" fill="white"/>
<path d="M18.8369 19.7297C19.3892 19.7297 19.8369 20.1775 19.8369 20.7297H15.8369C15.8369 22.3866 17.1801 23.7297 18.8369 23.7297V19.7297ZM17.8369 20.7297C17.8369 20.1775 18.2846 19.7297 18.8369 19.7297V23.7297C20.4938 23.7297 21.8369 22.3866 21.8369 20.7297H17.8369ZM18.8369 21.7297C18.2846 21.7297 17.8369 21.282 17.8369 20.7297H21.8369C21.8369 19.0729 20.4938 17.7297 18.8369 17.7297V21.7297ZM18.8369 17.7297C17.1801 17.7297 15.8369 19.0729 15.8369 20.7297H19.8369C19.8369 21.282 19.3892 21.7297 18.8369 21.7297V17.7297Z" fill="white" mask="url(#path-3-inside-1)"/>
<mask id="path-5-inside-2" fill="white">
<path d="M21.8369 20.7297C21.8369 20.1775 22.2846 19.7297 22.8369 19.7297C23.3892 19.7297 23.8369 20.1775 23.8369 20.7297C23.8369 21.282 23.3892 21.7297 22.8369 21.7297C22.2846 21.7297 21.8369 21.282 21.8369 20.7297Z"/>
</mask>
<path d="M21.8369 20.7297C21.8369 20.1775 22.2846 19.7297 22.8369 19.7297C23.3892 19.7297 23.8369 20.1775 23.8369 20.7297C23.8369 21.282 23.3892 21.7297 22.8369 21.7297C22.2846 21.7297 21.8369 21.282 21.8369 20.7297Z" fill="white"/>
<path d="M22.8369 19.7297C23.3892 19.7297 23.8369 20.1775 23.8369 20.7297H19.8369C19.8369 22.3866 21.1801 23.7297 22.8369 23.7297V19.7297ZM21.8369 20.7297C21.8369 20.1775 22.2846 19.7297 22.8369 19.7297V23.7297C24.4938 23.7297 25.8369 22.3866 25.8369 20.7297H21.8369ZM22.8369 21.7297C22.2846 21.7297 21.8369 21.282 21.8369 20.7297H25.8369C25.8369 19.0729 24.4938 17.7297 22.8369 17.7297V21.7297ZM22.8369 17.7297C21.1801 17.7297 19.8369 19.0729 19.8369 20.7297H23.8369C23.8369 21.282 23.3892 21.7297 22.8369 21.7297V17.7297Z" fill="white" mask="url(#path-5-inside-2)"/>
<mask id="path-7-inside-3" fill="white">
<path d="M25.8369 20.7297C25.8369 20.1775 26.2846 19.7297 26.8369 19.7297C27.3892 19.7297 27.8369 20.1775 27.8369 20.7297C27.8369 21.282 27.3892 21.7297 26.8369 21.7297C26.2846 21.7297 25.8369 21.282 25.8369 20.7297Z"/>
</mask>
<path d="M25.8369 20.7297C25.8369 20.1775 26.2846 19.7297 26.8369 19.7297C27.3892 19.7297 27.8369 20.1775 27.8369 20.7297C27.8369 21.282 27.3892 21.7297 26.8369 21.7297C26.2846 21.7297 25.8369 21.282 25.8369 20.7297Z" fill="white"/>
<path d="M26.8369 19.7297C27.3892 19.7297 27.8369 20.1775 27.8369 20.7297H23.8369C23.8369 22.3866 25.1801 23.7297 26.8369 23.7297V19.7297ZM25.8369 20.7297C25.8369 20.1775 26.2846 19.7297 26.8369 19.7297V23.7297C28.4938 23.7297 29.8369 22.3866 29.8369 20.7297H25.8369ZM26.8369 21.7297C26.2846 21.7297 25.8369 21.282 25.8369 20.7297H29.8369C29.8369 19.0729 28.4938 17.7297 26.8369 17.7297V21.7297ZM26.8369 17.7297C25.1801 17.7297 23.8369 19.0729 23.8369 20.7297H27.8369C27.8369 21.282 27.3892 21.7297 26.8369 21.7297V17.7297Z" fill="white" mask="url(#path-7-inside-3)"/>
<path d="M28.8379 32.7301L33.8169 37.236L42.3379 27.7301" stroke="white" stroke-width="4"/>
</svg>
