<svg width="70" height="70" viewBox="0 0 70 70" fill="none" xmlns="http://www.w3.org/2000/svg">
<rect x="0.825195" y="0.730469" width="68.4945" height="69" rx="7" fill="#F2F2F2"/>
<path fill-rule="evenodd" clip-rule="evenodd" d="M47.5992 44.3949C50.6001 41.1381 52.4328 36.7885 52.4328 32.0109C52.4328 21.9146 44.2482 13.73 34.152 13.73C24.0557 13.73 15.8711 21.9146 15.8711 32.0109C15.8711 42.1071 24.0557 50.2917 34.152 50.2917C37.187 50.2917 40.0493 49.5521 42.5684 48.2433L48.7156 55.7729C49.8212 57.1271 51.8152 57.3286 53.1694 56.2231C54.5236 55.1175 54.7252 53.1235 53.6196 51.7693L47.5992 44.3949Z" fill="black"/>
<path d="M47.5992 44.3949L47.2126 44.0387L46.9036 44.3741L47.192 44.7274L47.5992 44.3949ZM42.5684 48.2433L42.9756 47.9108L42.7054 47.5798L42.3261 47.7768L42.5684 48.2433ZM48.7156 55.7729L49.1228 55.4404L48.7156 55.7729ZM53.1694 56.2231L52.837 55.8159H52.837L53.1694 56.2231ZM53.6196 51.7693L53.2124 52.1017L53.6196 51.7693ZM51.9072 32.0109C51.9072 36.6514 50.1276 40.8752 47.2126 44.0387L47.9858 44.7511C51.0726 41.4011 52.9585 36.9256 52.9585 32.0109H51.9072ZM34.152 14.2556C43.9579 14.2556 51.9072 22.2049 51.9072 32.0109H52.9585C52.9585 21.6243 44.5385 13.2043 34.152 13.2043V14.2556ZM16.3968 32.0109C16.3968 22.2049 24.346 14.2556 34.152 14.2556V13.2043C23.7654 13.2043 15.3454 21.6243 15.3454 32.0109H16.3968ZM34.152 49.7661C24.346 49.7661 16.3968 41.8168 16.3968 32.0109H15.3454C15.3454 42.3974 23.7654 50.8174 34.152 50.8174V49.7661ZM42.3261 47.7768C39.88 49.0477 37.1007 49.7661 34.152 49.7661V50.8174C37.2734 50.8174 40.2186 50.0566 42.8108 48.7097L42.3261 47.7768ZM49.1228 55.4404L42.9756 47.9108L42.1612 48.5757L48.3084 56.1053L49.1228 55.4404ZM52.837 55.8159C51.7077 56.7378 50.0448 56.5698 49.1228 55.4404L48.3084 56.1053C49.5976 57.6844 51.9228 57.9194 53.5019 56.6303L52.837 55.8159ZM53.2124 52.1017C54.1344 53.231 53.9663 54.8939 52.837 55.8159L53.5019 56.6303C55.0809 55.3411 55.316 53.0159 54.0268 51.4368L53.2124 52.1017ZM47.192 44.7274L53.2124 52.1017L54.0268 51.4368L48.0064 44.0625L47.192 44.7274Z" fill="#EEEEF0"/>
<circle cx="33.8711" cy="28.73" r="3.35" fill="#F8F9FA" stroke="white" stroke-width="1.3"/>
<path d="M26.8404 37.08C28.1713 34.2651 30.8394 32.38 33.8711 32.38C36.9028 32.38 39.5708 34.2651 40.9018 37.08H26.8404Z" fill="#F8F9FA" stroke="white" stroke-width="1.3" stroke-linecap="round"/>
</svg>
