<svg width="80" height="81" viewBox="0 0 80 81" fill="none" xmlns="http://www.w3.org/2000/svg">
<rect x="-0.0449219" y="-0.269775" width="79.7801" height="80.3689" rx="20" fill="black"/>
<path fill-rule="evenodd" clip-rule="evenodd" d="M55.6977 50.7346C58.9032 47.0849 60.8468 42.2995 60.8468 37.0603C60.8468 25.611 51.5654 16.3296 40.1162 16.3296C28.6669 16.3296 19.3855 25.611 19.3855 37.0603C19.3855 48.5095 28.6669 57.7909 40.1162 57.7909C43.7763 57.7909 47.215 56.8424 50.1996 55.1776L55.5737 61.7603C55.8562 62.1063 56.3657 62.1578 56.7116 61.8753L60.9345 58.4278C61.2805 58.1453 61.332 57.6359 61.0495 57.2899L55.6977 50.7346Z" fill="black"/>
<path d="M55.6977 50.7346L55.3028 50.3877L55.009 50.7222L55.2905 51.067L55.6977 50.7346ZM50.1996 55.1776L50.6068 54.8452L50.3283 54.504L49.9436 54.7186L50.1996 55.1776ZM55.5737 61.7603L55.9809 61.4279L55.5737 61.7603ZM56.7116 61.8753L57.0441 62.2825L56.7116 61.8753ZM60.9345 58.4278L60.602 58.0206L60.9345 58.4278ZM61.0495 57.2899L60.6423 57.6223L61.0495 57.2899ZM60.3212 37.0603C60.3212 42.1671 58.4273 46.8302 55.3028 50.3877L56.0927 51.0815C59.3792 47.3395 61.3725 42.432 61.3725 37.0603H60.3212ZM40.1162 16.8553C51.2751 16.8553 60.3212 25.9013 60.3212 37.0603H61.3725C61.3725 25.3207 51.8557 15.8039 40.1162 15.8039V16.8553ZM19.9112 37.0603C19.9112 25.9013 28.9573 16.8553 40.1162 16.8553V15.8039C28.3766 15.8039 18.8598 25.3207 18.8598 37.0603H19.9112ZM40.1162 57.2653C28.9573 57.2653 19.9112 48.2192 19.9112 37.0603H18.8598C18.8598 48.7998 28.3766 58.3166 40.1162 58.3166V57.2653ZM49.9436 54.7186C47.0352 56.3407 43.6844 57.2653 40.1162 57.2653V58.3166C43.8683 58.3166 47.3948 57.344 50.4557 55.6367L49.9436 54.7186ZM55.9809 61.4279L50.6068 54.8452L49.7924 55.5101L55.1665 62.0928L55.9809 61.4279ZM56.3792 61.4681C56.2581 61.567 56.0798 61.549 55.9809 61.4279L55.1665 62.0928C55.6326 62.6636 56.4732 62.7486 57.0441 62.2825L56.3792 61.4681ZM60.602 58.0206L56.3792 61.4681L57.0441 62.2825L61.2669 58.835L60.602 58.0206ZM60.6423 57.6223C60.7412 57.7434 60.7231 57.9217 60.602 58.0206L61.2669 58.835C61.8378 58.3689 61.9228 57.5283 61.4567 56.9575L60.6423 57.6223ZM55.2905 51.067L60.6423 57.6223L61.4567 56.9575L56.1049 50.4021L55.2905 51.067Z" fill="white"/>
<circle cx="40.1162" cy="37.0603" r="20.7307" stroke="white" stroke-width="1.05133"/>
<circle cx="40.1184" cy="37.105" r="17.6596" stroke="white" stroke-width="1.05133"/>
<path d="M45.2189 34.4716C45.2189 37.3722 42.9219 39.7036 40.1127 39.7036C37.3034 39.7036 35.0064 37.3722 35.0064 34.4716C35.0064 31.571 37.3034 29.2395 40.1127 29.2395C42.9219 29.2395 45.2189 31.571 45.2189 34.4716Z" stroke="#F8F9FA" stroke-width="1.05133"/>
<path d="M30.9735 45.9234C32.3892 42.3401 35.9488 39.7981 40.1162 39.7981C44.2835 39.7981 47.8431 42.3401 49.2588 45.9234" stroke="#F8F9FA" stroke-width="1.05133"/>
<circle cx="28.0158" cy="53.0014" r="10.3646" fill="black" stroke="#F8F9FA" stroke-width="1.05133"/>
<path d="M23.4006 52.0914L27.1023 55.7468L33.4532 48.8931" stroke="#F8F9FA" stroke-width="1.05133"/>
</svg>
