<svg width="80" height="81" viewBox="0 0 80 81" fill="none" xmlns="http://www.w3.org/2000/svg">
<rect x="-0.0449219" y="-0.269775" width="79.7801" height="80.3689" rx="20" fill="black"/>
<path d="M25.7525 19.7026H58.3619V59.9932H25.7525V19.7026Z" stroke="#F8F9FA" stroke-width="1.21308"/>
<path d="M22.137 22.8997H25.7525V59.9933H22.137V22.8997Z" stroke="#F8F9FA" stroke-width="1.21308"/>
<path d="M30.8671 39.9822H53.5329" stroke="#F8F9FA" stroke-width="1.21308"/>
<path d="M30.8671 44.8345H53.5329" stroke="#F8F9FA" stroke-width="1.21308"/>
<path d="M30.8671 49.6868H53.5329" stroke="#F8F9FA" stroke-width="1.21308"/>
<path d="M30.8671 25.4253H36.2771" stroke="#F8F9FA" stroke-width="1.21308"/>
<path d="M49.5645 28.4178C49.5645 29.6167 48.6425 30.5383 47.5659 30.5383C46.4893 30.5383 45.5674 29.6167 45.5674 28.4178C45.5674 27.2189 46.4893 26.2974 47.5659 26.2974C48.6425 26.2974 49.5645 27.2189 49.5645 28.4178Z" stroke="#F8F9FA" stroke-width="1.29395"/>
<path d="M50.8809 34.2511C50.8809 32.4758 49.3974 31.0366 47.5674 31.0366C45.7373 31.0366 44.2538 32.4758 44.2538 34.2511" stroke="#F8F9FA" stroke-width="1.29395"/>
<circle cx="29.5973" cy="55.6832" r="10.3646" fill="black" stroke="#F8F9FA" stroke-width="1.29395"/>
<path d="M24.9822 54.7735L28.6838 58.4289L35.0347 51.5752" stroke="#F8F9FA" stroke-width="1.29395"/>
</svg>
