<svg width="1920" height="1333" viewBox="0 0 1920 1333" fill="none" xmlns="http://www.w3.org/2000/svg">
<path d="M1559.5 62.1602C1799.13 393.226 1725.01 855.868 1393.95 1095.5C1062.88 1335.13 600.239 1261.01 360.607 929.947C120.974 598.881 195.095 136.239 526.16 -103.394C857.226 -343.026 1319.87 -268.905 1559.5 62.1602Z" fill="white"/>
<path fill-rule="evenodd" clip-rule="evenodd" d="M1326.65 1094.86C1657.27 855.551 1731.29 393.534 1491.98 62.9155C1252.67 -267.703 790.651 -341.723 460.033 -102.415C129.415 136.894 55.3945 598.911 294.703 929.529C534.012 1260.15 996.029 1334.17 1326.65 1094.86ZM1327.23 1095.67C1658.3 856.037 1732.42 393.395 1492.79 62.3292C1253.15 -268.736 790.512 -342.857 459.447 -103.225C128.382 136.408 54.2606 599.05 293.893 930.115C533.526 1261.18 996.168 1335.3 1327.23 1095.67Z" fill="#EEEEF0"/>
<circle cx="832.96" cy="317.96" r="744.24" transform="rotate(-35.8979 832.96 317.96)" stroke="#E4E4E4"/>
</svg>
