<svg width="1920" height="914" viewBox="0 0 1920 914" fill="none" xmlns="http://www.w3.org/2000/svg">
<mask id="mask0" mask-type="alpha" maskUnits="userSpaceOnUse" x="-65" y="0" width="2050" height="914">
<rect x="-65" width="2050" height="914" fill="#C4C4C4"/>
</mask>
<g mask="url(#mask0)">
<path d="M1146.79 274.848L1068.02 291.408C1030.14 299.372 999.976 327.995 990.038 365.406L958.646 483.581C951.501 510.478 917.489 518.91 898.608 498.464L864.403 461.423C855.223 451.481 841.557 446.987 828.268 449.54V449.54C815.379 452.016 804.591 460.778 799.546 472.894C778.393 523.688 746.934 599.626 745.038 605.816C744.884 606.319 744.373 606.551 743.545 606.54C664.101 605.521 590.583 559.073 516.023 586.516L490.448 595.929C463.683 605.781 439.261 621.094 418.735 640.895V640.895C381.936 676.394 333.227 696.904 282.118 698.421L259.472 699.093L215.499 627.88C209.86 618.748 203.415 610.14 196.242 602.158L169.987 572.945C148.692 549.25 117.485 536.961 85.7505 539.774V539.774C55.2666 542.476 27.6409 558.822 10.599 584.241L-41.458 661.888L-118.529 561.275" stroke="url(#paint0_linear)" stroke-width="0.6"/>
<path d="M1149.27 287.793L1070.51 304.353C1032.63 312.317 1002.46 340.94 992.527 378.351L961.135 496.526C953.99 523.424 919.977 531.855 901.097 511.409L866.892 474.368C857.711 464.426 844.046 459.932 830.756 462.485V462.485C817.867 464.961 807.08 473.723 802.034 485.839C780.881 536.634 749.422 612.572 747.526 618.762C747.372 619.264 746.862 619.496 746.033 619.486C666.589 618.467 593.072 572.018 518.512 599.461L492.936 608.875C466.171 618.726 441.75 634.039 421.224 653.84V653.84C384.424 689.339 335.715 709.85 284.607 711.366L261.961 712.038L217.987 640.825C212.348 631.694 205.904 623.085 198.73 615.103L172.475 585.89C151.18 562.195 119.973 549.906 88.2388 552.719V552.719C57.7549 555.421 30.1292 571.767 13.0873 597.187L-38.9697 674.834L-116.041 574.22" stroke="url(#paint1_linear)" stroke-width="0.6"/>
<path d="M1151.4 298.891L1072.81 315.426C1034.84 323.413 1004.64 352.153 994.784 389.675L963.509 508.735C956.415 535.738 922.257 544.198 903.38 523.627L869.118 486.287C859.974 476.322 846.318 471.808 833.036 474.359V474.359C820.152 476.834 809.379 485.612 804.375 497.739C783.283 548.854 751.878 625.361 749.989 631.595C749.816 632.165 749.188 632.389 748.162 632.306C668.993 625.863 595.378 584.35 520.867 611.871L495.367 621.289C468.581 631.183 444.161 646.569 423.675 666.46V666.46C386.913 702.154 338.104 722.768 286.885 724.23L264.423 724.872L220.283 653.014C214.672 643.879 208.258 635.262 201.117 627.266L174.536 597.505C153.345 573.777 122.199 561.443 90.5082 564.229V564.229C59.9984 566.912 32.362 583.317 15.3966 608.816L-36.6322 687.017L-113.855 585.615" stroke="url(#paint2_linear)" stroke-width="0.6"/>
<path d="M1153.89 311.836L1075.29 328.371C1037.33 336.358 1007.13 365.098 997.272 402.621L965.997 521.68C958.904 548.683 924.745 557.143 905.869 536.572L871.606 499.233C862.462 489.267 848.806 484.753 835.524 487.304V487.304C822.64 489.779 811.868 498.557 806.863 510.685C785.771 561.799 754.366 638.307 752.477 644.54C752.304 645.111 751.677 645.334 750.65 645.251C671.481 638.809 597.866 597.295 523.355 624.816L497.855 634.235C471.069 644.128 446.649 659.514 426.163 679.405V679.405C389.401 715.1 340.592 735.713 289.373 737.176L266.911 737.817L222.772 665.959C217.16 656.824 210.746 648.208 203.605 640.212L177.024 610.45C155.833 586.723 124.687 574.389 92.9965 577.175V577.175C62.4867 579.857 34.8503 596.262 17.8849 621.762L-34.1439 699.963L-111.367 598.56" stroke="url(#paint3_linear)" stroke-width="0.6"/>
<path d="M1156.37 324.781L1077.78 341.316C1039.81 349.303 1009.61 378.043 999.757 415.566L968.481 534.625C961.388 561.629 927.229 570.089 908.353 549.517L874.09 512.178C864.946 502.213 851.291 497.698 838.009 500.25V500.25C825.124 502.725 814.352 511.502 809.348 523.63C788.256 574.745 756.851 651.252 754.961 657.486C754.788 658.056 754.161 658.28 753.135 658.196C673.966 651.754 600.351 610.24 525.84 637.761L500.339 647.18C473.554 657.073 449.134 672.46 428.648 692.351V692.351C391.885 728.045 343.076 748.658 291.857 750.121L269.396 750.762L225.256 678.904C219.645 669.769 213.23 661.153 206.089 653.157L179.509 623.395C158.318 599.668 127.171 587.334 95.4809 590.12V590.12C64.9711 592.802 37.3346 609.208 20.3693 634.707L-31.6595 712.908L-108.883 611.505" stroke="url(#paint4_linear)" stroke-width="0.6"/>
<path d="M1158.86 337.727L1080.1 354.287C1042.22 362.251 1012.05 390.874 1002.12 428.285L970.725 546.46C963.58 573.357 929.567 581.788 910.686 561.342L876.481 524.302C867.301 514.36 853.635 509.866 840.346 512.419V512.419C827.457 514.895 816.67 523.656 811.624 535.773C790.471 586.567 759.012 662.505 757.116 668.695C756.962 669.198 756.452 669.43 755.623 669.419C676.179 668.4 602.662 621.952 528.101 649.395L502.526 658.808C475.761 668.66 451.339 683.973 430.813 703.773V703.773C394.014 739.273 345.305 759.783 294.196 761.3L271.551 761.972L227.577 690.759C221.938 681.627 215.494 673.019 208.32 665.037L182.065 635.824C160.77 612.129 129.563 599.84 97.8286 602.653V602.653C67.3447 605.355 39.719 621.701 22.6771 647.12L-29.3799 724.767L-106.451 624.154" stroke="url(#paint5_linear)" stroke-width="0.6"/>
<path d="M1161 348.82L1082.23 365.381C1044.35 373.345 1014.19 401.968 1004.25 439.379L972.857 557.554C965.712 584.451 931.7 592.882 912.819 572.436L878.614 535.395C869.434 525.453 855.768 520.96 842.479 523.513V523.513C829.59 525.989 818.802 534.75 813.757 546.866C792.604 597.661 761.145 673.599 759.249 679.789C759.095 680.291 758.584 680.524 757.756 680.513C678.312 679.494 604.794 633.046 530.234 660.489L504.659 669.902C477.894 679.753 453.472 695.066 432.946 714.867V714.867C396.147 750.367 347.438 770.877 296.329 772.394L273.683 773.066L229.71 701.852C224.071 692.721 217.626 684.113 210.453 676.131L184.198 646.918C162.902 623.223 131.696 610.934 99.9614 613.746V613.746C69.4775 616.448 41.8519 632.795 24.8099 658.214L-27.247 735.861L-104.318 635.248" stroke="url(#paint6_linear)" stroke-width="0.6"/>
<path d="M1163.12 359.918L1084.53 376.453C1046.56 384.44 1016.36 413.18 1006.51 450.703L975.231 569.762C968.138 596.765 933.979 605.225 915.103 584.654L880.84 547.315C871.696 537.349 858.041 532.835 844.759 535.386V535.386C831.874 537.861 821.102 546.639 816.098 558.767C795.006 609.881 763.601 686.389 761.711 692.622C761.538 693.193 760.911 693.417 759.885 693.333C680.716 686.891 607.101 645.377 532.59 672.898L507.089 682.317C480.304 692.21 455.884 707.596 435.398 727.488V727.488C398.635 763.182 349.826 783.795 298.607 785.258L276.146 785.899L232.006 714.041C226.395 704.906 219.98 696.29 212.839 688.294L186.259 658.532C165.068 634.805 133.921 622.471 102.231 625.257V625.257C71.7211 627.939 44.0846 644.344 27.1193 669.844L-24.9095 748.045L-102.133 646.642" stroke="url(#paint7_linear)" stroke-width="0.6"/>
<path d="M1165.97 374.711L1087.37 391.246C1049.41 399.233 1019.21 427.973 1009.35 465.496L978.075 584.555C970.982 611.558 936.823 620.018 917.947 599.447L883.684 562.108C874.54 552.142 860.884 547.628 847.602 550.179V550.179C834.718 552.654 823.946 561.432 818.941 573.56C797.85 624.674 766.445 701.182 764.555 707.415C764.382 707.986 763.755 708.209 762.729 708.126C683.559 701.684 609.944 660.17 535.433 687.691L509.933 697.11C483.148 707.003 458.727 722.389 438.241 742.28V742.28C401.479 777.975 352.67 798.588 301.451 800.051L278.989 800.692L234.85 728.834C229.239 719.699 222.824 711.083 215.683 703.087L189.103 673.325C167.911 649.598 136.765 637.264 105.075 640.05V640.05C74.5648 642.732 46.9284 659.137 29.963 684.637L-22.0658 762.838L-99.2888 661.435" stroke="url(#paint8_linear)" stroke-width="0.6"/>
<path d="M1168.1 385.805L1089.5 402.34C1051.54 410.327 1021.34 439.067 1011.48 476.589L980.208 595.649C973.114 622.652 938.956 631.112 920.08 610.541L885.817 573.201C876.673 563.236 863.017 558.722 849.735 561.273V561.273C836.851 563.748 826.079 572.526 821.074 584.653C799.982 635.768 768.577 712.275 766.688 718.509C766.515 719.08 765.888 719.303 764.861 719.22C685.692 712.777 612.077 671.264 537.566 698.785L512.066 708.203C485.28 718.097 460.86 733.483 440.374 753.374V753.374C403.612 789.068 354.803 809.682 303.584 811.144L281.122 811.786L236.983 739.928C231.371 730.793 224.957 722.176 217.816 714.18L191.235 684.419C170.044 660.691 138.898 648.357 107.207 651.143V651.143C76.6976 653.826 49.0612 670.231 32.0959 695.73L-19.9329 773.931L-97.1559 672.529" stroke="url(#paint9_linear)" stroke-width="0.6"/>
<path d="M1170.59 398.75L1091.99 415.285C1054.02 423.272 1023.82 452.012 1013.97 489.535L982.692 608.594C975.599 635.597 941.44 644.057 922.564 623.486L888.301 586.147C879.157 576.181 865.502 571.667 852.22 574.218V574.218C839.335 576.693 828.563 585.471 823.559 597.599C802.467 648.713 771.062 725.221 769.172 731.454C768.999 732.025 768.372 732.249 767.346 732.165C688.176 725.723 614.561 684.209 540.051 711.73L514.55 721.149C487.765 731.042 463.345 746.428 442.858 766.32V766.32C406.096 802.014 357.287 822.627 306.068 824.09L283.607 824.731L239.467 752.873C233.856 743.738 227.441 735.122 220.3 727.126L193.72 697.364C172.529 673.637 141.382 661.303 109.692 664.089V664.089C79.182 666.771 51.5456 683.176 34.5802 708.676L-17.4486 786.877L-94.6716 685.474" stroke="url(#paint10_linear)" stroke-width="0.6"/>
<path d="M1172.72 409.848L1094.12 426.383C1056.16 434.37 1025.96 463.11 1016.1 500.632L984.825 619.692C977.732 646.695 943.573 655.155 924.697 634.584L890.434 597.244C881.29 587.279 867.634 582.765 854.352 585.316V585.316C841.468 587.791 830.696 596.569 825.691 608.696C804.6 659.811 773.195 736.318 771.305 742.552C771.132 743.123 770.505 743.346 769.479 743.263C690.309 736.82 616.694 695.307 542.183 722.828L516.683 732.246C489.898 742.14 465.477 757.526 444.991 777.417V777.417C408.229 813.111 359.42 833.725 308.201 835.187L285.739 835.829L241.6 763.971C235.989 754.836 229.574 746.219 222.433 738.223L195.853 708.462C174.661 684.734 143.515 672.4 111.825 675.186V675.186C81.3148 677.869 53.6784 694.274 36.713 719.773L-15.3158 797.974L-92.5388 696.572" stroke="url(#paint11_linear)" stroke-width="0.6"/>
<path d="M1175.2 422.793L1096.61 439.328C1058.64 447.315 1028.44 476.055 1018.58 513.578L987.309 632.637C980.216 659.64 946.057 668.1 927.181 647.529L892.919 610.19C883.774 600.224 870.119 595.71 856.837 598.261V598.261C843.953 600.736 833.18 609.514 828.176 621.642C807.084 672.756 775.679 749.264 773.789 755.497C773.616 756.068 772.989 756.292 771.963 756.208C692.794 749.766 619.179 708.252 544.668 735.773L519.167 745.192C492.382 755.085 467.962 770.471 447.476 790.363V790.363C410.714 826.057 361.904 846.67 310.685 848.133L288.224 848.774L244.084 776.916C238.473 767.781 232.059 759.165 224.917 751.169L198.337 721.407C177.146 697.68 145.999 685.346 114.309 688.132V688.132C83.7992 690.814 56.1628 707.219 39.1974 732.719L-12.8314 810.92L-90.0544 709.517" stroke="url(#paint12_linear)" stroke-width="0.6"/>
<path d="M1177.69 435.738L1099.09 452.273C1061.13 460.26 1030.93 489 1021.07 526.523L989.798 645.582C982.704 672.586 948.546 681.046 929.669 660.474L895.407 623.135C886.263 613.17 872.607 608.655 859.325 611.207V611.207C846.441 613.682 835.668 622.459 830.664 634.587C809.572 685.702 778.167 762.209 776.278 768.443C776.105 769.013 775.477 769.237 774.451 769.153C695.282 762.711 621.667 721.197 547.156 748.718L521.656 758.137C494.87 768.03 470.45 783.417 449.964 803.308V803.308C413.202 839.002 364.393 859.615 313.174 861.078L290.712 861.719L246.572 789.861C240.961 780.727 234.547 772.11 227.406 764.114L200.825 734.352C179.634 710.625 148.488 698.291 116.797 701.077V701.077C86.2875 703.759 58.651 720.165 41.6857 745.664L-10.3431 823.865L-87.5661 722.462" stroke="url(#paint13_linear)" stroke-width="0.6"/>
<path d="M1180.18 448.684L1101.41 465.244C1063.53 473.208 1033.37 501.831 1023.43 539.242L992.041 657.417C984.896 684.314 950.884 692.745 932.003 672.3L897.798 635.259C888.617 625.317 874.952 620.823 861.662 623.376V623.376C848.773 625.852 837.986 634.613 832.94 646.73C811.787 697.524 780.328 773.462 778.432 779.652C778.279 780.155 777.768 780.387 776.939 780.376C697.496 779.357 623.978 732.909 549.418 760.352L523.842 769.765C497.078 779.617 472.656 794.93 452.13 814.731V814.731C415.331 850.23 366.622 870.74 315.513 872.257L292.867 872.929L248.893 801.716C243.255 792.584 236.81 783.976 229.636 775.994L203.382 746.781C182.086 723.086 150.879 710.797 119.145 713.61V713.61C88.6611 716.312 61.0354 732.658 43.9935 758.077L-8.06345 835.724L-85.1348 735.111" stroke="url(#paint14_linear)" stroke-width="0.6"/>
<path d="M1182.66 461.629L1103.9 478.189C1066.02 486.153 1035.86 514.776 1025.92 552.187L994.525 670.362C987.38 697.26 953.368 705.691 934.487 685.245L900.282 648.204C891.102 638.262 877.436 633.768 864.147 636.321V636.321C851.258 638.797 840.47 647.559 835.425 659.675C814.272 710.47 782.813 786.408 780.917 792.597C780.763 793.1 780.252 793.332 779.424 793.322C699.98 792.303 626.462 745.854 551.902 773.297L526.327 782.711C499.562 792.562 475.14 807.875 454.614 827.676V827.676C417.815 863.175 369.106 883.686 317.997 885.202L295.351 885.874L251.378 814.661C245.739 805.53 239.294 796.921 232.121 788.939L205.866 759.726C184.57 736.031 153.363 723.742 121.629 726.555V726.555C91.1455 729.257 63.5198 745.603 46.4779 771.023L-5.57907 848.67L-82.6504 748.056" stroke="url(#paint15_linear)" stroke-width="0.6"/>
<path d="M1184.8 472.723L1106.03 489.283C1068.15 497.247 1037.99 525.87 1028.05 563.281L996.658 681.456C989.513 708.353 955.501 716.785 936.62 696.339L902.415 659.298C893.234 649.356 879.569 644.862 866.28 647.415V647.415C853.391 649.891 842.603 658.653 837.558 670.769C816.405 721.563 784.946 797.501 783.05 803.691C782.896 804.194 782.385 804.426 781.556 804.415C702.113 803.396 628.595 756.948 554.035 784.391L528.459 793.804C501.695 803.656 477.273 818.969 456.747 838.77V838.77C419.948 874.269 371.239 894.779 320.13 896.296L297.484 896.968L253.51 825.755C247.872 816.623 241.427 808.015 234.253 800.033L207.999 770.82C186.703 747.125 155.496 734.836 123.762 737.649V737.649C93.2783 740.351 65.6526 756.697 48.6107 782.116L-3.44626 859.763L-80.5176 759.15" stroke="url(#paint16_linear)" stroke-width="0.6"/>
<path d="M1146.77 274.848L1226.07 261.045C1264.2 254.407 1302.82 269.816 1325.92 300.882L1398.86 399.014C1415.46 421.35 1450.18 416.578 1460.14 390.592L1478.19 343.514C1483.03 330.878 1494.06 321.641 1507.35 319.088V319.088C1520.24 316.612 1533.5 320.753 1542.68 330.137C1581.15 369.478 1638.5 428.355 1642.56 433.402C1642.89 433.811 1643.45 433.838 1644.21 433.521C1717.62 403.139 1768.7 332.756 1848.12 330.62L1875.36 329.887C1903.87 329.12 1932.23 334.294 1958.63 345.08V345.08C2005.97 364.418 2058.81 365.42 2106.84 347.892L2128.12 340.125L2142.58 257.687C2144.43 247.117 2147.23 236.733 2150.94 226.661L2164.5 189.8C2175.5 159.9 2199.93 136.923 2230.45 127.778V127.778C2259.76 118.992 2291.48 123.939 2316.73 141.235L2393.85 194.066L2428.15 72.0577" stroke="url(#paint17_linear)" stroke-width="0.6"/>
<path d="M1149.26 287.793L1228.56 273.991C1266.69 267.352 1305.31 282.761 1328.41 313.827L1401.35 411.96C1417.95 434.295 1452.67 429.524 1462.63 403.537L1480.67 356.459C1485.52 343.823 1496.55 334.586 1509.84 332.033V332.033C1522.72 329.557 1535.99 333.698 1545.17 343.082C1583.63 382.424 1640.99 441.3 1645.05 446.347C1645.37 446.757 1645.93 446.783 1646.7 446.466C1720.11 416.084 1771.19 345.702 1850.61 343.565L1877.85 342.832C1906.36 342.065 1934.72 347.239 1961.12 358.025V358.025C2008.45 377.363 2061.29 378.366 2109.33 360.837L2130.61 353.07L2145.07 270.633C2146.92 260.062 2149.72 249.679 2153.42 239.607L2166.99 202.745C2177.99 172.846 2202.42 149.869 2232.94 140.723V140.723C2262.25 131.938 2293.97 136.884 2319.21 154.18L2396.34 207.012L2430.64 85.003" stroke="url(#paint18_linear)" stroke-width="0.6"/>
<path d="M1151.39 298.887L1230.52 285.123C1268.74 278.475 1307.44 293.979 1330.5 325.179L1403.66 424.176C1420.26 446.629 1455.12 441.83 1465.03 415.729L1483.02 368.352C1487.82 355.708 1498.83 346.455 1512.11 343.904V343.904C1525 341.428 1538.25 345.59 1547.4 355C1585.93 394.662 1643.44 454.087 1647.51 459.177C1647.88 459.642 1648.55 459.618 1649.47 459.16C1720.61 423.842 1773.61 358.007 1853.01 355.961L1880.19 355.261C1908.73 354.525 1937.12 359.768 1963.51 370.653V370.653C2010.88 390.185 2063.86 391.246 2111.97 373.627L2133.07 365.9L2147.45 282.802C2149.27 272.238 2152.04 261.858 2155.71 251.785L2169.37 214.293C2180.26 184.403 2204.62 161.406 2235.09 152.252V152.252C2264.42 143.439 2296.17 148.436 2321.37 165.835L2398.67 219.191L2432.83 96.3933" stroke="url(#paint19_linear)" stroke-width="0.6"/>
<path d="M1153.88 311.833L1233.01 298.069C1271.23 291.42 1309.93 306.925 1332.99 338.125L1406.15 437.121C1422.74 459.574 1457.61 454.775 1467.52 428.674L1485.51 381.297C1490.31 368.653 1501.32 359.4 1514.6 356.849V356.849C1527.48 354.374 1540.74 358.535 1549.88 367.945C1588.41 407.607 1645.93 467.032 1650 472.122C1650.37 472.588 1651.03 472.563 1651.96 472.105C1723.1 436.787 1776.1 370.952 1855.5 368.906L1882.68 368.206C1911.22 367.471 1939.6 372.714 1966 383.598V383.598C2013.37 403.13 2066.35 404.192 2114.46 386.572L2135.56 378.845L2149.93 295.747C2151.76 285.183 2154.53 274.803 2158.2 264.731L2171.86 227.239C2182.75 197.348 2207.11 174.352 2237.58 165.197V165.197C2266.91 156.384 2298.66 161.382 2323.86 178.78L2401.16 232.137L2435.32 109.339" stroke="url(#paint20_linear)" stroke-width="0.6"/>
<path d="M1156.37 324.778L1235.5 311.014C1273.72 304.365 1312.42 319.87 1335.48 351.07L1408.64 450.066C1425.23 472.519 1460.1 467.721 1470.01 441.619L1487.99 394.243C1492.8 381.598 1503.81 372.346 1517.09 369.794V369.794C1529.97 367.319 1543.23 371.48 1552.37 380.891C1590.9 420.552 1648.42 479.977 1652.48 485.067C1652.86 485.533 1653.52 485.508 1654.44 485.051C1725.59 449.733 1778.58 383.898 1857.99 381.852L1885.16 381.151C1913.71 380.416 1942.09 385.659 1968.49 396.543V396.543C2015.86 416.076 2068.83 417.137 2116.95 399.517L2138.05 391.791L2152.42 308.693C2154.25 298.129 2157.01 287.749 2160.69 277.676L2174.35 240.184C2185.24 210.294 2209.6 187.297 2240.06 178.143V178.143C2269.4 169.329 2301.14 174.327 2326.35 191.725L2403.65 245.082L2437.8 122.284" stroke="url(#paint21_linear)" stroke-width="0.6"/>
<path d="M1158.85 337.723L1238.15 323.92C1276.28 317.282 1314.9 332.691 1338 363.757L1410.94 461.889C1427.54 484.225 1462.26 479.453 1472.22 453.467L1490.26 406.389C1495.11 393.753 1506.14 384.516 1519.43 381.963V381.963C1532.31 379.487 1545.58 383.628 1554.76 393.012C1593.22 432.353 1650.58 491.23 1654.64 496.277C1654.96 496.686 1655.52 496.713 1656.29 496.396C1729.7 466.014 1780.78 395.631 1860.2 393.495L1887.44 392.762C1915.95 391.995 1944.31 397.169 1970.71 407.955V407.955C2018.04 427.293 2070.88 428.295 2118.92 410.767L2140.2 403L2154.66 320.562C2156.51 309.992 2159.31 299.608 2163.01 289.536L2176.58 252.675C2187.58 222.775 2212.01 199.798 2242.53 190.653V190.653C2271.84 181.867 2303.56 186.814 2328.8 204.11L2405.93 256.941L2440.23 134.933" stroke="url(#paint22_linear)" stroke-width="0.6"/>
<path d="M1160.98 348.821L1240.28 335.018C1278.41 328.38 1317.04 343.789 1340.13 374.855L1413.07 472.987C1429.67 495.322 1464.39 490.551 1474.35 464.565L1492.4 417.486C1497.24 404.85 1508.27 395.613 1521.56 393.06V393.06C1534.45 390.584 1547.71 394.725 1556.89 404.11C1595.36 443.451 1652.71 502.328 1656.77 507.374C1657.1 507.784 1657.66 507.811 1658.42 507.494C1731.83 477.111 1782.91 406.729 1862.33 404.592L1889.57 403.859C1918.08 403.092 1946.44 408.267 1972.84 419.053V419.053C2020.18 438.39 2073.02 439.393 2121.05 421.864L2142.33 414.098L2156.79 331.66C2158.64 321.089 2161.44 310.706 2165.15 300.634L2178.71 263.772C2189.71 233.873 2214.14 210.896 2244.66 201.75V201.75C2273.97 192.965 2305.69 197.912 2330.94 215.207L2408.06 268.039L2442.37 146.03" stroke="url(#paint23_linear)" stroke-width="0.6"/>
<path d="M1163.11 359.915L1242.24 346.151C1280.46 339.502 1319.16 355.007 1342.22 386.207L1415.39 485.203C1431.98 507.656 1466.84 502.857 1476.75 476.756L1494.74 429.379C1499.54 416.735 1510.55 407.482 1523.83 404.931V404.931C1536.72 402.456 1549.98 406.617 1559.12 416.027C1597.65 455.689 1655.17 515.114 1659.23 520.204C1659.6 520.67 1660.27 520.645 1661.19 520.187C1732.34 484.869 1785.33 419.034 1864.74 416.988L1891.91 416.288C1920.46 415.553 1948.84 420.796 1975.24 431.68V431.68C2022.61 451.212 2075.58 452.274 2123.7 434.654L2144.8 426.927L2159.17 343.829C2161 333.265 2163.76 322.885 2167.43 312.813L2181.09 275.321C2191.98 245.43 2216.34 222.434 2246.81 213.279V213.279C2276.14 204.466 2307.89 209.464 2333.1 226.862L2410.4 280.219L2444.55 157.421" stroke="url(#paint24_linear)" stroke-width="0.6"/>
<path d="M1165.96 374.711L1245.09 360.947C1283.31 354.299 1322.01 369.804 1345.07 401.003L1418.23 500C1434.82 522.453 1469.68 517.654 1479.6 491.553L1497.58 444.176C1502.38 431.532 1513.4 422.279 1526.68 419.728V419.728C1539.56 417.253 1552.82 421.414 1561.96 430.824C1600.49 470.486 1658.01 529.911 1662.07 535.001C1662.45 535.467 1663.11 535.442 1664.03 534.984C1735.18 499.666 1788.17 433.831 1867.58 431.785L1894.75 431.085C1923.3 430.349 1951.68 435.592 1978.08 446.477V446.477C2025.45 466.009 2078.42 467.071 2126.54 449.451L2147.64 441.724L2162.01 358.626C2163.84 348.062 2166.6 337.682 2170.27 327.609L2183.94 290.117C2194.83 260.227 2219.19 237.231 2249.65 228.076V228.076C2278.99 219.263 2310.73 224.261 2335.94 241.659L2413.24 295.016L2447.39 172.218" stroke="url(#paint25_linear)" stroke-width="0.6"/>
<path d="M1168.09 385.805L1247.22 372.041C1285.44 365.393 1324.14 380.897 1347.2 412.097L1420.36 511.094C1436.96 533.547 1471.82 528.748 1481.73 502.647L1499.72 455.27C1504.52 442.626 1515.53 433.373 1528.81 430.821V430.821C1541.69 428.346 1554.95 432.508 1564.09 441.918C1602.62 481.579 1660.14 541.005 1664.21 546.095C1664.58 546.56 1665.24 546.536 1666.17 546.078C1737.31 510.76 1790.31 444.925 1869.71 442.879L1896.89 442.179C1925.43 441.443 1953.81 446.686 1980.21 457.571V457.571C2027.58 477.103 2080.56 478.164 2128.67 460.545L2149.77 452.818L2164.15 369.72C2165.97 359.156 2168.74 348.776 2172.41 338.703L2186.07 301.211C2196.96 271.321 2221.32 248.324 2251.79 239.17V239.17C2281.12 230.357 2312.87 235.354 2338.07 252.753L2415.37 306.109L2449.53 183.311" stroke="url(#paint26_linear)" stroke-width="0.6"/>
<path d="M1170.57 398.75L1249.7 384.987C1287.92 378.338 1326.62 393.843 1349.68 425.042L1422.85 524.039C1439.44 546.492 1474.3 541.693 1484.21 515.592L1502.2 468.215C1507 455.571 1518.01 446.318 1531.3 443.767V443.767C1544.18 441.292 1557.44 445.453 1566.58 454.863C1605.11 494.525 1662.63 553.95 1666.69 559.04C1667.06 559.506 1667.73 559.481 1668.65 559.023C1739.8 523.705 1792.79 457.87 1872.2 455.824L1899.37 455.124C1927.92 454.389 1956.3 459.631 1982.7 470.516V470.516C2030.07 490.048 2083.04 491.11 2131.16 473.49L2152.26 465.763L2166.63 382.665C2168.46 372.101 2171.22 361.721 2174.89 351.648L2188.55 314.157C2199.44 284.266 2223.8 261.27 2254.27 252.115V252.115C2283.6 243.302 2315.35 248.3 2340.56 265.698L2417.86 319.055L2452.01 196.257" stroke="url(#paint27_linear)" stroke-width="0.6"/>
<path d="M1172.71 409.848L1251.84 396.084C1290.06 389.436 1328.76 404.94 1351.82 436.14L1424.98 535.137C1441.57 557.59 1476.43 552.791 1486.35 526.69L1504.33 479.313C1509.13 466.669 1520.15 457.416 1533.43 454.864V454.864C1546.31 452.389 1559.57 456.551 1568.71 465.961C1607.24 505.622 1664.76 565.048 1668.82 570.138C1669.2 570.603 1669.86 570.579 1670.78 570.121C1741.93 534.803 1794.92 468.968 1874.33 466.922L1901.5 466.222C1930.05 465.486 1958.43 470.729 1984.83 481.614V481.614C2032.2 501.146 2085.17 502.207 2133.29 484.588L2154.39 476.861L2168.76 393.763C2170.59 383.199 2173.35 372.819 2177.02 362.746L2190.69 325.254C2201.58 295.364 2225.94 272.367 2256.4 263.213V263.213C2285.74 254.4 2317.48 259.397 2342.69 276.796L2419.99 330.152L2454.14 207.354" stroke="url(#paint28_linear)" stroke-width="0.6"/>
<path d="M1175.19 422.793L1254.32 409.029C1292.54 402.381 1331.24 417.886 1354.3 449.085L1427.46 548.082C1444.06 570.535 1478.92 565.736 1488.83 539.635L1506.82 492.258C1511.62 479.614 1522.63 470.361 1535.91 467.81V467.81C1548.8 465.335 1562.05 469.496 1571.2 478.906C1609.73 518.568 1667.24 577.993 1671.31 583.083C1671.68 583.549 1672.35 583.524 1673.27 583.066C1744.42 547.748 1797.41 481.913 1876.81 479.867L1903.99 479.167C1932.53 478.432 1960.92 483.674 1987.31 494.559V494.559C2034.69 514.091 2087.66 515.153 2135.77 497.533L2156.87 489.806L2171.25 406.708C2173.07 396.144 2175.84 385.764 2179.51 375.691L2193.17 338.199C2204.06 308.309 2228.42 285.313 2258.89 276.158V276.158C2288.22 267.345 2319.97 272.343 2345.17 289.741L2422.47 343.098L2456.63 220.3" stroke="url(#paint29_linear)" stroke-width="0.6"/>
<path d="M1177.68 435.739L1256.81 421.975C1295.03 415.326 1333.73 430.831 1356.79 462.031L1429.95 561.027C1446.55 583.48 1481.41 578.682 1491.32 552.58L1509.31 505.203C1514.11 492.559 1525.12 483.307 1538.4 480.755V480.755C1551.28 478.28 1564.54 482.441 1573.68 491.852C1612.21 531.513 1669.73 590.938 1673.8 596.028C1674.17 596.494 1674.83 596.469 1675.76 596.012C1746.9 560.694 1799.9 494.859 1879.3 492.813L1906.48 492.112C1935.02 491.377 1963.4 496.62 1989.8 507.504V507.504C2037.17 527.037 2090.15 528.098 2138.26 510.478L2159.36 502.752L2173.74 419.653C2175.56 409.09 2178.33 398.71 2182 388.637L2195.66 351.145C2206.55 321.255 2230.91 298.258 2261.38 289.104V289.104C2290.71 280.29 2322.46 285.288 2347.66 302.686L2424.96 356.043L2459.12 233.245" stroke="url(#paint30_linear)" stroke-width="0.6"/>
<path d="M1180.17 448.68L1259.46 434.877C1297.6 428.239 1336.22 443.648 1359.31 474.714L1432.26 572.846C1448.86 595.182 1483.57 590.41 1493.54 564.424L1511.58 517.346C1516.42 504.71 1527.45 495.473 1540.74 492.92V492.92C1553.63 490.444 1566.9 494.585 1576.07 503.969C1614.54 543.31 1671.9 602.187 1675.95 607.234C1676.28 607.644 1676.84 607.67 1677.61 607.353C1751.02 576.971 1802.09 506.588 1881.51 504.452L1908.76 503.719C1937.27 502.952 1965.62 508.126 1992.03 518.912V518.912C2039.36 538.25 2092.2 539.252 2140.23 521.724L2161.52 513.957L2175.97 431.519C2177.83 420.949 2180.62 410.565 2184.33 400.493L2197.89 363.632C2208.89 333.733 2233.32 310.755 2263.84 301.61V301.61C2293.16 292.824 2324.87 297.771 2350.12 315.067L2427.24 367.898L2461.55 245.89" stroke="url(#paint31_linear)" stroke-width="0.6"/>
<path d="M1182.65 461.625L1261.95 447.823C1300.08 441.184 1338.7 456.593 1361.8 487.659L1434.74 585.792C1451.34 608.127 1486.06 603.356 1496.02 577.369L1514.07 530.291C1518.91 517.655 1529.94 508.418 1543.23 505.865V505.865C1556.11 503.389 1569.38 507.53 1578.56 516.914C1617.02 556.256 1674.38 615.132 1678.44 620.179C1678.77 620.589 1679.33 620.615 1680.09 620.298C1753.5 589.916 1804.58 519.534 1884 517.397L1911.24 516.664C1939.75 515.897 1968.11 521.071 1994.51 531.857V531.857C2041.84 551.195 2094.69 552.198 2142.72 534.669L2164 526.902L2178.46 444.465C2180.31 433.894 2183.11 423.511 2186.81 413.439L2200.38 376.577C2211.38 346.678 2235.81 323.701 2266.33 314.555V314.555C2295.64 305.77 2327.36 310.716 2352.61 328.012L2429.73 380.844L2464.03 258.835" stroke="url(#paint32_linear)" stroke-width="0.6"/>
<path d="M1184.78 472.723L1264.08 458.92C1302.21 452.282 1340.84 467.691 1363.93 498.757L1436.87 596.889C1453.48 619.225 1488.19 614.453 1498.15 588.467L1516.2 541.389C1521.04 528.753 1532.07 519.516 1545.36 516.963V516.963C1558.25 514.487 1571.51 518.628 1580.69 528.012C1619.16 567.353 1676.51 626.23 1680.57 631.277C1680.9 631.686 1681.46 631.713 1682.22 631.396C1755.64 601.014 1806.71 530.631 1886.13 528.495L1913.37 527.762C1941.88 526.995 1970.24 532.169 1996.64 542.955V542.955C2043.98 562.293 2096.82 563.295 2144.85 545.767L2166.13 538L2180.59 455.562C2182.45 444.992 2185.24 434.608 2188.95 424.536L2202.51 387.675C2213.51 357.775 2237.94 334.798 2268.46 325.653V325.653C2297.77 316.867 2329.49 321.814 2354.74 339.11L2431.86 391.941L2466.17 269.933" stroke="url(#paint33_linear)" stroke-width="0.6"/>
</g>
<defs>
<linearGradient id="paint0_linear" x1="510.111" y1="397.152" x2="560.201" y2="657.903" gradientUnits="userSpaceOnUse">
<stop offset="0.03125" stop-color="#161616"/>
<stop offset="1" stop-color="#C7C3C8" stop-opacity="0"/>
</linearGradient>
<linearGradient id="paint1_linear" x1="512.6" y1="410.097" x2="562.689" y2="670.848" gradientUnits="userSpaceOnUse">
<stop offset="0.03125" stop-color="#161616"/>
<stop offset="1" stop-color="#C7C3C8" stop-opacity="0"/>
</linearGradient>
<linearGradient id="paint2_linear" x1="514.728" y1="421.195" x2="565.174" y2="683.795" gradientUnits="userSpaceOnUse">
<stop offset="0.03125" stop-color="#161616"/>
<stop offset="1" stop-color="#C7C3C8" stop-opacity="0"/>
</linearGradient>
<linearGradient id="paint3_linear" x1="517.217" y1="434.14" x2="567.662" y2="696.74" gradientUnits="userSpaceOnUse">
<stop offset="0.03125" stop-color="#161616"/>
<stop offset="1" stop-color="#C7C3C8" stop-opacity="0"/>
</linearGradient>
<linearGradient id="paint4_linear" x1="519.701" y1="447.086" x2="570.146" y2="709.686" gradientUnits="userSpaceOnUse">
<stop offset="0.03125" stop-color="#161616"/>
<stop offset="1" stop-color="#C7C3C8" stop-opacity="0"/>
</linearGradient>
<linearGradient id="paint5_linear" x1="522.189" y1="460.031" x2="572.279" y2="720.782" gradientUnits="userSpaceOnUse">
<stop offset="0.03125" stop-color="#161616"/>
<stop offset="1" stop-color="#C7C3C8" stop-opacity="0"/>
</linearGradient>
<linearGradient id="paint6_linear" x1="524.322" y1="471.125" x2="574.412" y2="731.875" gradientUnits="userSpaceOnUse">
<stop offset="0.03125" stop-color="#161616"/>
<stop offset="1" stop-color="#C7C3C8" stop-opacity="0"/>
</linearGradient>
<linearGradient id="paint7_linear" x1="526.451" y1="482.222" x2="576.896" y2="744.822" gradientUnits="userSpaceOnUse">
<stop offset="0.03125" stop-color="#161616"/>
<stop offset="1" stop-color="#C7C3C8" stop-opacity="0"/>
</linearGradient>
<linearGradient id="paint8_linear" x1="529.295" y1="497.015" x2="579.74" y2="759.615" gradientUnits="userSpaceOnUse">
<stop offset="0.03125" stop-color="#161616"/>
<stop offset="1" stop-color="#C7C3C8" stop-opacity="0"/>
</linearGradient>
<linearGradient id="paint9_linear" x1="531.428" y1="508.109" x2="581.873" y2="770.709" gradientUnits="userSpaceOnUse">
<stop offset="0.03125" stop-color="#161616"/>
<stop offset="1" stop-color="#C7C3C8" stop-opacity="0"/>
</linearGradient>
<linearGradient id="paint10_linear" x1="533.912" y1="521.054" x2="584.357" y2="783.654" gradientUnits="userSpaceOnUse">
<stop offset="0.03125" stop-color="#161616"/>
<stop offset="1" stop-color="#C7C3C8" stop-opacity="0"/>
</linearGradient>
<linearGradient id="paint11_linear" x1="536.045" y1="532.152" x2="586.49" y2="794.752" gradientUnits="userSpaceOnUse">
<stop offset="0.03125" stop-color="#161616"/>
<stop offset="1" stop-color="#C7C3C8" stop-opacity="0"/>
</linearGradient>
<linearGradient id="paint12_linear" x1="538.529" y1="545.097" x2="588.974" y2="807.697" gradientUnits="userSpaceOnUse">
<stop offset="0.03125" stop-color="#161616"/>
<stop offset="1" stop-color="#C7C3C8" stop-opacity="0"/>
</linearGradient>
<linearGradient id="paint13_linear" x1="541.018" y1="558.043" x2="591.463" y2="820.643" gradientUnits="userSpaceOnUse">
<stop offset="0.03125" stop-color="#161616"/>
<stop offset="1" stop-color="#C7C3C8" stop-opacity="0"/>
</linearGradient>
<linearGradient id="paint14_linear" x1="543.506" y1="570.988" x2="593.596" y2="831.739" gradientUnits="userSpaceOnUse">
<stop offset="0.03125" stop-color="#161616"/>
<stop offset="1" stop-color="#C7C3C8" stop-opacity="0"/>
</linearGradient>
<linearGradient id="paint15_linear" x1="545.99" y1="583.933" x2="596.08" y2="844.684" gradientUnits="userSpaceOnUse">
<stop offset="0.03125" stop-color="#161616"/>
<stop offset="1" stop-color="#C7C3C8" stop-opacity="0"/>
</linearGradient>
<linearGradient id="paint16_linear" x1="548.123" y1="595.027" x2="598.213" y2="855.778" gradientUnits="userSpaceOnUse">
<stop offset="0.03125" stop-color="#161616"/>
<stop offset="1" stop-color="#C7C3C8" stop-opacity="0"/>
</linearGradient>
<linearGradient id="paint17_linear" x1="1783.45" y1="152.544" x2="1833.54" y2="413.294" gradientUnits="userSpaceOnUse">
<stop offset="0.541667" stop-color="white"/>
<stop offset="0.692708" stop-color="#A9A9A9" stop-opacity="0.96"/>
<stop offset="0.942708" stop-color="white"/>
</linearGradient>
<linearGradient id="paint18_linear" x1="1785.94" y1="165.489" x2="1836.03" y2="426.24" gradientUnits="userSpaceOnUse">
<stop offset="0.541667" stop-color="white"/>
<stop offset="0.692708" stop-color="#A9A9A9" stop-opacity="0.96"/>
<stop offset="0.942708" stop-color="white"/>
</linearGradient>
<linearGradient id="paint19_linear" x1="1788.06" y1="176.583" x2="1838.51" y2="439.183" gradientUnits="userSpaceOnUse">
<stop offset="0.541667" stop-color="white"/>
<stop offset="0.692708" stop-color="#A9A9A9" stop-opacity="0.96"/>
<stop offset="0.942708" stop-color="white"/>
</linearGradient>
<linearGradient id="paint20_linear" x1="1790.55" y1="189.528" x2="1841" y2="452.128" gradientUnits="userSpaceOnUse">
<stop offset="0.541667" stop-color="white"/>
<stop offset="0.692708" stop-color="#A9A9A9" stop-opacity="0.96"/>
<stop offset="0.942708" stop-color="white"/>
</linearGradient>
<linearGradient id="paint21_linear" x1="1793.04" y1="202.473" x2="1843.49" y2="465.073" gradientUnits="userSpaceOnUse">
<stop offset="0.541667" stop-color="white"/>
<stop offset="0.692708" stop-color="#A9A9A9" stop-opacity="0.96"/>
<stop offset="0.942708" stop-color="white"/>
</linearGradient>
<linearGradient id="paint22_linear" x1="1795.53" y1="215.419" x2="1845.61" y2="476.169" gradientUnits="userSpaceOnUse">
<stop offset="0.541667" stop-color="white"/>
<stop offset="0.692708" stop-color="#A9A9A9" stop-opacity="0.96"/>
<stop offset="0.942708" stop-color="white"/>
</linearGradient>
<linearGradient id="paint23_linear" x1="1797.66" y1="226.516" x2="1847.75" y2="487.267" gradientUnits="userSpaceOnUse">
<stop offset="0.541667" stop-color="white"/>
<stop offset="0.692708" stop-color="#A9A9A9" stop-opacity="0.96"/>
<stop offset="0.942708" stop-color="white"/>
</linearGradient>
<linearGradient id="paint24_linear" x1="1799.79" y1="237.61" x2="1850.23" y2="500.21" gradientUnits="userSpaceOnUse">
<stop offset="0.541667" stop-color="white"/>
<stop offset="0.692708" stop-color="#A9A9A9" stop-opacity="0.96"/>
<stop offset="0.942708" stop-color="white"/>
</linearGradient>
<linearGradient id="paint25_linear" x1="1802.63" y1="252.407" x2="1853.08" y2="515.007" gradientUnits="userSpaceOnUse">
<stop offset="0.541667" stop-color="white"/>
<stop offset="0.692708" stop-color="#A9A9A9" stop-opacity="0.96"/>
<stop offset="0.942708" stop-color="white"/>
</linearGradient>
<linearGradient id="paint26_linear" x1="1804.76" y1="263.501" x2="1855.21" y2="526.101" gradientUnits="userSpaceOnUse">
<stop offset="0.541667" stop-color="white"/>
<stop offset="0.692708" stop-color="#A9A9A9" stop-opacity="0.96"/>
<stop offset="0.942708" stop-color="white"/>
</linearGradient>
<linearGradient id="paint27_linear" x1="1807.25" y1="276.446" x2="1857.69" y2="539.046" gradientUnits="userSpaceOnUse">
<stop offset="0.541667" stop-color="white"/>
<stop offset="0.692708" stop-color="#A9A9A9" stop-opacity="0.96"/>
<stop offset="0.942708" stop-color="white"/>
</linearGradient>
<linearGradient id="paint28_linear" x1="1809.38" y1="287.544" x2="1859.83" y2="550.143" gradientUnits="userSpaceOnUse">
<stop offset="0.541667" stop-color="white"/>
<stop offset="0.692708" stop-color="#A9A9A9" stop-opacity="0.96"/>
<stop offset="0.942708" stop-color="white"/>
</linearGradient>
<linearGradient id="paint29_linear" x1="1811.86" y1="300.489" x2="1862.31" y2="563.089" gradientUnits="userSpaceOnUse">
<stop offset="0.541667" stop-color="white"/>
<stop offset="0.692708" stop-color="#A9A9A9" stop-opacity="0.96"/>
<stop offset="0.942708" stop-color="white"/>
</linearGradient>
<linearGradient id="paint30_linear" x1="1814.35" y1="313.434" x2="1864.8" y2="576.034" gradientUnits="userSpaceOnUse">
<stop offset="0.541667" stop-color="white"/>
<stop offset="0.692708" stop-color="#A9A9A9" stop-opacity="0.96"/>
<stop offset="0.942708" stop-color="white"/>
</linearGradient>
<linearGradient id="paint31_linear" x1="1816.84" y1="326.376" x2="1866.93" y2="587.126" gradientUnits="userSpaceOnUse">
<stop offset="0.541667" stop-color="white"/>
<stop offset="0.692708" stop-color="#A9A9A9" stop-opacity="0.96"/>
<stop offset="0.942708" stop-color="white"/>
</linearGradient>
<linearGradient id="paint32_linear" x1="1819.33" y1="339.321" x2="1869.42" y2="600.072" gradientUnits="userSpaceOnUse">
<stop offset="0.541667" stop-color="white"/>
<stop offset="0.692708" stop-color="#A9A9A9" stop-opacity="0.96"/>
<stop offset="0.942708" stop-color="white"/>
</linearGradient>
<linearGradient id="paint33_linear" x1="1821.46" y1="350.419" x2="1871.55" y2="611.169" gradientUnits="userSpaceOnUse">
<stop offset="0.541667" stop-color="white"/>
<stop offset="0.692708" stop-color="#A9A9A9" stop-opacity="0.96"/>
<stop offset="0.942708" stop-color="white"/>
</linearGradient>
</defs>
</svg>
