<svg width="49" height="48" viewBox="0 0 49 48" fill="none" xmlns="http://www.w3.org/2000/svg">
<rect x="0.5" width="48" height="48" rx="11" fill="#FF3B30"/>
<path fill-rule="evenodd" clip-rule="evenodd" d="M8.5 17.078C8.5 12.0284 12.5851 8 17.578 8H34.5425C35.3936 8 36.1312 8.68085 36.1312 9.58865C36.1312 10.4965 35.4503 11.1773 34.5425 11.1773H17.578C14.2872 11.1773 11.6206 13.844 11.6206 17.1348V30.9787C11.6206 34.2695 14.2872 36.9362 17.578 36.9362H31.422C34.7128 36.9362 37.3794 34.2695 37.3794 30.9787V17.7021H18.2589C17.4078 17.7021 16.6702 17.0213 16.6702 16.1135C16.6702 15.2057 17.3511 14.5248 18.2589 14.5248H37.4362C39.1383 14.5248 40.5 15.8865 40.5 17.5887V30.922C40.5 35.9716 36.4149 40 31.422 40H17.578C12.5284 40 8.5 35.9149 8.5 30.922V17.078Z" fill="white"/>
</svg>
