<?xml version="1.0" standalone="no"?>
<!DOCTYPE svg PUBLIC "-//W3C//DTD SVG 20010904//EN"
 "http://www.w3.org/TR/2001/REC-SVG-20010904/DTD/svg10.dtd">
<svg version="1.0" xmlns="http://www.w3.org/2000/svg"
 width="180.000000pt" height="180.000000pt" viewBox="0 0 180.000000 180.000000"
 preserveAspectRatio="xMidYMid meet">
<metadata>
Created by potrace 1.14, written by Peter Selinger 2001-2017
</metadata>
<g transform="translate(0.000000,180.000000) scale(0.100000,-0.100000)"
fill="#000000" stroke="none">
<path d="M310 1781 c-138 -44 -251 -163 -277 -291 -3 -17 -9 -30 -14 -30 -5 0
-9 -250 -9 -555 0 -411 3 -555 12 -555 6 0 9 -3 5 -6 -7 -7 16 -74 44 -131 47
-93 170 -183 277 -203 35 -6 262 -9 611 -7 l556 2 72 38 c80 43 150 112 188
188 l24 46 0 622 1 623 -31 59 c-38 73 -113 142 -199 183 l-65 31 -570 2
c-517 1 -575 0 -625 -16z"/>
</g>
</svg>
